{
.appVersion = "1342";
DisplayStrings = (
A,
"Æ",
"/acircumflexacute"
);
copyright = "Copyright 2011 The Playball Project Authors (https://github.com/googlefonts/play-ball)";
customParameters = (
{
name = licenseURL;
value = "https://scripts.sil.org/OFL";
},
{
name = license;
value = "This Font Software is licensed under the SIL Open Font License, Version 1.1. This license is available with a FAQ at: https://scripts.sil.org/OFL";
},
{
name = vendorID;
value = GOOG;
},
{
name = panose;
value = (
2,
0,
0,
0,
0,
0,
0,
0,
0,
0
);
},
{
name = unicodeRanges;
value = (
0,
1,
2,
3,
5,
7,
31,
33,
35,
38,
45,
60,
62,
76
);
},
{
name = fsType;
value = (
);
},
{
name = glyphOrder;
value = (
.notdef,
.null,
CR,
space,
exclam,
quotedbl,
numbersign,
dollar,
percent,
ampersand,
quotesingle,
parenleft,
parenright,
asterisk,
plus,
comma,
hyphen,
period,
slash,
zero,
one,
two,
three,
four,
five,
six,
seven,
eight,
nine,
colon,
semicolon,
less,
equal,
greater,
question,
at,
A,
B,
C,
D,
E,
F,
G,
H,
I,
J,
K,
L,
M,
N,
O,
P,
Q,
R,
S,
T,
U,
V,
W,
X,
Y,
Z,
bracketleft,
backslash,
bracketright,
asciicircum,
underscore,
grave,
a,
b,
c,
d,
e,
f,
g,
h,
i,
j,
k,
l,
m,
n,
o,
p,
q,
r,
s,
t,
u,
v,
w,
x,
y,
z,
braceleft,
bar,
braceright,
asciitilde,
nbspace,
exclamdown,
cent,
sterling,
currency,
yen,
brokenbar,
section,
dieresis,
copyright,
ordfeminine,
guillemotleft,
logicalnot,
uni00AD,
registered,
macron,
degree,
plusminus,
twosuperior,
threesuperior,
acute,
mu,
paragraph,
periodcentered,
cedilla,
onesuperior,
ordmasculine,
guillemotright,
onequarter,
onehalf,
threequarters,
questiondown,
Agrave,
Aacute,
Acircumflex,
Atilde,
Adieresis,
Aring,
AE,
Ccedilla,
Egrave,
Eacute,
Ecircumflex,
Edieresis,
Igrave,
Iacute,
Icircumflex,
Idieresis,
Eth,
Ntilde,
Ograve,
Oacute,
Ocircumflex,
Otilde,
Odieresis,
multiply,
Oslash,
Ugrave,
Uacute,
Ucircumflex,
Udieresis,
Yacute,
Thorn,
germandbls,
agrave,
aacute,
acircumflex,
atilde,
adieresis,
aring,
ae,
ccedilla,
egrave,
eacute,
ecircumflex,
edieresis,
igrave,

glyphs = (
{
glyphname = exclam;
layers = (
{
hints = (
{
horizontal = 1;
place = "{-11, 114}";
type = Stem;
},
{
place = "{42, 108}";
type = Stem;
}
);
layerId = "FDC6D5C2-1E82-4E29-8E0D-3EE46E074C54";
paths = (
{
closed = 1;
nodes = (
"372 646 OFFCURVE",
"294 670 OFFCURVE",
"280 630 CURVE SMOOTH",
"228 487 OFFCURVE",
"151 261 OFFCURVE",
"134 224 CURVE",
"175 232 LINE",
"185 261 OFFCURVE",
"317 530 OFFCURVE",
"401 651 CURVE"
);
},
{
closed = 1;
nodes = (
"166 71 OFFCURVE",
"152 82 OFFCURVE",
"131 84 CURVE SMOOTH",
"102 88 OFFCURVE",
"77 76 OFFCURVE",
"62 60 CURVE SMOOTH",
"46 44 OFFCURVE",
"44 24 OFFCURVE",
"61 11 CURVE SMOOTH",
"74 1 OFFCURVE",
"93 -6 OFFCURVE",
"98 -8 CURVE",
"106 7 OFFCURVE",
"143 46 OFFCURVE",
"159 49 CURVE"
);
}
);
width = 351;
}
);
note = exclam;
unicode = 0021;
},
{
glyphname = quotedbl;
layers = (
{
hints = (
{
horizontal = 1;
place = "{491, 210}";
type = Stem;
},
{
place = "{53, 304}";
type = Stem;
}
);
layerId = "FDC6D5C2-1E82-4E29-8E0D-3EE46E074C54";
paths = (
{
closed = 1;
nodes = (
"369 703 OFFCURVE",
"276 708 OFFCURVE",
"268 689 CURVE SMOOTH",
"241 620 OFFCURVE",
"202 512 OFFCURVE",
"190 495 CURVE",
"190 491 OFFCURVE",
"224 491 OFFCURVE",
"227 496 CURVE SMOOTH",
"237 517 OFFCURVE",
"299 613 OFFCURVE",
"357 688 CURVE SMOOTH"
);
},
{
closed = 1;
nodes = (
"231 703 OFFCURVE",
"139 708 OFFCURVE",
"131 689 CURVE SMOOTH",
"104 620 OFFCURVE",
"64 512 OFFCURVE",
"53 495 CURVE",
"53 491 OFFCURVE",
"87 491 OFFCURVE",
"89 496 CURVE SMOOTH",
"99 517 OFFCURVE",
"162 613 OFFCURVE",
"219 688 CURVE SMOOTH"
);
}
);
width = 373;
}
);
note = quotedbl;
unicode = 0022;
},
{
glyphname = numbersign;
layers = (
{
hints = (
{
horizontal = 1;
place = "{190, 65}";
type = Stem;
},
{
horizontal = 1;
place = "{403, 65}";
type = Stem;
},
{
place = "{60, 688}";
type = Stem;
}
);
layerId = "FDC6D5C2-1E82-4E29-8E0D-3EE46E074C54";
paths = (
{
closed = 1;
nodes = (
"603 468 LINE",
"631 539 LINE SMOOTH",
"636 553 OFFCURVE",
"589 613 OFFCURVE",
"587 605 CURVE",
"534 468 LINE",
"377 468 LINE",
"404 539 LINE SMOOTH",
"409 553 OFFCURVE",
"363 613 OFFCURVE",
"360 605 CURVE SMOOTH",
"307 468 LINE",
"179 468 LINE SMOOTH",
"164 468 OFFCURVE",
"125 403 OFFCURVE",
"133 403 CURVE SMOOTH",
"282 403 LINE",
"225 256 LINE",
"107 256 LINE SMOOTH",
"93 256 OFFCURVE",
"54 191 OFFCURVE",
"62 191 CURVE SMOOTH",
"200 191 LINE",
"155 75 LINE SMOOTH",
"150 61 OFFCURVE",
"196 1 OFFCURVE",
"199 9 CURVE SMOOTH",
"269 191 LINE",
"427 191 LINE",
"382 75 LINE SMOOTH",
"377 61 OFFCURVE",
"423 1 OFFCURVE",
"426 9 CURVE SMOOTH",
"496 191 LINE",
"630 191 LINE SMOOTH",
"645 191 OFFCURVE",
"684 256 OFFCURVE",
"676 256 CURVE SMOOTH",
"521 256 LINE",
"578 403 LINE",
"702 403 LINE SMOOTH",
"717 403 OFFCURVE",
"756 468 OFFCURVE",
"748 468 CURVE SMOOTH"
);
},
{
closed = 1;
nodes = (
"452 256 LINE",
"295 256 LINE",
"351 403 LINE",
"508 403 LINE"
);
}
);
width = 781;
}
);
note = numbersign;
unicode = 0023;
},
{
glyphname = dollar;
layers = (
{
hints = (
{
horizontal = 1;
place = "{84, 65}";
type = Stem;
},
{
horizontal = 1;
place = "{487, -20}";
target = down;
type = TopGhost;
},
{
horizontal = 1;
place = "{562, 38}";
type = Stem;
},
{
horizontal = 1;
place = "{702, -20}";
target = down;
type = TopGhost;
},
{
place = "{46, 55}";
type = Stem;
},
{
place = "{404, 48}";
type = Stem;
},
{
place = "{324, 83}";
type = Stem;
}
);
layerId = "FDC6D5C2-1E82-4E29-8E0D-3EE46E074C54";
paths = (
{
closed = 1;
nodes = (
"432 581 OFFCURVE",
"407 593 OFFCURVE",
"379 598 CURVE",
"416 694 LINE SMOOTH",
"419 701 OFFCURVE",
"375 706 OFFCURVE",
"372 699 CURVE SMOOTH",
"334 601 LINE",
"300 600 OFFCURVE",
"266 591 OFFCURVE",
"245 581 CURVE SMOOTH",
"198 558 OFFCURVE",
"172 521 OFFCURVE",
"164 486 CURVE SMOOTH",
"153 435 OFFCURVE",
"194 384 OFFCURVE",
"236 347 CURVE",
"162 154 LINE",
"133 164 OFFCURVE",
"111 187 OFFCURVE",
"105 208 CURVE SMOOTH",
"99 232 OFFCURVE",
"99 254 OFFCURVE",
"124 271 CURVE",
"88 279 OFFCURVE",
"57 247 OFFCURVE",
"49 213 CURVE SMOOTH",
"32 142 OFFCURVE",
"78 102 OFFCURVE",
"137 89 CURVE",
"82 -53 LINE SMOOTH",
"80 -60 OFFCURVE",
"123 -65 OFFCURVE",
"126 -58 CURVE SMOOTH",
"181 84 LINE",
"185 84 LINE SMOOTH",
"218 84 OFFCURVE",
"252 90 OFFCURVE",
"285 103 CURVE SMOOTH",
"354 130 OFFCURVE",
"400 193 OFFCURVE",
"407 243 CURVE SMOOTH",
"417 310 OFFCURVE",
"373 355 OFFCURVE",
"323 389 CURVE SMOOTH",
"304 402 LINE",
"360 549 LINE",
"383 536 OFFCURVE",
"405 513 OFFCURVE",
"405 487 CURVE",
"450 482 OFFCURVE",
"462 532 OFFCURVE",
"445 559 CURVE SMOOTH"
);
},
{
closed = 1;
nodes = (
"269 431 LINE",
"252 447 OFFCURVE",
"239 466 OFFCURVE",
"238 491 CURVE SMOOTH",
"235 536 OFFCURVE",
"275 566 OFFCURVE",
"319 562 CURVE"
);
},
{
closed = 1;
nodes = (
"288 306 LINE SMOOTH",
"364 252 OFFCURVE",
"316 156 OFFCURVE",
"206 150 CURVE",
"271 318 LINE"
);
}
);
width = 455;
}
);
note = dollar;
unicode = 0024;
},
{
glyphname = percent;
layers = (
{
hints = (
{
horizontal = 1;
place = "{0, 21}";
target = up;
type = BottomGhost;
},
{
horizontal = 1;
place = "{369, 55}";
type = Stem;
},
{
horizontal = 1;
place = "{571, 41}";
type = Stem;
},
{
horizontal = 1;
place = "{635, 45}";
type = Stem;
},
{
horizontal = 1;
place = "{702, -20}";
target = down;
type = TopGhost;
},
{
place = "{85, 74}";
type = Stem;
},
{
place = "{293, 41}";
type = Stem;
},
{
place = "{337, 74}";
type = Stem;
},
{
place = "{545, 47}";
type = Stem;
},
{
horizontal = 1;
place = "{-5, 21}";
target = up;
type = BottomGhost;
}
);
layerId = "FDC6D5C2-1E82-4E29-8E0D-3EE46E074C54";
paths = (
{
closed = 1;
nodes = (
"599 705 OFFCURVE",
"516 713 OFFCURVE",
"499 685 CURVE SMOOTH",
"466 628 OFFCURVE",
"371 582 OFFCURVE",
"325 638 CURVE",
"310 663 OFFCURVE",
"286 679 OFFCURVE",
"249 680 CURVE SMOOTH",
"78 683 OFFCURVE",
"22 373 OFFCURVE",
"175 370 CURVE SMOOTH",
"260 368 OFFCURVE",
"317 446 OFFCURVE",
"334 520 CURVE SMOOTH",
"340 544 OFFCURVE",
"340 575 OFFCURVE",
"338 596 CURVE",
"366 568 OFFCURVE",
"410 568 OFFCURVE",
"432 575 CURVE",
"104 0 LINE SMOOTH",
"100 -7 OFFCURVE",
"156 -7 OFFCURVE",
"160 0 CURVE",
"160 0 OFFCURVE",
"371 374 OFFCURVE",
"492 585 CURVE",
"540 621 OFFCURVE",
"563 651 OFFCURVE",
"577 672 CURVE SMOOTH"
);
},
{
closed = 1;
nodes = (
"603 219 OFFCURVE",
"585 304 OFFCURVE",
"501 306 CURVE SMOOTH",
"330 309 OFFCURVE",
"274 -2 OFFCURVE",
"427 -5 CURVE SMOOTH",
"512 -7 OFFCURVE",
"568 71 OFFCURVE",
"586 146 CURVE SMOOTH"
);
},
{
closed = 1;
nodes = (
"264 457 OFFCURVE",
"227 416 OFFCURVE",
"191 424 CURVE SMOOTH",
"158 432 OFFCURVE",
"149 491 OFFCURVE",
"173 556 CURVE SMOOTH",
"192 608 OFFCURVE",
"226 643 OFFCURVE",
"261 635 CURVE SMOOTH",
"294 628 OFFCURVE",
"303 575 OFFCURVE",
"283 513 CURVE SMOOTH"
);
},
{
closed = 1;
nodes = (
"516 82 OFFCURVE",
"479 42 OFFCURVE",
"443 50 CURVE SMOOTH",
"410 57 OFFCURVE",
"401 117 OFFCURVE",
"425 181 CURVE SMOOTH",
"444 233 OFFCURVE",
"478 268 OFFCURVE",
"513 260 CURVE SMOOTH",
"546 253 OFFCURVE",
"555 200 OFFCURVE",
"535 138 CURVE SMOOTH"
);
}
);
width = 670;
}
);
note = percent;
unicode = 0025;
},
{
glyphname = ampersand;
layers = (
{
hints = (
{
horizontal = 1;
place = "{-32, 88}";
type = Stem;
},
{
horizontal = 1;
place = "{246, 13}";
type = Stem;
},
{
horizontal = 1;
place = "{346, 31}";
type = Stem;
},
{
horizontal = 1;
place = "{492, -20}";
target = down;
type = TopGhost;
},
{
horizontal = 1;
place = "{624, 58}";
type = Stem;
},
{
place = "{12, 124}";
type = Stem;
},
{
place = "{212, 74}";
type = Stem;
},
{
place = "{380, 17}";
type = Stem;
},
{
place = "{555, 52}";
type = Stem;
}
);
layerId = "FDC6D5C2-1E82-4E29-8E0D-3EE46E074C54";
paths = (
{
closed = 1;
nodes = (
"735 404 OFFCURVE",
"681 381 OFFCURVE",
"631 366 CURVE SMOOTH",
"480 320 LINE SMOOTH",
"403 296 OFFCURVE",
"354 240 OFFCURVE",
"397 188 CURVE",
"398 209 OFFCURVE",
"413 231 OFFCURVE",
"434 246 CURVE",
"482 249 OFFCURVE",
"500 224 OFFCURVE",
"495 172 CURVE SMOOTH",
"488 98 OFFCURVE",
"413 24 OFFCURVE",
"287 10 CURVE SMOOTH",
"86 -12 OFFCURVE",
"72 224 OFFCURVE",
"241 316 CURVE SMOOTH",
"290 343 OFFCURVE",
"341 355 OFFCURVE",
"383 340 CURVE SMOOTH",
"401 334 OFFCURVE",
"439 374 OFFCURVE",
"403 377 CURVE SMOOTH",
"392 378 OFFCURVE",
"378 377 OFFCURVE",
"371 377 CURVE SMOOTH",
"330 379 OFFCURVE",
"273 410 OFFCURVE",
"290 494 CURVE SMOOTH",
"303 557 OFFCURVE",
"387 625 OFFCURVE",
"471 624 CURVE SMOOTH",
"516 624 OFFCURVE",
"552 608 OFFCURVE",
"555 573 CURVE SMOOTH",
"558 545 OFFCURVE",
"544 512 OFFCURVE",
"510 493 CURVE",
"533 478 OFFCURVE",
"586 498 OFFCURVE",
"603 536 CURVE SMOOTH",
"637 612 OFFCURVE",
"569 675 OFFCURVE",
"479 675 CURVE SMOOTH",
"366 675 OFFCURVE",
"256 624 OFFCURVE",
"219 519 CURVE SMOOTH",
"198 459 OFFCURVE",
"228 399 OFFCURVE",
"289 368 CURVE",
"266 367 OFFCURVE",
"241 363 OFFCURVE",
"217 356 CURVE SMOOTH",
"108 325 OFFCURVE",
"17 236 OFFCURVE",
"13 122 CURVE SMOOTH",
"9 1 OFFCURVE",
"148 -32 OFFCURVE",
"242 -32 CURVE SMOOTH",
"360 -32 OFFCURVE",
"535 36 OFFCURVE",
"563 166 CURVE SMOOTH",
"574 215 OFFCURVE",
"554 257 OFFCURVE",
"503 265 CURVE SMOOTH",
"489 267 OFFCURVE",
"473 265 OFFCURVE",
"456 259 CURVE SMOOTH",
"458 260 LINE SMOOTH",
"506 284 OFFCURVE",
"603 301 OFFCURVE",
"659 312 CURVE SMOOTH",
"695 319 OFFCURVE",
"724 330 OFFCURVE",
"738 361 CURVE SMOOTH",
"748 382 OFFCURVE",
"750 415 OFFCURVE",
"745 427 CURVE"
);
}
);
width = 789;
}
);
note = ampersand;
unicode = 0026;
},
{
glyphname = quotesingle;
layers = (
{
hints = (
{
horizontal = 1;
place = "{701, -20}";
target = down;
type = TopGhost;
},
{
place = "{94, 168}";
type = Stem;
}
);
layerId = "FDC6D5C2-1E82-4E29-8E0D-3EE46E074C54";
paths = (
{
closed = 1;
nodes = (
"264 668 OFFCURVE",
"174 672 OFFCURVE",
"171 652 CURVE SMOOTH",
"164 607 OFFCURVE",
"142 528 OFFCURVE",
"94 456 CURVE",
"108 449 OFFCURVE",
"119 453 OFFCURVE",
"128 460 CURVE SMOOTH",
"167 490 OFFCURVE",
"227 582 OFFCURVE",
"256 650 CURVE SMOOTH"
);
}
);
width = 143;
}
);
note = quotesingle;
unicode = 0027;
},
{
glyphname = parenleft;
layers = (
{
hints = (
{
horizontal = 1;
place = "{-52, 45}";
type = Stem;
},
{
horizontal = 1;
place = "{706, -20}";
target = down;
type = TopGhost;
},
{
place = "{49, 92}";
type = Stem;
}
);
layerId = "FDC6D5C2-1E82-4E29-8E0D-3EE46E074C54";
paths = (
{
closed = 1;
nodes = (
"612 706 LINE",
"381 668 OFFCURVE",
"128 442 OFFCURVE",
"66 211 CURVE SMOOTH",
"40 112 OFFCURVE",
"31 -35 OFFCURVE",
"154 -52 CURVE SMOOTH",
"180 -56 OFFCURVE",
"237 -47 OFFCURVE",
"262 -37 CURVE",
"269 -7 LINE",
"257 -8 OFFCURVE",
"234 -11 OFFCURVE",
"211 -7 CURVE SMOOTH",
"122 11 OFFCURVE",
"137 150 OFFCURVE",
"156 219 CURVE SMOOTH",
"215 432 OFFCURVE",
"391 626 OFFCURVE",
"604 679 CURVE"
);
}
);
width = 620;
}
);
note = parenleft;
unicode = 0028;
},
{
glyphname = parenright;
layers = (
{
hints = (
{
horizontal = 1;
place = "{661, 45}";
type = Stem;
},
{
place = "{471, 92}";
type = Stem;
}
);
layerId = "FDC6D5C2-1E82-4E29-8E0D-3EE46E074C54";
paths = (
{
closed = 1;
nodes = (
"574 543 OFFCURVE",
"582 688 OFFCURVE",
"459 706 CURVE SMOOTH",
"433 710 OFFCURVE",
"376 701 OFFCURVE",
"351 691 CURVE",
"344 661 LINE",
"356 662 OFFCURVE",
"379 666 OFFCURVE",
"402 661 CURVE SMOOTH",
"491 644 OFFCURVE",
"476 505 OFFCURVE",
"457 436 CURVE SMOOTH",
"398 223 OFFCURVE",
"222 29 OFFCURVE",
"9 -25 CURVE",
"1 -52 LINE",
"232 -13 OFFCURVE",
"486 212 OFFCURVE",
"547 443 CURVE SMOOTH"
);
}
);
width = 574;
}
);
note = parenright;
unicode = 0029;
},
{
glyphname = asterisk;
layers = (
{
hints = (
{
horizontal = 1;
place = "{511, -20}";
target = down;
type = TopGhost;
},
{
place = "{8, 614}";
type = Stem;
}
);
layerId = "FDC6D5C2-1E82-4E29-8E0D-3EE46E074C54";
paths = (
{
closed = 1;
nodes = (
"598 586 LINE",
"345 441 LINE",
"341 443 LINE",
"443 686 LINE",
"353 686 LINE",
"309 443 LINE",
"303 441 LINE",
"137 585 LINE",
"68 511 LINE",
"278 413 LINE",
"277 409 LINE",
"8 313 LINE",
"32 239 LINE",
"285 382 LINE",
"289 379 LINE",
"187 139 LINE",
"278 139 LINE",
"321 379 LINE",
"328 382 LINE",
"493 239 LINE",
"562 314 LINE",
"352 410 LINE",
"353 413 LINE",
"622 512 LINE"
);
}
);
width = 652;
}
);
note = asterisk;
unicode = 002A;
},
{
glyphname = plus;
layers = (
{
hints = (
{
horizontal = 1;
place = "{317, 50}";
type = Stem;
},
{
place = "{45, 656}";
type = Stem;
}
);
layerId = "FDC6D5C2-1E82-4E29-8E0D-3EE46E074C54";
paths = (
{
closed = 1;
nodes = (
"656 371 OFFCURVE",
"515 369 OFFCURVE",
"412 368 CURVE",
"452 459 OFFCURVE",
"503 570 OFFCURVE",
"522 612 CURVE SMOOTH",
"527 622 OFFCURVE",
"429 594 OFFCURVE",
"423 574 CURVE SMOOTH",
"411 536 OFFCURVE",
"375 440 OFFCURVE",
"346 368 CURVE",
"275 368 OFFCURVE",
"150 369 OFFCURVE",
"109 376 CURVE SMOOTH",
"90 379 OFFCURVE",
"36 310 OFFCURVE",
"47 311 CURVE SMOOTH",
"125 317 OFFCURVE",
"241 318 OFFCURVE",
"326 318 CURVE",
"291 234 OFFCURVE",
"239 114 OFFCURVE",
"197 36 CURVE SMOOTH",
"191 26 OFFCURVE",
"293 54 OFFCURVE",
"297 74 CURVE SMOOTH",
"307 117 OFFCURVE",
"354 245 OFFCURVE",
"387 311 CURVE SMOOTH",
"390 317 LINE",
"473 316 OFFCURVE",
"599 311 OFFCURVE",
"637 308 CURVE SMOOTH",
"657 306 OFFCURVE",
"711 373 OFFCURVE",
"700 373 CURVE SMOOTH"
);
}
);
width = 722;
}
);
note = plus;
unicode = 002B;
},
{
glyphname = comma;
layers = (
{
hints = (
{
horizontal = 1;
place = "{-132, 229}";
type = Stem;
},
{
place = "{69, 183}";
type = Stem;
}
);
layerId = "FDC6D5C2-1E82-4E29-8E0D-3EE46E074C54";
paths = (
{
closed = 1;
nodes = (
"254 82 OFFCURVE",
"164 86 OFFCURVE",
"161 66 CURVE SMOOTH",
"154 21 OFFCURVE",
"132 -58 OFFCURVE",
"84 -130 CURVE",
"98 -137 OFFCURVE",
"109 -133 OFFCURVE",
"118 -126 CURVE SMOOTH",
"157 -96 OFFCURVE",
"217 -4 OFFCURVE",
"246 64 CURVE SMOOTH"
);
}
);
width = 271;
}
);
note = comma;
unicode = 002C;
},
{
glyphname = hyphen;
layers = (
{
hints = (
{
horizontal = 1;
place = "{277, 65}";
type = Stem;
},
{
place = "{93, 366}";
type = Stem;
}
);
layerId = "FDC6D5C2-1E82-4E29-8E0D-3EE46E074C54";
paths = (
{
closed = 1;
nodes = (
"200 288 LINE SMOOTH",
"186 288 OFFCURVE",
"146 223 OFFCURVE",
"154 223 CURVE SMOOTH",
"433 223 LINE SMOOTH",
"448 223 OFFCURVE",
"487 288 OFFCURVE",
"479 288 CURVE SMOOTH"
);
}
);
width = 490;
}
);
note = hyphen;
unicode = 002D;
},
{
glyphname = period;
layers = (
{
hints = (
{
horizontal = 1;
place = "{-11, 114}";
type = Stem;
},
{
place = "{113, 108}";
type = Stem;
}
);
layerId = "FDC6D5C2-1E82-4E29-8E0D-3EE46E074C54";
paths = (
{
closed = 1;
nodes = (
"229 71 OFFCURVE",
"215 82 OFFCURVE",
"194 84 CURVE SMOOTH",
"165 88 OFFCURVE",
"140 76 OFFCURVE",
"125 60 CURVE SMOOTH",
"109 44 OFFCURVE",
"107 24 OFFCURVE",
"124 11 CURVE SMOOTH",
"137 1 OFFCURVE",
"156 -6 OFFCURVE",
"161 -8 CURVE",
"169 7 OFFCURVE",
"206 46 OFFCURVE",
"222 49 CURVE"
);
}
);
width = 271;
}
);
note = period;
unicode = 002E;
},
{
glyphname = slash;
layers = (
{
hints = (
{
horizontal = 1;
place = "{702, -20}";
target = down;
type = TopGhost;
},
{
place = "{70, 607}";
type = Stem;
}
);
layerId = "FDC6D5C2-1E82-4E29-8E0D-3EE46E074C54";
paths = (
{
closed = 1;
nodes = (
"678 694 LINE SMOOTH",
"683 701 OFFCURVE",
"631 706 OFFCURVE",
"626 699 CURVE SMOOTH",
"70 -53 LINE SMOOTH",
"65 -60 OFFCURVE",
"117 -65 OFFCURVE",
"122 -58 CURVE SMOOTH"
);
}
);
width = 455;
}
);
note = slash;
unicode = 002F;
},
{
glyphname = zero;
layers = (
{
hints = (
{
horizontal = 1;
place = "{-14, 103}";
type = Stem;
},
{
horizontal = 1;
place = "{740, 77}";
type = Stem;
},
{
place = "{23, 165}";
type = Stem;
},
{
place = "{647, 85}";
type = Stem;
}
);
layerId = "FDC6D5C2-1E82-4E29-8E0D-3EE46E074C54";
paths = (
{
closed = 1;
nodes = (
"646 514 OFFCURVE",
"607 695 OFFCURVE",
"426 695 CURVE SMOOTH",
"230 695 OFFCURVE",
"92 518 OFFCURVE",
"43 343 CURVE SMOOTH",
"-3 169 OFFCURVE",
"37 -12 OFFCURVE",
"211 -12 CURVE SMOOTH",
"403 -12 OFFCURVE",
"545 166 OFFCURVE",
"596 340 CURVE SMOOTH"
);
},
{
closed = 1;
nodes = (
"442 139 OFFCURVE",
"340 11 OFFCURVE",
"225 40 CURVE SMOOTH",
"115 66 OFFCURVE",
"107 256 OFFCURVE",
"168 422 CURVE SMOOTH",
"218 563 OFFCURVE",
"314 674 OFFCURVE",
"422 648 CURVE SMOOTH",
"532 622 OFFCURVE",
"543 451 OFFCURVE",
"490 289 CURVE SMOOTH"
);
}
);
width = 636;
}
);
note = zero;
unicode = 0030;
},
{
glyphname = one;
layers = (
{
hints = (
{
horizontal = 1;
place = "{5, 21}";
target = up;
type = BottomGhost;
},
{
place = "{19, 136}";
type = Stem;
}
);
layerId = "FDC6D5C2-1E82-4E29-8E0D-3EE46E074C54";
paths = (
{
closed = 1;
nodes = (
"264 708 LINE",
"89 500 LINE",
"124 500 LINE",
"266 632 LINE",
"266 632 OFFCURVE",
"59 82 OFFCURVE",
"24 0 CURVE",
"145 0 LINE",
"164 101 OFFCURVE",
"320 546 OFFCURVE",
"390 708 CURVE"
);
}
);
width = 349;
}
);
note = one;
unicode = 0031;
},
{
glyphname = two;
layers = (
{
hints = (
{
horizontal = 1;
place = "{-18, 112}";
type = Stem;
},
{
horizontal = 1;
place = "{-9, 21}";
target = up;
type = BottomGhost;
},
{
horizontal = 1;
place = "{110, 59}";
type = Stem;
},
{
horizontal = 1;
place = "{757, 60}";
type = Stem;
},
{
place = "{8, 83}";
type = Stem;
},
{
place = "{128, 110}";
type = Stem;
},
{
place = "{491, 165}";
type = Stem;
}
);
layerId = "FDC6D5C2-1E82-4E29-8E0D-3EE46E074C54";
paths = (
{
closed = 1;
nodes = (
"612 626 OFFCURVE",
"574 674 OFFCURVE",
"524 696 CURVE SMOOTH",
"468 720 OFFCURVE",
"388 721 OFFCURVE",
"324 706 CURVE SMOOTH",
"254 688 OFFCURVE",
"169 642 OFFCURVE",
"154 568 CURVE SMOOTH",
"137 488 OFFCURVE",
"184 460 OFFCURVE",
"239 496 CURVE",
"215 576 OFFCURVE",
"304 680 OFFCURVE",
"388 683 CURVE SMOOTH",
"502 685 OFFCURVE",
"518 574 OFFCURVE",
"454 491 CURVE SMOOTH",
"341 347 OFFCURVE",
"127 247 OFFCURVE",
"56 122 CURVE SMOOTH",
"40 94 OFFCURVE",
"29 61 OFFCURVE",
"30 26 CURVE SMOOTH",
"32 -32 OFFCURVE",
"94 -16 OFFCURVE",
"100 26 CURVE SMOOTH",
"103 47 OFFCURVE",
"101 64 OFFCURVE",
"118 82 CURVE SMOOTH",
"151 118 OFFCURVE",
"245 42 OFFCURVE",
"272 20 CURVE SMOOTH",
"310 -7 OFFCURVE",
"364 -20 OFFCURVE",
"410 -16 CURVE SMOOTH",
"505 -7 OFFCURVE",
"554 67 OFFCURVE",
"557 150 CURVE",
"530 150 LINE",
"529 82 OFFCURVE",
"463 73 OFFCURVE",
"404 78 CURVE SMOOTH",
"359 80 OFFCURVE",
"269 97 OFFCURVE",
"226 112 CURVE SMOOTH",
"206 118 OFFCURVE",
"144 138 OFFCURVE",
"113 134 CURVE",
"146 197 OFFCURVE",
"305 274 OFFCURVE",
"386 316 CURVE SMOOTH",
"476 361 OFFCURVE",
"583 440 OFFCURVE",
"600 547 CURVE SMOOTH"
);
}
);
width = 568;
}
);
note = two;
unicode = 0032;
},
{
glyphname = three;
layers = (
{
hints = (
{
horizontal = 1;
place = "{-34, 53}";
type = Stem;
},
{
horizontal = 1;
place = "{263, 20}";
type = Stem;
},
{
horizontal = 1;
place = "{395, 60}";
type = Stem;
},
{
horizontal = 1;
place = "{768, 52}";
type = Stem;
},
{
place = "{24, 130}";
type = Stem;
},
{
place = "{214, 56}";
type = Stem;
},
{
place = "{486, 161}";
type = Stem;
},
{
place = "{538, 153}";
type = Stem;
}
);
layerId = "FDC6D5C2-1E82-4E29-8E0D-3EE46E074C54";
paths = (
{
closed = 1;
nodes = (
"508 413 OFFCURVE",
"583 488 OFFCURVE",
"592 559 CURVE SMOOTH",
"600 631 OFFCURVE",
"563 676 OFFCURVE",
"516 696 CURVE SMOOTH",
"460 720 OFFCURVE",
"366 724 OFFCURVE",
"306 708 CURVE SMOOTH",
"236 690 OFFCURVE",
"161 647 OFFCURVE",
"152 581 CURVE SMOOTH",
"142 511 OFFCURVE",
"182 480 OFFCURVE",
"223 498 CURVE",
"196 588 OFFCURVE",
"268 688 OFFCURVE",
"361 690 CURVE SMOOTH",
"503 692 OFFCURVE",
"497 552 OFFCURVE",
"440 475 CURVE SMOOTH",
"410 433 OFFCURVE",
"359 400 OFFCURVE",
"304 386 CURVE",
"270 402 OFFCURVE",
"227 408 OFFCURVE",
"200 400 CURVE SMOOTH",
"154 383 OFFCURVE",
"170 323 OFFCURVE",
"208 338 CURVE",
"353 404 OFFCURVE",
"474 278 OFFCURVE",
"424 139 CURVE SMOOTH",
"398 71 OFFCURVE",
"335 22 OFFCURVE",
"258 19 CURVE SMOOTH",
"180 16 OFFCURVE",
"113 50 OFFCURVE",
"113 132 CURVE SMOOTH",
"113 164 OFFCURVE",
"127 198 OFFCURVE",
"151 233 CURVE",
"125 247 OFFCURVE",
"92 247 OFFCURVE",
"67 228 CURVE SMOOTH",
"13 190 OFFCURVE",
"5 108 OFFCURVE",
"47 54 CURVE SMOOTH",
"85 4 OFFCURVE",
"161 -13 OFFCURVE",
"236 -13 CURVE SMOOTH",
"317 -13 OFFCURVE",
"412 12 OFFCURVE",
"476 66 CURVE SMOOTH",
"584 156 OFFCURVE",
"586 314 OFFCURVE",
"439 366 CURVE SMOOTH",
"425 372 OFFCURVE",
"408 377 OFFCURVE",
"389 380 CURVE"
);
}
);
width = 600;
}
);
note = three;
unicode = 0033;
},
{
glyphname = four;
layers = (
{
hints = (
{
horizontal = 1;
place = "{-16, 27}";
type = Stem;
},
{
horizontal = 1;
place = "{228, 97}";
type = Stem;
},
{
horizontal = 1;
place = "{324, 41}";
type = Stem;
},
{
horizontal = 1;
place = "{426, 22}";
type = Stem;
},
{
place = "{8, 75}";
type = Stem;
},
{
place = "{307, 141}";
type = Stem;
}
);
layerId = "FDC6D5C2-1E82-4E29-8E0D-3EE46E074C54";
paths = (
{
closed = 1;
nodes = (
"653 238 OFFCURVE",
"696 318 OFFCURVE",
"682 367 CURVE SMOOTH",
"673 395 OFFCURVE",
"646 425 OFFCURVE",
"614 402 CURVE",
"622 392 OFFCURVE",
"625 377 OFFCURVE",
"623 366 CURVE SMOOTH",
"614 314 OFFCURVE",
"559 295 OFFCURVE",
"486 290 CURVE",
"539 450 OFFCURVE",
"600 613 OFFCURVE",
"640 708 CURVE",
"516 708 LINE",
"47 306 LINE",
"20 292 OFFCURVE",
"2 268 OFFCURVE",
"4 234 CURVE SMOOTH",
"5 209 OFFCURVE",
"18 198 OFFCURVE",
"31 197 CURVE SMOOTH",
"44 197 OFFCURVE",
"58 205 OFFCURVE",
"58 222 CURVE SMOOTH",
"58 241 OFFCURVE",
"60 260 OFFCURVE",
"83 275 CURVE SMOOTH",
"108 290 OFFCURVE",
"146 289 OFFCURVE",
"187 281 CURVE SMOOTH",
"244 268 OFFCURVE",
"302 248 OFFCURVE",
"368 233 CURVE",
"329 127 OFFCURVE",
"295 38 OFFCURVE",
"278 0 CURVE",
"397 0 LINE",
"407 40 OFFCURVE",
"430 120 OFFCURVE",
"462 220 CURVE",
"492 216 OFFCURVE",
"518 217 OFFCURVE",
"545 221 CURVE SMOOTH"
);
},
{
closed = 1;
nodes = (
"527 659 LINE",
"527 659 OFFCURVE",
"451 458 OFFCURVE",
"390 292 CURVE",
"336 294 OFFCURVE",
"290 301 OFFCURVE",
"271 304 CURVE SMOOTH",
"253 306 OFFCURVE",
"226 311 OFFCURVE",
"194 314 CURVE SMOOTH",
"172 318 OFFCURVE",
"163 318 OFFCURVE",
"125 320 CURVE"
);
}
);
width = 687;
}
);
note = four;
unicode = 0034;
},
{
glyphname = five;
layers = (
{
hints = (
{
horizontal = 1;
place = "{-26, 43}";
type = Stem;
},
{
horizontal = 1;
place = "{290, 22}";
type = Stem;
},
{
horizontal = 1;
place = "{468, 62}";
type = Stem;
},
{
horizontal = 1;
place = "{712, 96}";
type = Stem;
},
{
place = "{14, 125}";
type = Stem;
},
{
place = "{487, 156}";
type = Stem;
},
{
place = "{619, 101}";
type = Stem;
}
);
layerId = "FDC6D5C2-1E82-4E29-8E0D-3EE46E074C54";
paths = (
{
closed = 1;
nodes = (
"572 602 LINE SMOOTH",
"587 636 OFFCURVE",
"599 674 OFFCURVE",
"592 697 CURVE SMOOTH",
"587 710 OFFCURVE",
"572 713 OFFCURVE",
"546 713 CURVE SMOOTH",
"521 712 OFFCURVE",
"485 708 OFFCURVE",
"440 708 CURVE SMOOTH",
"250 708 LINE",
"221 646 OFFCURVE",
"164 524 OFFCURVE",
"128 437 CURVE SMOOTH",
"110 394 OFFCURVE",
"137 401 OFFCURVE",
"170 412 CURVE SMOOTH",
"232 432 OFFCURVE",
"299 426 OFFCURVE",
"346 397 CURVE SMOOTH",
"414 355 OFFCURVE",
"456 269 OFFCURVE",
"416 157 CURVE SMOOTH",
"388 79 OFFCURVE",
"329 25 OFFCURVE",
"256 22 CURVE SMOOTH",
"180 18 OFFCURVE",
"112 53 OFFCURVE",
"112 142 CURVE SMOOTH",
"112 178 OFFCURVE",
"125 227 OFFCURVE",
"157 262 CURVE",
"130 281 OFFCURVE",
"92 282 OFFCURVE",
"62 259 CURVE SMOOTH",
"7 216 OFFCURVE",
"-1 125 OFFCURVE",
"42 65 CURVE SMOOTH",
"78 12 OFFCURVE",
"149 -8 OFFCURVE",
"221 -8 CURVE SMOOTH",
"368 -8 OFFCURVE",
"536 65 OFFCURVE",
"552 247 CURVE SMOOTH",
"564 383 OFFCURVE",
"434 492 OFFCURVE",
"235 460 CURVE SMOOTH",
"222 457 OFFCURVE",
"211 454 OFFCURVE",
"186 446 CURVE",
"211 506 OFFCURVE",
"275 643 OFFCURVE",
"275 643 CURVE",
"310 643 OFFCURVE",
"349 644 OFFCURVE",
"395 643 CURVE SMOOTH",
"476 642 OFFCURVE",
"532 636 OFFCURVE",
"535 576 CURVE SMOOTH",
"535 570 OFFCURVE",
"533 558 OFFCURVE",
"529 547 CURVE SMOOTH",
"524 530 LINE",
"544 529 LINE"
);
}
);
width = 583;
}
);
note = five;
unicode = 0035;
},
{
glyphname = six;
layers = (
{
hints = (
{
horizontal = 1;
place = "{-14, 73}";
type = Stem;
},
{
horizontal = 1;
place = "{428, 80}";
type = Stem;
},
{
horizontal = 1;
place = "{770, 54}";
type = Stem;
},
{
place = "{22, 139}";
type = Stem;
},
{
place = "{509, 141}";
type = Stem;
},
{
place = "{600, 95}";
type = Stem;
}
);
layerId = "FDC6D5C2-1E82-4E29-8E0D-3EE46E074C54";
paths = (
{
closed = 1;
nodes = (
"581 541 OFFCURVE",
"589 563 OFFCURVE",
"589 588 CURVE SMOOTH",
"589 598 OFFCURVE",
"588 610 OFFCURVE",
"584 618 CURVE",
"575 659 OFFCURVE",
"546 685 OFFCURVE",
"510 700 CURVE SMOOTH",
"458 720 OFFCURVE",
"390 716 OFFCURVE",
"336 697 CURVE SMOOTH",
"154 634 OFFCURVE",
"36 392 OFFCURVE",
"31 204 CURVE SMOOTH",
"29 78 OFFCURVE",
"76 -12 OFFCURVE",
"250 -6 CURVE SMOOTH",
"398 -2 OFFCURVE",
"533 91 OFFCURVE",
"546 263 CURVE SMOOTH",
"554 380 OFFCURVE",
"480 461 OFFCURVE",
"349 456 CURVE SMOOTH",
"288 454 OFFCURVE",
"221 436 OFFCURVE",
"167 392 CURVE",
"208 508 OFFCURVE",
"268 596 OFFCURVE",
"340 642 CURVE SMOOTH",
"366 659 OFFCURVE",
"400 674 OFFCURVE",
"433 674 CURVE SMOOTH",
"478 674 OFFCURVE",
"515 654 OFFCURVE",
"514 606 CURVE SMOOTH",
"514 588 OFFCURVE",
"506 565 OFFCURVE",
"488 553 CURVE",
"506 512 OFFCURVE",
"540 515 OFFCURVE",
"566 532 CURVE SMOOTH"
);
},
{
closed = 1;
nodes = (
"403 416 OFFCURVE",
"449 330 OFFCURVE",
"439 236 CURVE SMOOTH",
"430 138 OFFCURVE",
"355 32 OFFCURVE",
"254 28 CURVE SMOOTH",
"162 23 OFFCURVE",
"124 106 OFFCURVE",
"133 202 CURVE SMOOTH",
"144 312 OFFCURVE",
"191 407 OFFCURVE",
"310 413 CURVE SMOOTH"
);
}
);
width = 583;
}
);
note = six;
unicode = 0036;
},
{
glyphname = seven;
layers = (
{
hints = (
{
horizontal = 1;
place = "{-29, 99}";
type = Stem;
},
{
horizontal = 1;
place = "{709, 101}";
type = Stem;
},
{
place = "{59, 161}";
type = Stem;
}
);
layerId = "FDC6D5C2-1E82-4E29-8E0D-3EE46E074C54";
paths = (
{
closed = 1;
nodes = (
"541 660 OFFCURVE",
"544 673 OFFCURVE",
"544 682 CURVE SMOOTH",
"544 690 OFFCURVE",
"542 708 OFFCURVE",
"529 708 CURVE SMOOTH",
"276 708 LINE SMOOTH",
"234 708 OFFCURVE",
"199 713 OFFCURVE",
"173 713 CURVE SMOOTH",
"144 714 OFFCURVE",
"125 710 OFFCURVE",
"110 697 CURVE SMOOTH",
"98 685 OFFCURVE",
"89 652 OFFCURVE",
"79 613 CURVE SMOOTH",
"71 576 OFFCURVE",
"62 534 OFFCURVE",
"52 504 CURVE SMOOTH",
"50 499 OFFCURVE",
"53 496 OFFCURVE",
"61 494 CURVE",
"72 494 OFFCURVE",
"80 498 OFFCURVE",
"83 502 CURVE SMOOTH",
"85 506 OFFCURVE",
"88 512 OFFCURVE",
"91 520 CURVE SMOOTH",
"94 527 OFFCURVE",
"96 534 OFFCURVE",
"98 541 CURVE SMOOTH",
"102 550 OFFCURVE",
"104 558 OFFCURVE",
"107 564 CURVE SMOOTH",
"115 584 OFFCURVE",
"126 605 OFFCURVE",
"146 617 CURVE SMOOTH",
"163 628 OFFCURVE",
"187 634 OFFCURVE",
"233 634 CURVE SMOOTH",
"445 634 LINE",
"452 613 OFFCURVE",
"443 595 OFFCURVE",
"419 564 CURVE SMOOTH",
"400 538 OFFCURVE",
"370 506 OFFCURVE",
"337 473 CURVE SMOOTH",
"305 440 OFFCURVE",
"269 406 OFFCURVE",
"239 376 CURVE SMOOTH",
"146 284 OFFCURVE",
"56 181 OFFCURVE",
"52 85 CURVE SMOOTH",
"46 -5 OFFCURVE",
"142 -35 OFFCURVE",
"206 10 CURVE SMOOTH",
"222 20 OFFCURVE",
"236 38 OFFCURVE",
"242 66 CURVE",
"226 61 OFFCURVE",
"212 62 OFFCURVE",
"204 67 CURVE SMOOTH",
"154 95 OFFCURVE",
"197 182 OFFCURVE",
"217 221 CURVE SMOOTH",
"251 283 OFFCURVE",
"306 358 OFFCURVE",
"364 433 CURVE SMOOTH",
"420 508 OFFCURVE",
"479 581 OFFCURVE",
"523 637 CURVE SMOOTH"
);
}
);
width = 539;
}
);
note = seven;
unicode = 0037;
},
{
glyphname = eight;
layers = (
{
hints = (
{
horizontal = 1;
place = "{-13, 66}";
type = Stem;
},
{
horizontal = 1;
place = "{782, 57}";
type = Stem;
},
{
place = "{5, 128}";
type = Stem;
},
{
place = "{510, 120}";
type = Stem;
}
);
layerId = "FDC6D5C2-1E82-4E29-8E0D-3EE46E074C54";
paths = (
{
closed = 1;
nodes = (
"529 427 OFFCURVE",
"584 478 OFFCURVE",
"598 547 CURVE SMOOTH",
"617 648 OFFCURVE",
"539 720 OFFCURVE",
"406 720 CURVE SMOOTH",
"257 720 OFFCURVE",
"165 646 OFFCURVE",
"151 548 CURVE SMOOTH",
"141 478 OFFCURVE",
"166 434 OFFCURVE",
"222 396 CURVE",
"108 359 OFFCURVE",
"24 283 OFFCURVE",
"7 194 CURVE SMOOTH",
"-17 74 OFFCURVE",
"91 -16 OFFCURVE",
"235 -11 CURVE SMOOTH",
"378 -6 OFFCURVE",
"515 86 OFFCURVE",
"536 203 CURVE SMOOTH",
"551 278 OFFCURVE",
"520 349 OFFCURVE",
"440 394 CURVE"
);
},
{
closed = 1;
nodes = (
"464 684 OFFCURVE",
"533 634 OFFCURVE",
"532 572 CURVE SMOOTH",
"529 503 OFFCURVE",
"462 456 OFFCURVE",
"386 427 CURVE",
"335 439 OFFCURVE",
"281 474 OFFCURVE",
"255 511 CURVE SMOOTH",
"194 598 OFFCURVE",
"291 684 OFFCURVE",
"397 684 CURVE SMOOTH"
);
},
{
closed = 1;
nodes = (
"372 320 OFFCURVE",
"456 289 OFFCURVE",
"448 196 CURVE SMOOTH",
"437 85 OFFCURVE",
"337 35 OFFCURVE",
"248 35 CURVE SMOOTH",
"125 35 OFFCURVE",
"68 132 OFFCURVE",
"126 230 CURVE SMOOTH",
"156 281 OFFCURVE",
"218 317 OFFCURVE",
"284 343 CURVE"
);
}
);
width = 587;
}
);
note = eight;
unicode = 0038;
},
{
glyphname = nine;
layers = (
{
hints = (
{
horizontal = 1;
place = "{-12, 66}";
type = Stem;
},
{
horizontal = 1;
place = "{232, 43}";
type = Stem;
},
{
horizontal = 1;
place = "{320, 87}";
type = Stem;
},
{
horizontal = 1;
place = "{774, 59}";
type = Stem;
},
{
place = "{6, 110}";
type = Stem;
},
{
place = "{79, 143}";
type = Stem;
},
{
place = "{584, 140}";
type = Stem;
}
);
layerId = "FDC6D5C2-1E82-4E29-8E0D-3EE46E074C54";
paths = (
{
closed = 1;
nodes = (
"542 220 OFFCURVE",
"596 374 OFFCURVE",
"596 497 CURVE SMOOTH",
"596 623 OFFCURVE",
"539 714 OFFCURVE",
"360 714 CURVE SMOOTH",
"209 714 OFFCURVE",
"80 625 OFFCURVE",
"80 455 CURVE SMOOTH",
"80 338 OFFCURVE",
"164 253 OFFCURVE",
"296 253 CURVE SMOOTH",
"349 253 OFFCURVE",
"414 271 OFFCURVE",
"468 310 CURVE",
"443 244 OFFCURVE",
"418 192 OFFCURVE",
"390 148 CURVE SMOOTH",
"367 110 OFFCURVE",
"325 67 OFFCURVE",
"278 41 CURVE SMOOTH",
"208 0 OFFCURVE",
"104 11 OFFCURVE",
"112 113 CURVE SMOOTH",
"113 136 OFFCURVE",
"116 163 OFFCURVE",
"131 185 CURVE",
"104 199 OFFCURVE",
"71 197 OFFCURVE",
"50 178 CURVE SMOOTH",
"22 151 OFFCURVE",
"14 110 OFFCURVE",
"26 73 CURVE SMOOTH",
"48 1 OFFCURVE",
"110 -13 OFFCURVE",
"180 -13 CURVE SMOOTH",
"299 -13 OFFCURVE",
"397 38 OFFCURVE",
"467 126 CURVE SMOOTH"
);
},
{
closed = 1;
nodes = (
"451 679 OFFCURVE",
"496 598 OFFCURVE",
"493 502 CURVE SMOOTH",
"491 391 OFFCURVE",
"448 296 OFFCURVE",
"328 295 CURVE SMOOTH",
"234 294 OFFCURVE",
"180 380 OFFCURVE",
"184 474 CURVE SMOOTH",
"187 572 OFFCURVE",
"257 677 OFFCURVE",
"359 678 CURVE SMOOTH"
);
}
);
width = 614;
}
);
note = nine;
unicode = 0039;
},
{
glyphname = colon;
layers = (
{
hints = (
{
horizontal = 1;
place = "{-11, 114}";
type = Stem;
},
{
horizontal = 1;
place = "{302, 114}";
type = Stem;
},
{
place = "{70, 108}";
type = Stem;
},
{
place = "{160, 108}";
type = Stem;
}
);
layerId = "FDC6D5C2-1E82-4E29-8E0D-3EE46E074C54";
paths = (
{
closed = 1;
nodes = (
"229 71 OFFCURVE",
"215 82 OFFCURVE",
"194 84 CURVE SMOOTH",
"165 88 OFFCURVE",
"140 76 OFFCURVE",
"125 60 CURVE SMOOTH",
"109 44 OFFCURVE",
"107 24 OFFCURVE",
"124 11 CURVE SMOOTH",
"137 1 OFFCURVE",
"156 -6 OFFCURVE",
"161 -8 CURVE",
"169 7 OFFCURVE",
"206 46 OFFCURVE",
"222 49 CURVE"
);
},
{
closed = 1;
nodes = (
"333 376 OFFCURVE",
"319 387 OFFCURVE",
"298 389 CURVE SMOOTH",
"269 393 OFFCURVE",
"244 381 OFFCURVE",
"229 365 CURVE SMOOTH",
"213 349 OFFCURVE",
"211 329 OFFCURVE",
"228 316 CURVE SMOOTH",
"241 306 OFFCURVE",
"260 299 OFFCURVE",
"265 297 CURVE",
"273 312 OFFCURVE",
"310 351 OFFCURVE",
"326 354 CURVE"
);
}
);
width = 284;
}
);
note = colon;
unicode = 003A;
},
{
glyphname = semicolon;
layers = (
{
hints = (
{
horizontal = 1;
place = "{-132, 229}";
type = Stem;
},
{
horizontal = 1;
place = "{302, 114}";
type = Stem;
},
{
place = "{160, 108}";
type = Stem;
}
);
layerId = "FDC6D5C2-1E82-4E29-8E0D-3EE46E074C54";
paths = (
{
closed = 1;
nodes = (
"360 359 OFFCURVE",
"346 370 OFFCURVE",
"325 372 CURVE SMOOTH",
"296 376 OFFCURVE",
"271 364 OFFCURVE",
"256 348 CURVE SMOOTH",
"240 332 OFFCURVE",
"238 312 OFFCURVE",
"255 299 CURVE SMOOTH",
"268 289 OFFCURVE",
"287 282 OFFCURVE",
"292 280 CURVE",
"300 295 OFFCURVE",
"337 334 OFFCURVE",
"353 337 CURVE"
);
},
{
closed = 1;
nodes = (
"254 82 OFFCURVE",
"164 86 OFFCURVE",
"161 66 CURVE SMOOTH",
"154 21 OFFCURVE",
"132 -58 OFFCURVE",
"84 -130 CURVE",
"98 -137 OFFCURVE",
"109 -133 OFFCURVE",
"118 -126 CURVE SMOOTH",
"157 -96 OFFCURVE",
"217 -4 OFFCURVE",
"246 64 CURVE SMOOTH"
);
}
);
width = 342;
}
);
note = semicolon;
unicode = 003B;
},
{
glyphname = less;
layers = (
{
hints = (
{
horizontal = 1;
place = "{25, 551}";
type = Stem;
},
{
place = "{-65, 387}";
type = Stem;
}
);
layerId = "FDC6D5C2-1E82-4E29-8E0D-3EE46E074C54";
paths = (
{
closed = 1;
nodes = (
"329 480 OFFCURVE",
"194 391 OFFCURVE",
"56 313 CURVE SMOOTH",
"13 289 OFFCURVE",
"20 279 OFFCURVE",
"51 257 CURVE SMOOTH",
"148 187 OFFCURVE",
"217 118 OFFCURVE",
"302 22 CURVE SMOOTH",
"310 13 OFFCURVE",
"374 60 OFFCURVE",
"362 80 CURVE SMOOTH",
"321 151 OFFCURVE",
"197 249 OFFCURVE",
"124 301 CURVE",
"197 345 OFFCURVE",
"406 487 OFFCURVE",
"447 536 CURVE SMOOTH",
"458 550 OFFCURVE",
"469 586 OFFCURVE",
"457 577 CURVE SMOOTH"
);
}
);
width = 479;
}
);
note = less;
unicode = 003C;
},
{
glyphname = equal;
layers = (
{
hints = (
{
horizontal = 1;
place = "{180, 58}";
type = Stem;
},
{
horizontal = 1;
place = "{367, 58}";
type = Stem;
},
{
place = "{96, 417}";
type = Stem;
}
);
layerId = "FDC6D5C2-1E82-4E29-8E0D-3EE46E074C54";
paths = (
{
closed = 1;
nodes = (
"194 425 LINE SMOOTH",
"179 425 OFFCURVE",
"143 367 OFFCURVE",
"151 367 CURVE SMOOTH",
"470 367 LINE SMOOTH",
"485 367 OFFCURVE",
"521 425 OFFCURVE",
"513 425 CURVE SMOOTH"
);
},
{
closed = 1;
nodes = (
"140 238 LINE SMOOTH",
"125 238 OFFCURVE",
"89 180 OFFCURVE",
"97 180 CURVE SMOOTH",
"416 180 LINE SMOOTH",
"431 180 OFFCURVE",
"467 238 OFFCURVE",
"459 238 CURVE SMOOTH"
);
}
);
width = 531;
}
);
note = equal;
unicode = 003D;
},
{
glyphname = greater;
layers = (
{
hints = (
{
horizontal = 1;
place = "{65, 304}";
type = Stem;
},
{
place = "{39, 213}";
type = Stem;
}
);
layerId = "FDC6D5C2-1E82-4E29-8E0D-3EE46E074C54";
paths = (
{
closed = 1;
nodes = (
"395 412 OFFCURVE",
"326 481 OFFCURVE",
"241 577 CURVE SMOOTH",
"233 586 OFFCURVE",
"169 539 OFFCURVE",
"181 519 CURVE SMOOTH",
"222 448 OFFCURVE",
"346 349 OFFCURVE",
"419 298 CURVE",
"346 253 OFFCURVE",
"136 112 OFFCURVE",
"96 62 CURVE",
"84 50 OFFCURVE",
"74 13 OFFCURVE",
"86 22 CURVE SMOOTH",
"214 119 OFFCURVE",
"349 207 OFFCURVE",
"487 285 CURVE SMOOTH",
"530 309 OFFCURVE",
"523 320 OFFCURVE",
"492 342 CURVE SMOOTH"
);
}
);
width = 479;
}
);
note = greater;
unicode = 003E;
},
{
glyphname = question;
layers = (
{
hints = (
{
horizontal = 1;
place = "{641, 34}";
type = Stem;
},
{
place = "{105, 77}";
type = Stem;
},
{
place = "{398, 113}";
type = Stem;
},
{
place = "{110, 60}";
type = Stem;
}
);
layerId = "FDC6D5C2-1E82-4E29-8E0D-3EE46E074C54";
paths = (
{
closed = 1;
nodes = (
"561 601 OFFCURVE",
"526 640 OFFCURVE",
"481 657 CURVE SMOOTH",
"430 677 OFFCURVE",
"345 680 OFFCURVE",
"290 667 CURVE SMOOTH",
"227 653 OFFCURVE",
"156 616 OFFCURVE",
"147 558 CURVE SMOOTH",
"138 495 OFFCURVE",
"189 462 OFFCURVE",
"230 486 CURVE",
"203 550 OFFCURVE",
"268 614 OFFCURVE",
"302 629 CURVE SMOOTH",
"373 661 OFFCURVE",
"442 627 OFFCURVE",
"440 547 CURVE SMOOTH",
"438 455 OFFCURVE",
"221 326 OFFCURVE",
"216 322 CURVE SMOOTH",
"181 296 OFFCURVE",
"146 254 OFFCURVE",
"152 209 CURVE SMOOTH",
"157 177 OFFCURVE",
"218 196 OFFCURVE",
"212 225 CURVE SMOOTH",
"208 243 OFFCURVE",
"215 262 OFFCURVE",
"226 279 CURVE SMOOTH",
"259 330 OFFCURVE",
"331 361 OFFCURVE",
"394 387 CURVE SMOOTH",
"471 419 OFFCURVE",
"543 453 OFFCURVE",
"553 539 CURVE SMOOTH"
);
},
{
closed = 1;
nodes = (
"202 71 OFFCURVE",
"188 82 OFFCURVE",
"167 84 CURVE SMOOTH",
"138 88 OFFCURVE",
"113 76 OFFCURVE",
"98 60 CURVE SMOOTH",
"82 44 OFFCURVE",
"80 24 OFFCURVE",
"97 11 CURVE SMOOTH",
"110 1 OFFCURVE",
"129 -6 OFFCURVE",
"134 -8 CURVE",
"142 7 OFFCURVE",
"179 46 OFFCURVE",
"195 49 CURVE"
);
}
);
width = 551;
}
);
note = question;
unicode = 003F;
},
{
glyphname = at;
layers = (
{
hints = (
{
horizontal = 1;
place = "{-17, 34}";
type = Stem;
},
{
horizontal = 1;
place = "{96, 24}";
type = Stem;
},
{
horizontal = 1;
place = "{151, 70}";
type = Stem;
},
{
horizontal = 1;
place = "{507, 38}";
type = Stem;
},
{
place = "{22, 80}";
type = Stem;
},
{
place = "{214, 88}";
type = Stem;
},
{
place = "{438, 79}";
type = Stem;
},
{
place = "{733, 70}";
type = Stem;
}
);
layerId = "FDC6D5C2-1E82-4E29-8E0D-3EE46E074C54";
paths = (
{
closed = 1;
nodes = (
"974 442 OFFCURVE",
"812 715 OFFCURVE",
"471 679 CURVE SMOOTH",
"231 653 OFFCURVE",
"88 439 OFFCURVE",
"88 245 CURVE SMOOTH",
"88 17 OFFCURVE",
"258 -71 OFFCURVE",
"462 -65 CURVE SMOOTH",
"581 -61 OFFCURVE",
"703 -34 OFFCURVE",
"802 46 CURVE SMOOTH",
"850 84 OFFCURVE",
"849 180 OFFCURVE",
"831 150 CURVE SMOOTH",
"777 61 OFFCURVE",
"609 -32 OFFCURVE",
"460 -32 CURVE SMOOTH",
"314 -32 OFFCURVE",
"166 47 OFFCURVE",
"166 262 CURVE SMOOTH",
"166 442 OFFCURVE",
"298 639 OFFCURVE",
"490 660 CURVE SMOOTH",
"787 692 OFFCURVE",
"870 394 OFFCURVE",
"757 196 CURVE SMOOTH",
"696 90 OFFCURVE",
"507 26 OFFCURVE",
"624 322 CURVE SMOOTH",
"652 391 OFFCURVE",
"699 474 OFFCURVE",
"735 502 CURVE",
"679 502 LINE SMOOTH",
"632 502 OFFCURVE",
"620 484 OFFCURVE",
"603 450 CURVE SMOOTH",
"600 444 LINE",
"599 447 OFFCURVE",
"598 451 OFFCURVE",
"598 453 CURVE",
"588 502 OFFCURVE",
"550 516 OFFCURVE",
"516 516 CURVE SMOOTH",
"378 516 OFFCURVE",
"282 350 OFFCURVE",
"282 214 CURVE SMOOTH",
"282 155 OFFCURVE",
"315 123 OFFCURVE",
"352 122 CURVE SMOOTH",
"384 122 OFFCURVE",
"417 141 OFFCURVE",
"451 179 CURVE SMOOTH",
"474 205 OFFCURVE",
"498 238 OFFCURVE",
"519 271 CURVE",
"445 3 OFFCURVE",
"731 63 OFFCURVE",
"812 190 CURVE SMOOTH"
);
},
{
closed = 1;
nodes = (
"574 393 LINE SMOOTH",
"543 332 OFFCURVE",
"454 192 OFFCURVE",
"406 191 CURVE SMOOTH",
"386 191 OFFCURVE",
"372 213 OFFCURVE",
"371 255 CURVE SMOOTH",
"371 338 OFFCURVE",
"420 448 OFFCURVE",
"508 474 CURVE SMOOTH",
"544 485 OFFCURVE",
"591 473 OFFCURVE",
"596 436 CURVE"
);
}
);
width = 917;
}
);
note = at;
unicode = 0040;
},
{
color = 4;
glyphname = A;
lastChange = "2021-04-19 01:10:12 +0000";
layers = (
{
background = {
paths = (
{
closed = 1;
nodes = (
"225 568 QCURVE SMOOTH",
"225 531 OFFCURVE",
"256 499 QCURVE",
"256 602 OFFCURVE",
"363 627 QCURVE SMOOTH",
"387 632 OFFCURVE",
"543 647 OFFCURVE",
"667 673 OFFCURVE",
"692 698 QCURVE",
"468 698 LINE SMOOTH",
"225 698 OFFCURVE"
);
},
{
closed = 1;
nodes = (
"679 677 OFFCURVE",
"659 658 OFFCURVE",
"639 634 QCURVE SMOOTH",
"559 536 OFFCURVE",
"304 282 QCURVE SMOOTH",
"106 86 OFFCURVE",
"12 0 QCURVE",
"112 0 LINE",
"197 101 OFFCURVE",
"346 259 QCURVE",
"575 259 LINE",
"562 178 OFFCURVE",
"562 127 QCURVE SMOOTH",
"565 65 OFFCURVE",
"603 -9 OFFCURVE",
"655 -9 QCURVE SMOOTH",
"690 -9 OFFCURVE",
"762 20 OFFCURVE",
"776 40 QCURVE",
"770 49 LINE",
"750 36 OFFCURVE",
"714 36 OFFCURVE",
"702 49 QCURVE SMOOTH",
"674 78 OFFCURVE",
"674 154 QCURVE SMOOTH",
"674 261 OFFCURVE",
"769 654 OFFCURVE",
"815 698 QCURVE",
"743 698 LINE SMOOTH",
"720 698 OFFCURVE"
);
},
{
closed = 1;
nodes = (
"582 309 QCURVE",
"390 309 LINE",
"526 450 OFFCURVE",
"640 557 QCURVE",
"600 408 OFFCURVE"
);
}
);
};
hints = (
{
horizontal = 1;
place = "{-9, 45}";
type = Stem;
},
{
horizontal = 1;
place = "{269, 39}";
type = Stem;
},
{
horizontal = 1;
place = "{698, -20}";
target = down;
type = TopGhost;
},
{
place = "{225, 31}";
type = Stem;
},
{
place = "{562, 112}";
type = Stem;
},
{
horizontal = 1;
place = "{0, 21}";
target = up;
type = BottomGhost;
}
);
layerId = "FDC6D5C2-1E82-4E29-8E0D-3EE46E074C54";
paths = (
{
closed = 1;
nodes = (
"526 698 LINE SMOOTH",
"450 698 OFFCURVE",
"315 708 OFFCURVE",
"254 638 CURVE SMOOTH",
"224 605 OFFCURVE",
"207 549 OFFCURVE",
"256 499 CURVE",
"255 563 OFFCURVE",
"292 611 OFFCURVE",
"363 627 CURVE SMOOTH",
"443 646 OFFCURVE",
"635 642 OFFCURVE",
"692 698 CURVE"
);
},
{
closed = 1;
nodes = (
"743 698 LINE SMOOTH",
"678 698 OFFCURVE",
"652 645 OFFCURVE",
"612 601 CURVE SMOOTH",
"449 420 OFFCURVE",
"115 94 OFFCURVE",
"12 0 CURVE",
"112 0 LINE",
"185 87 OFFCURVE",
"261 169 OFFCURVE",
"346 259 CURVE",
"575 259 LINE",
"571 234 OFFCURVE",
"561 165 OFFCURVE",
"562 127 CURVE SMOOTH",
"565 57 OFFCURVE",
"580 -15 OFFCURVE",
"667 -8 CURVE SMOOTH",
"710 -5 OFFCURVE",
"759 15 OFFCURVE",
"776 40 CURVE",
"770 49 LINE",
"705 7 OFFCURVE",
"678 77 OFFCURVE",
"675 125 CURVE SMOOTH",
"668 230 OFFCURVE",
"702 374 OFFCURVE",
"728 482 CURVE SMOOTH",
"746 554 OFFCURVE",
"780 665 OFFCURVE",
"815 698 CURVE"
);
},
{
closed = 1;
nodes = (
"622 490 OFFCURVE",
"598 397 OFFCURVE",
"582 309 CURVE",
"390 309 LINE",
"473 395 OFFCURVE",
"558 480 OFFCURVE",
"640 557 CURVE"
);
}
);
width = 813;
}
);
note = A.script;
unicode = 0041;
},
{
color = 4;
glyphname = B;
lastChange = "2021-04-19 01:10:12 +0000";
layers = (
{
hints = (
{
horizontal = 1;
place = "{-15, 51}";
type = Stem;
},
{
horizontal = 1;
place = "{338, 43}";
type = Stem;
},
{
horizontal = 1;
place = "{668, 30}";
type = Stem;
},
{
place = "{229, 30}";
type = Stem;
},
{
place = "{539, 105}";
type = Stem;
},
{
place = "{502, 105}";
type = Stem;
}
);
layerId = "FDC6D5C2-1E82-4E29-8E0D-3EE46E074C54";
paths = (
{
closed = 1;
nodes = (
"651 626 OFFCURVE",
"597 698 OFFCURVE",
"460 698 CURVE SMOOTH",
"297 698 LINE SMOOTH",
"260 698 OFFCURVE",
"110 705 OFFCURVE",
"55 649 CURVE SMOOTH",
"36 630 OFFCURVE",
"14 596 OFFCURVE",
"1 561 CURVE SMOOTH",
"-2 552 OFFCURVE",
"5 544 OFFCURVE",
"9 551 CURVE SMOOTH",
"42 608 OFFCURVE",
"151 641 OFFCURVE",
"241 653 CURVE SMOOTH",
"277 658 LINE",
"272 650 OFFCURVE",
"267 640 OFFCURVE",
"262 630 CURVE SMOOTH",
"226 560 OFFCURVE",
"82 273 OFFCURVE",
"57 139 CURVE SMOOTH",
"49 95 OFFCURVE",
"46 52 OFFCURVE",
"75 27 CURVE SMOOTH",
"174 -57 OFFCURVE",
"437 -8 OFFCURVE",
"531 74 CURVE SMOOTH",
"576 113 OFFCURVE",
"606 162 OFFCURVE",
"607 217 CURVE SMOOTH",
"609 292 OFFCURVE",
"566 349 OFFCURVE",
"451 370 CURVE",
"522 385 OFFCURVE",
"634 436 OFFCURVE",
"644 548 CURVE SMOOTH"
);
},
{
closed = 1;
nodes = (
"544 529 OFFCURVE",
"526 476 OFFCURVE",
"491 440 CURVE SMOOTH",
"471 420 OFFCURVE",
"444 394 OFFCURVE",
"402 381 CURVE",
"365 386 OFFCURVE",
"331 386 OFFCURVE",
"305 382 CURVE SMOOTH",
"286 379 OFFCURVE",
"230 338 OFFCURVE",
"274 338 CURVE SMOOTH",
"308 338 OFFCURVE",
"372 349 OFFCURVE",
"394 355 CURVE",
"480 344 OFFCURVE",
"506 251 OFFCURVE",
"482 168 CURVE SMOOTH",
"446 44 OFFCURVE",
"310 9 OFFCURVE",
"197 27 CURVE SMOOTH",
"131 38 OFFCURVE",
"165 138 OFFCURVE",
"188 213 CURVE SMOOTH",
"215 302 OFFCURVE",
"260 402 OFFCURVE",
"297 482 CURVE SMOOTH",
"323 539 OFFCURVE",
"364 620 OFFCURVE",
"401 668 CURVE",
"471 665 OFFCURVE",
"533 644 OFFCURVE",
"540 574 CURVE SMOOTH"
);
}
);
width = 639;
}
);
note = B.script;
unicode = 0042;
},
{
color = 4;
glyphname = C;
lastChange = "2021-04-19 01:10:12 +0000";
layers = (
{
hints = (
{
horizontal = 1;
place = "{-29, 54}";
type = Stem;
},
{
horizontal = 1;
place = "{459, 61}";
type = Stem;
},
{
horizontal = 1;
place = "{671, 37}";
type = Stem;
},
{
place = "{3, 131}";
type = Stem;
},
{
place = "{466, 11}";
type = Stem;
},
{
place = "{642, 18}";
type = Stem;
},
{
place = "{608, 65}";
type = Stem;
}
);
layerId = "FDC6D5C2-1E82-4E29-8E0D-3EE46E074C54";
paths = (
{
closed = 1;
nodes = (
"707 659 OFFCURVE",
"589 735 OFFCURVE",
"412 699 CURVE SMOOTH",
"31 623 OFFCURVE",
"-151 28 OFFCURVE",
"164 -24 CURVE SMOOTH",
"317 -49 OFFCURVE",
"491 6 OFFCURVE",
"603 121 CURVE SMOOTH",
"630 148 OFFCURVE",
"692 230 OFFCURVE",
"642 262 CURVE",
"622 213 OFFCURVE",
"583 169 OFFCURVE",
"536 128 CURVE SMOOTH",
"436 41 OFFCURVE",
"304 -13 OFFCURVE",
"198 30 CURVE SMOOTH",
"98 70 OFFCURVE",
"96 235 OFFCURVE",
"158 387 CURVE SMOOTH",
"212 520 OFFCURVE",
"344 630 OFFCURVE",
"459 661 CURVE SMOOTH",
"498 672 OFFCURVE",
"602 690 OFFCURVE",
"608 620 CURVE SMOOTH",
"614 554 OFFCURVE",
"532 507 OFFCURVE",
"478 525 CURVE",
"452 492 OFFCURVE",
"472 463 OFFCURVE",
"505 460 CURVE SMOOTH",
"572 455 OFFCURVE",
"643 498 OFFCURVE",
"666 556 CURVE SMOOTH"
);
}
);
width = 651;
}
);
note = C.script;
unicode = 0043;
},
{
color = 4;
glyphname = D;
lastChange = "2021-04-19 01:10:12 +0000";
layers = (
{
hints = (
{
horizontal = 1;
place = "{-10, 62}";
type = Stem;
},
{
horizontal = 1;
place = "{-9, 45}";
type = Stem;
},
{
horizontal = 1;
place = "{665, 33}";
type = Stem;
},
{
place = "{190, 35}";
type = Stem;
},
{
place = "{632, 115}";
type = Stem;
}
);
layerId = "FDC6D5C2-1E82-4E29-8E0D-3EE46E074C54";
paths = (
{
closed = 1;
nodes = (
"770 528 OFFCURVE",
"700 698 OFFCURVE",
"468 698 CURVE SMOOTH",
"297 698 LINE SMOOTH",
"260 698 OFFCURVE",
"110 705 OFFCURVE",
"55 649 CURVE SMOOTH",
"36 630 OFFCURVE",
"14 596 OFFCURVE",
"1 561 CURVE SMOOTH",
"-2 552 OFFCURVE",
"5 544 OFFCURVE",
"9 551 CURVE SMOOTH",
"42 608 OFFCURVE",
"152 640 OFFCURVE",
"241 653 CURVE SMOOTH",
"251 654 OFFCURVE",
"264 657 OFFCURVE",
"277 658 CURVE",
"272 650 OFFCURVE",
"267 640 OFFCURVE",
"262 630 CURVE SMOOTH",
"233 573 OFFCURVE",
"131 366 OFFCURVE",
"80 217 CURVE SMOOTH",
"62 163 OFFCURVE",
"26 69 OFFCURVE",
"75 27 CURVE SMOOTH",
"99 7 OFFCURVE",
"133 -6 OFFCURVE",
"172 -12 CURVE SMOOTH",
"440 -54 OFFCURVE",
"698 82 OFFCURVE",
"743 358 CURVE SMOOTH"
);
},
{
closed = 1;
nodes = (
"592 151 OFFCURVE",
"409 -2 OFFCURVE",
"197 27 CURVE SMOOTH",
"136 35 OFFCURVE",
"160 129 OFFCURVE",
"179 187 CURVE SMOOTH",
"211 288 OFFCURVE",
"252 385 OFFCURVE",
"297 482 CURVE SMOOTH",
"323 538 OFFCURVE",
"365 619 OFFCURVE",
"401 667 CURVE",
"413 667 OFFCURVE",
"425 666 OFFCURVE",
"437 665 CURVE SMOOTH",
"487 661 OFFCURVE",
"556 639 OFFCURVE",
"592 599 CURVE SMOOTH",
"652 533 OFFCURVE",
"659 439 OFFCURVE",
"638 350 CURVE SMOOTH"
);
}
);
width = 731;
}
);
note = D.script;
unicode = 0044;
},
{
color = 4;
glyphname = E;
lastChange = "2021-04-19 01:10:12 +0000";
layers = (
{
hints = (
{
horizontal = 1;
place = "{-1, 35}";
type = Stem;
},
{
horizontal = 1;
place = "{352, 38}";
type = Stem;
},
{
horizontal = 1;
place = "{669, 24}";
type = Stem;
},
{
place = "{39, 119}";
type = Stem;
},
{
horizontal = 1;
place = "{669, 29}";
type = Stem;
}
);
layerId = "FDC6D5C2-1E82-4E29-8E0D-3EE46E074C54";
paths = (
{
closed = 1;
nodes = (
"607 715 OFFCURVE",
"555 698 OFFCURVE",
"471 698 CURVE SMOOTH",
"307 698 LINE SMOOTH",
"270 698 OFFCURVE",
"120 705 OFFCURVE",
"65 649 CURVE SMOOTH",
"46 630 OFFCURVE",
"24 596 OFFCURVE",
"11 561 CURVE SMOOTH",
"8 552 OFFCURVE",
"15 544 OFFCURVE",
"19 551 CURVE SMOOTH",
"54 611 OFFCURVE",
"184 646 OFFCURVE",
"292 660 CURVE",
"280 646 OFFCURVE",
"271 629 OFFCURVE",
"261 611 CURVE SMOOTH",
"217 533 OFFCURVE",
"192 470 OFFCURVE",
"159 391 CURVE",
"125 391 LINE SMOOTH",
"104 391 OFFCURVE",
"56 342 OFFCURVE",
"83 342 CURVE SMOOTH",
"138 342 LINE",
"97 243 OFFCURVE",
"0 0 OFFCURVE",
"80 0 CURVE SMOOTH",
"341 0 LINE SMOOTH",
"406 0 OFFCURVE",
"497 -7 OFFCURVE",
"543 49 CURVE SMOOTH",
"559 68 OFFCURVE",
"574 94 OFFCURVE",
"585 129 CURVE SMOOTH",
"592 153 OFFCURVE",
"578 155 OFFCURVE",
"574 148 CURVE SMOOTH",
"553 104 OFFCURVE",
"502 75 OFFCURVE",
"442 58 CURVE SMOOTH",
"373 38 OFFCURVE",
"300 34 OFFCURVE",
"228 34 CURVE SMOOTH",
"158 34 OFFCURVE",
"149 65 OFFCURVE",
"164 128 CURVE SMOOTH",
"177 183 OFFCURVE",
"214 285 OFFCURVE",
"237 342 CURVE",
"484 342 LINE SMOOTH",
"498 342 OFFCURVE",
"526 391 OFFCURVE",
"520 391 CURVE SMOOTH",
"259 391 LINE",
"296 477 OFFCURVE",
"339 560 OFFCURVE",
"392 639 CURVE SMOOTH",
"407 662 OFFCURVE",
"430 665 OFFCURVE",
"467 665 CURVE SMOOTH",
"517 665 OFFCURVE",
"554 641 OFFCURVE",
"556 600 CURVE SMOOTH",
"557 578 OFFCURVE",
"543 536 OFFCURVE",
"550 532 CURVE SMOOTH",
"555 529 OFFCURVE",
"569 528 OFFCURVE",
"573 539 CURVE SMOOTH",
"586 572 OFFCURVE",
"628 650 OFFCURVE",
"616 688 CURVE SMOOTH"
);
}
);
width = 587;
}
);
note = E.script;
unicode = 0045;
},
{
color = 4;
glyphname = F;
lastChange = "2021-04-19 01:10:12 +0000";
layers = (
{
hints = (
{
horizontal = 1;
place = "{0, 21}";
target = up;
type = BottomGhost;
},
{
horizontal = 1;
place = "{352, 38}";
type = Stem;
},
{
horizontal = 1;
place = "{669, 24}";
type = Stem;
},
{
place = "{39, 111}";
type = Stem;
},
{
horizontal = 1;
place = "{669, 29}";
type = Stem;
}
);
layerId = "FDC6D5C2-1E82-4E29-8E0D-3EE46E074C54";
paths = (
{
closed = 1;
nodes = (
"607 715 OFFCURVE",
"555 698 OFFCURVE",
"471 698 CURVE SMOOTH",
"307 698 LINE SMOOTH",
"270 698 OFFCURVE",
"120 705 OFFCURVE",
"65 649 CURVE SMOOTH",
"46 630 OFFCURVE",
"24 596 OFFCURVE",
"11 561 CURVE SMOOTH",
"8 552 OFFCURVE",
"15 544 OFFCURVE",
"19 551 CURVE SMOOTH",
"54 611 OFFCURVE",
"183 645 OFFCURVE",
"290 660 CURVE",
"243 591 OFFCURVE",
"202 493 OFFCURVE",
"159 391 CURVE",
"125 391 LINE SMOOTH",
"104 391 OFFCURVE",
"56 342 OFFCURVE",
"83 342 CURVE SMOOTH",
"138 342 LINE",
"86 215 OFFCURVE",
"40 94 OFFCURVE",
"18 0 CURVE",
"147 0 LINE",
"125 46 OFFCURVE",
"206 260 OFFCURVE",
"240 342 CURVE",
"447 342 LINE SMOOTH",
"461 342 OFFCURVE",
"489 391 OFFCURVE",
"483 391 CURVE SMOOTH",
"261 391 LINE",
"300 483 OFFCURVE",
"344 581 OFFCURVE",
"385 639 CURVE SMOOTH",
"401 662 OFFCURVE",
"423 665 OFFCURVE",
"460 665 CURVE SMOOTH",
"510 665 OFFCURVE",
"554 641 OFFCURVE",
"556 600 CURVE SMOOTH",
"557 578 OFFCURVE",
"543 536 OFFCURVE",
"550 532 CURVE SMOOTH",
"555 529 OFFCURVE",
"569 528 OFFCURVE",
"573 539 CURVE SMOOTH",
"586 572 OFFCURVE",
"628 650 OFFCURVE",
"616 688 CURVE SMOOTH"
);
}
);
width = 492;
}
);
note = F.script;
unicode = 0046;
},
{
color = 4;
glyphname = G;
lastChange = "2021-04-19 01:10:12 +0000";
layers = (
{
hints = (
{
horizontal = 1;
place = "{-38, 44}";
type = Stem;
},
{
horizontal = 1;
place = "{283, 28}";
type = Stem;
},
{
horizontal = 1;
place = "{459, 61}";
type = Stem;
},
{
horizontal = 1;
place = "{671, 37}";
type = Stem;
},
{
place = "{1, 123}";
type = Stem;
},
{
place = "{466, 11}";
type = Stem;
},
{
place = "{613, 69}";
type = Stem;
},
{
place = "{608, 65}";
type = Stem;
}
);
layerId = "FDC6D5C2-1E82-4E29-8E0D-3EE46E074C54";
paths = (
{
closed = 1;
nodes = (
"449 313 LINE SMOOTH",
"419 313 OFFCURVE",
"377 230 OFFCURVE",
"377 230 CURVE",
"420 236 OFFCURVE",
"531 235 OFFCURVE",
"592 235 CURVE",
"584 185 OFFCURVE",
"556 139 OFFCURVE",
"519 101 CURVE SMOOTH",
"486 67 OFFCURVE",
"444 41 OFFCURVE",
"402 26 CURVE SMOOTH",
"323 -1 OFFCURVE",
"197 -14 OFFCURVE",
"148 70 CURVE SMOOTH",
"99 154 OFFCURVE",
"135 300 OFFCURVE",
"175 383 CURVE SMOOTH",
"235 507 OFFCURVE",
"344 630 OFFCURVE",
"459 661 CURVE SMOOTH",
"498 672 OFFCURVE",
"602 690 OFFCURVE",
"608 620 CURVE SMOOTH",
"614 554 OFFCURVE",
"532 507 OFFCURVE",
"478 525 CURVE",
"452 492 OFFCURVE",
"472 463 OFFCURVE",
"505 460 CURVE SMOOTH",
"572 455 OFFCURVE",
"643 498 OFFCURVE",
"666 556 CURVE SMOOTH",
"707 659 OFFCURVE",
"589 735 OFFCURVE",
"412 699 CURVE SMOOTH",
"79 632 OFFCURVE",
"-127 152 OFFCURVE",
"92 5 CURVE SMOOTH",
"137 -24 OFFCURVE",
"211 -38 OFFCURVE",
"273 -38 CURVE SMOOTH",
"445 -38 OFFCURVE",
"577 36 OFFCURVE",
"652 189 CURVE SMOOTH",
"658 200 OFFCURVE",
"665 219 OFFCURVE",
"672 238 CURVE",
"708 244 OFFCURVE",
"732 262 OFFCURVE",
"742 313 CURVE"
);
}
);
width = 744;
}
);
note = G.script;
unicode = 0047;
},
{
color = 4;
glyphname = H;
lastChange = "2021-04-19 01:10:12 +0000";
layers = (
{
hints = (
{
horizontal = 1;
place = "{-9, 45}";
type = Stem;
},
{
horizontal = 1;
place = "{352, 38}";
type = Stem;
},
{
horizontal = 1;
place = "{669, 29}";
type = Stem;
},
{
place = "{39, 111}";
type = Stem;
},
{
place = "{455, 122}";
type = Stem;
},
{
horizontal = 1;
place = "{0, 21}";
target = up;
type = BottomGhost;
}
);
layerId = "FDC6D5C2-1E82-4E29-8E0D-3EE46E074C54";
paths = (
{
closed = 1;
nodes = (
"753 698 LINE SMOOTH",
"691 698 OFFCURVE",
"678 673 OFFCURVE",
"656 630 CURVE SMOOTH",
"636 593 OFFCURVE",
"589 495 OFFCURVE",
"545 391 CURVE",
"262 391 LINE",
"304 486 OFFCURVE",
"384 653 OFFCURVE",
"443 698 CURVE",
"264 698 LINE SMOOTH",
"185 698 OFFCURVE",
"111 705 OFFCURVE",
"56 649 CURVE SMOOTH",
"37 630 OFFCURVE",
"18 604 OFFCURVE",
"6 569 CURVE SMOOTH",
"-1 550 OFFCURVE",
"14 541 OFFCURVE",
"17 549 CURVE SMOOTH",
"37 612 OFFCURVE",
"186 659 OFFCURVE",
"291 661 CURVE",
"282 651 OFFCURVE",
"275 638 OFFCURVE",
"266 622 CURVE SMOOTH",
"220 539 OFFCURVE",
"189 461 OFFCURVE",
"152 373 CURVE SMOOTH",
"96 240 OFFCURVE",
"41 100 OFFCURVE",
"18 0 CURVE",
"147 0 LINE",
"125 46 OFFCURVE",
"207 261 OFFCURVE",
"242 342 CURVE",
"525 342 LINE",
"491 258 OFFCURVE",
"464 184 OFFCURVE",
"453 127 CURVE SMOOTH",
"440 57 OFFCURVE",
"428 -15 OFFCURVE",
"517 -8 CURVE SMOOTH",
"561 -5 OFFCURVE",
"614 15 OFFCURVE",
"636 40 CURVE SMOOTH",
"639 43 OFFCURVE",
"636 51 OFFCURVE",
"633 49 CURVE SMOOTH",
"559 7 OFFCURVE",
"552 77 OFFCURVE",
"560 125 CURVE SMOOTH",
"577 230 OFFCURVE",
"641 391 OFFCURVE",
"692 498 CURVE SMOOTH",
"726 571 OFFCURVE",
"781 670 OFFCURVE",
"817 698 CURVE"
);
}
);
width = 779;
}
);
note = H.script;
unicode = 0048;
},
{
color = 4;
glyphname = I;
lastChange = "2021-04-19 01:10:12 +0000";
layers = (
{
hints = (
{
horizontal = 1;
place = "{-7, 43}";
type = Stem;
},
{
horizontal = 1;
place = "{669, 29}";
type = Stem;
},
{
place = "{83, 118}";
type = Stem;
}
);
layerId = "FDC6D5C2-1E82-4E29-8E0D-3EE46E074C54";
paths = (
{
closed = 1;
nodes = (
"264 698 LINE SMOOTH",
"185 698 OFFCURVE",
"111 705 OFFCURVE",
"56 649 CURVE SMOOTH",
"37 630 OFFCURVE",
"18 604 OFFCURVE",
"6 569 CURVE SMOOTH",
"-1 550 OFFCURVE",
"14 541 OFFCURVE",
"17 549 CURVE SMOOTH",
"37 612 OFFCURVE",
"186 659 OFFCURVE",
"291 661 CURVE",
"282 651 OFFCURVE",
"275 638 OFFCURVE",
"266 622 CURVE SMOOTH",
"220 539 OFFCURVE",
"189 461 OFFCURVE",
"152 373 CURVE SMOOTH",
"96 240 OFFCURVE",
"41 100 OFFCURVE",
"18 0 CURVE",
"147 0 LINE",
"123 50 OFFCURVE",
"227 312 OFFCURVE",
"253 370 CURVE SMOOTH",
"292 459 OFFCURVE",
"380 650 OFFCURVE",
"443 698 CURVE"
);
}
);
width = 408;
}
);
note = I.script;
unicode = 0049;
},
{
color = 4;
glyphname = J;
lastChange = "2021-04-19 01:10:12 +0000";
layers = (
{
hints = (
{
horizontal = 1;
place = "{-72, 90}";
type = Stem;
},
{
horizontal = 1;
place = "{667, 31}";
type = Stem;
},
{
place = "{-20, 608}";
type = Stem;
}
);
layerId = "FDC6D5C2-1E82-4E29-8E0D-3EE46E074C54";
paths = (
{
closed = 1;
nodes = (
"363 698 LINE SMOOTH",
"284 698 OFFCURVE",
"210 705 OFFCURVE",
"155 649 CURVE SMOOTH",
"136 630 OFFCURVE",
"117 604 OFFCURVE",
"105 569 CURVE SMOOTH",
"98 550 OFFCURVE",
"113 541 OFFCURVE",
"116 549 CURVE SMOOTH",
"133 600 OFFCURVE",
"242 643 OFFCURVE",
"333 657 CURVE SMOOTH",
"362 661 OFFCURVE",
"452 663 OFFCURVE",
"491 652 CURVE",
"425 629 OFFCURVE",
"340 455 OFFCURVE",
"308 375 CURVE SMOOTH",
"283 313 OFFCURVE",
"194 97 OFFCURVE",
"109 -6 CURVE SMOOTH",
"85 -35 OFFCURVE",
"50 -64 OFFCURVE",
"10 -64 CURVE SMOOTH",
"-12 -64 OFFCURVE",
"-32 -53 OFFCURVE",
"-38 -23 CURVE SMOOTH",
"-39 -17 OFFCURVE",
"-40 -10 OFFCURVE",
"-39 -3 CURVE",
"-70 -6 OFFCURVE",
"-82 -41 OFFCURVE",
"-84 -63 CURVE SMOOTH",
"-89 -127 OFFCURVE",
"-47 -170 OFFCURVE",
"19 -170 CURVE SMOOTH",
"236 -170 OFFCURVE",
"347 263 OFFCURVE",
"395 399 CURVE SMOOTH",
"469 607 OFFCURVE",
"486 619 OFFCURVE",
"588 697 CURVE"
);
}
);
width = 441;
}
);
note = J.script;
unicode = 004A;
},
{
color = 4;
glyphname = K;
lastChange = "2021-04-19 01:10:12 +0000";
layers = (
{
hints = (
{
horizontal = 1;
place = "{1, 21}";
target = up;
type = BottomGhost;
},
{
horizontal = 1;
place = "{687, 18}";
type = Stem;
},
{
place = "{73, 112}";
type = Stem;
},
{
horizontal = 1;
place = "{669, 29}";
type = Stem;
}
);
layerId = "FDC6D5C2-1E82-4E29-8E0D-3EE46E074C54";
paths = (
{
closed = 1;
nodes = (
"878 687 OFFCURVE",
"878 696 OFFCURVE",
"871 698 CURVE SMOOTH",
"820 712 OFFCURVE",
"747 712 OFFCURVE",
"660 661 CURVE SMOOTH",
"504 569 OFFCURVE",
"331 410 OFFCURVE",
"249 292 CURVE",
"290 396 OFFCURVE",
"403 641 OFFCURVE",
"478 698 CURVE",
"298 698 LINE SMOOTH",
"220 698 OFFCURVE",
"145 705 OFFCURVE",
"90 649 CURVE SMOOTH",
"72 630 OFFCURVE",
"53 604 OFFCURVE",
"41 569 CURVE SMOOTH",
"34 550 OFFCURVE",
"48 541 OFFCURVE",
"51 549 CURVE SMOOTH",
"71 612 OFFCURVE",
"221 659 OFFCURVE",
"325 661 CURVE",
"320 654 OFFCURVE",
"310 641 OFFCURVE",
"308 637 CURVE",
"212 501 OFFCURVE",
"83 122 OFFCURVE",
"51 0 CURVE",
"180 0 LINE",
"163 38 OFFCURVE",
"212 189 OFFCURVE",
"235 222 CURVE SMOOTH",
"260 258 OFFCURVE",
"294 298 OFFCURVE",
"331 335 CURVE",
"346 245 OFFCURVE",
"473 2 OFFCURVE",
"534 2 CURVE",
"534 2 OFFCURVE",
"636 -5 OFFCURVE",
"667 2 CURVE",
"589 54 OFFCURVE",
"445 242 OFFCURVE",
"398 398 CURVE",
"430 427 OFFCURVE",
"461 452 OFFCURVE",
"487 472 CURVE SMOOTH",
"563 531 OFFCURVE",
"646 587 OFFCURVE",
"729 633 CURVE SMOOTH",
"789 666 OFFCURVE",
"840 687 OFFCURVE",
"871 687 CURVE SMOOTH"
);
}
);
width = 727;
}
);
note = K.script;
unicode = 004B;
},
{
color = 4;
glyphname = L;
lastChange = "2021-04-19 01:10:12 +0000";
layers = (
{
hints = (
{
horizontal = 1;
place = "{-1, 35}";
type = Stem;
},
{
horizontal = 1;
place = "{669, 29}";
type = Stem;
},
{
place = "{82, 116}";
type = Stem;
}
);
layerId = "FDC6D5C2-1E82-4E29-8E0D-3EE46E074C54";
paths = (
{
closed = 1;
nodes = (
"591 153 OFFCURVE",
"577 155 OFFCURVE",
"574 148 CURVE SMOOTH",
"552 104 OFFCURVE",
"501 75 OFFCURVE",
"442 58 CURVE SMOOTH",
"372 38 OFFCURVE",
"299 34 OFFCURVE",
"228 34 CURVE SMOOTH",
"164 34 OFFCURVE",
"152 73 OFFCURVE",
"158 118 CURVE SMOOTH",
"171 220 OFFCURVE",
"290 453 OFFCURVE",
"336 536 CURVE SMOOTH",
"378 611 OFFCURVE",
"420 675 OFFCURVE",
"450 698 CURVE",
"270 698 LINE SMOOTH",
"191 698 OFFCURVE",
"117 705 OFFCURVE",
"62 649 CURVE SMOOTH",
"43 630 OFFCURVE",
"25 604 OFFCURVE",
"12 569 CURVE SMOOTH",
"5 550 OFFCURVE",
"20 541 OFFCURVE",
"23 549 CURVE SMOOTH",
"43 612 OFFCURVE",
"192 659 OFFCURVE",
"297 661 CURVE",
"291 654 OFFCURVE",
"281 635 OFFCURVE",
"278 630 CURVE SMOOTH",
"198 486 OFFCURVE",
"81 268 OFFCURVE",
"49 127 CURVE SMOOTH",
"32 51 OFFCURVE",
"35 0 OFFCURVE",
"79 0 CURVE SMOOTH",
"340 0 LINE SMOOTH",
"406 0 OFFCURVE",
"497 -7 OFFCURVE",
"543 49 CURVE SMOOTH",
"558 68 OFFCURVE",
"573 94 OFFCURVE",
"584 129 CURVE SMOOTH"
);
}
);
width = 593;
}
);
note = L.script;
unicode = 004C;
},
{
color = 4;
glyphname = M;
lastChange = "2021-04-19 01:10:12 +0000";
layers = (
{
hints = (
{
horizontal = 1;
place = "{-9, 45}";
type = Stem;
},
{
horizontal = 1;
place = "{669, 29}";
type = Stem;
},
{
place = "{73, 65}";
type = Stem;
},
{
place = "{368, 97}";
type = Stem;
},
{
place = "{635, 121}";
type = Stem;
},
{
horizontal = 1;
place = "{0, 21}";
target = up;
type = BottomGhost;
}
);
layerId = "FDC6D5C2-1E82-4E29-8E0D-3EE46E074C54";
paths = (
{
closed = 1;
nodes = (
"966 698 LINE SMOOTH",
"919 698 OFFCURVE",
"868 686 OFFCURVE",
"838 651 CURVE SMOOTH",
"785 588 OFFCURVE",
"551 306 OFFCURVE",
"468 202 CURVE",
"472 242 OFFCURVE",
"470 292 OFFCURVE",
"470 298 CURVE SMOOTH",
"468 397 OFFCURVE",
"459 592 OFFCURVE",
"449 647 CURVE SMOOTH",
"438 707 OFFCURVE",
"391 698 OFFCURVE",
"348 698 CURVE SMOOTH",
"298 698 LINE SMOOTH",
"219 698 OFFCURVE",
"145 705 OFFCURVE",
"90 649 CURVE SMOOTH",
"72 630 OFFCURVE",
"53 604 OFFCURVE",
"41 569 CURVE SMOOTH",
"34 550 OFFCURVE",
"48 541 OFFCURVE",
"51 549 CURVE SMOOTH",
"71 612 OFFCURVE",
"212 672 OFFCURVE",
"330 669 CURVE",
"311 632 OFFCURVE",
"125 224 OFFCURVE",
"38 0 CURVE",
"130 0 LINE",
"114 67 OFFCURVE",
"327 548 OFFCURVE",
"353 597 CURVE",
"378 439 OFFCURVE",
"384 154 OFFCURVE",
"348 107 CURVE",
"371 96 OFFCURVE",
"392 91 OFFCURVE",
"410 92 CURVE SMOOTH",
"440 94 OFFCURVE",
"450 106 OFFCURVE",
"499 169 CURVE SMOOTH",
"590 287 OFFCURVE",
"669 393 OFFCURVE",
"785 523 CURVE SMOOTH",
"803 544 OFFCURVE",
"822 561 OFFCURVE",
"839 577 CURVE",
"780 465 OFFCURVE",
"668 241 OFFCURVE",
"643 127 CURVE SMOOTH",
"628 57 OFFCURVE",
"625 -15 OFFCURVE",
"714 -8 CURVE SMOOTH",
"758 -5 OFFCURVE",
"811 15 OFFCURVE",
"834 40 CURVE SMOOTH",
"837 43 OFFCURVE",
"835 51 OFFCURVE",
"831 49 CURVE SMOOTH",
"756 7 OFFCURVE",
"751 77 OFFCURVE",
"760 125 CURVE SMOOTH",
"780 230 OFFCURVE",
"839 374 OFFCURVE",
"892 482 CURVE SMOOTH",
"928 554 OFFCURVE",
"985 665 OFFCURVE",
"1028 698 CURVE"
);
}
);
width = 927;
}
);
note = M.script;
unicode = 004D;
},
{
color = 4;
glyphname = N;
lastChange = "2021-04-19 01:10:12 +0000";
layers = (
{
hints = (
{
horizontal = 1;
place = "{0, 21}";
target = up;
type = BottomGhost;
},
{
horizontal = 1;
place = "{638, 68}";
type = Stem;
},
{
place = "{73, 65}";
type = Stem;
},
{
place = "{323, 83}";
type = Stem;
},
{
place = "{499, 60}";
type = Stem;
},
{
place = "{889, 11}";
type = Stem;
},
{
horizontal = 1;
place = "{669, 29}";
type = Stem;
}
);
layerId = "FDC6D5C2-1E82-4E29-8E0D-3EE46E074C54";
paths = (
{
closed = 1;
nodes = (
"842 697 OFFCURVE",
"770 709 OFFCURVE",
"765 698 CURVE SMOOTH",
"710 572 OFFCURVE",
"581 283 OFFCURVE",
"542 184 CURVE",
"538 214 OFFCURVE",
"546 221 OFFCURVE",
"506 327 CURVE SMOOTH",
"495 358 OFFCURVE",
"480 393 OFFCURVE",
"463 434 CURVE SMOOTH",
"375 640 OFFCURVE",
"414 688 OFFCURVE",
"420 698 CURVE",
"298 698 LINE SMOOTH",
"219 698 OFFCURVE",
"145 705 OFFCURVE",
"90 649 CURVE SMOOTH",
"72 630 OFFCURVE",
"53 604 OFFCURVE",
"41 569 CURVE SMOOTH",
"34 550 OFFCURVE",
"48 541 OFFCURVE",
"51 549 CURVE SMOOTH",
"71 612 OFFCURVE",
"212 672 OFFCURVE",
"330 669 CURVE",
"311 632 OFFCURVE",
"125 224 OFFCURVE",
"38 0 CURVE",
"130 0 LINE",
"117 55 OFFCURVE",
"258 390 OFFCURVE",
"323 534 CURVE",
"327 486 OFFCURVE",
"343 419 OFFCURVE",
"382 328 CURVE SMOOTH",
"471 119 OFFCURVE",
"496 80 OFFCURVE",
"499 0 CURVE",
"562 0 LINE",
"544 58 OFFCURVE",
"638 307 OFFCURVE",
"730 494 CURVE SMOOTH",
"779 595 OFFCURVE",
"820 672 OFFCURVE",
"858 697 CURVE"
);
}
);
width = 703;
}
);
note = N.script;
unicode = 004E;
},
{
color = 4;
glyphname = O;
lastChange = "2021-04-19 01:10:12 +0000";
layers = (
{
hints = (
{
horizontal = 1;
place = "{-33, 43}";
type = Stem;
},
{
horizontal = 1;
place = "{662, 45}";
type = Stem;
},
{
place = "{3, 120}";
type = Stem;
},
{
place = "{675, 84}";
type = Stem;
}
);
layerId = "FDC6D5C2-1E82-4E29-8E0D-3EE46E074C54";
paths = (
{
closed = 1;
nodes = (
"807 506 OFFCURVE",
"760 715 OFFCURVE",
"492 708 CURVE SMOOTH",
"237 701 OFFCURVE",
"13 461 OFFCURVE",
"3 203 CURVE SMOOTH",
"-4 31 OFFCURVE",
"98 -32 OFFCURVE",
"251 -32 CURVE SMOOTH",
"467 -32 OFFCURVE",
"634 112 OFFCURVE",
"718 303 CURVE SMOOTH"
);
},
{
closed = 1;
nodes = (
"684 483 OFFCURVE",
"669 395 OFFCURVE",
"634 309 CURVE SMOOTH",
"580 177 OFFCURVE",
"460 53 OFFCURVE",
"342 21 CURVE SMOOTH",
"79 -51 OFFCURVE",
"89 231 OFFCURVE",
"173 400 CURVE SMOOTH",
"210 473 OFFCURVE",
"267 540 OFFCURVE",
"331 591 CURVE SMOOTH",
"434 671 OFFCURVE",
"641 714 OFFCURVE",
"671 551 CURVE SMOOTH"
);
}
);
width = 763;
}
);
note = O.script;
unicode = 004F;
},
{
color = 4;
glyphname = P;
lastChange = "2021-04-19 01:10:12 +0000";
layers = (
{
hints = (
{
horizontal = 1;
place = "{-9, 45}";
type = Stem;
},
{
horizontal = 1;
place = "{302, 19}";
type = Stem;
},
{
horizontal = 1;
place = "{668, 30}";
type = Stem;
},
{
place = "{540, 104}";
type = Stem;
}
);
layerId = "FDC6D5C2-1E82-4E29-8E0D-3EE46E074C54";
paths = (
{
closed = 1;
nodes = (
"651 626 OFFCURVE",
"597 698 OFFCURVE",
"460 698 CURVE SMOOTH",
"254 698 LINE SMOOTH",
"175 698 OFFCURVE",
"101 705 OFFCURVE",
"46 649 CURVE SMOOTH",
"27 630 OFFCURVE",
"8 604 OFFCURVE",
"-4 569 CURVE SMOOTH",
"-11 550 OFFCURVE",
"4 541 OFFCURVE",
"7 549 CURVE SMOOTH",
"27 612 OFFCURVE",
"176 659 OFFCURVE",
"281 661 CURVE",
"272 651 OFFCURVE",
"265 638 OFFCURVE",
"256 622 CURVE SMOOTH",
"210 539 OFFCURVE",
"179 461 OFFCURVE",
"142 373 CURVE SMOOTH",
"86 240 OFFCURVE",
"31 100 OFFCURVE",
"8 0 CURVE",
"137 0 LINE",
"118 39 OFFCURVE",
"177 206 OFFCURVE",
"216 305 CURVE",
"296 296 OFFCURVE",
"402 313 OFFCURVE",
"475 341 CURVE SMOOTH",
"562 374 OFFCURVE",
"635 442 OFFCURVE",
"644 548 CURVE SMOOTH"
);
},
{
closed = 1;
nodes = (
"428 348 OFFCURVE",
"313 318 OFFCURVE",
"222 321 CURVE",
"243 370 LINE SMOOTH",
"276 446 OFFCURVE",
"345 596 OFFCURVE",
"403 668 CURVE",
"421 667 OFFCURVE",
"437 666 OFFCURVE",
"453 662 CURVE SMOOTH",
"564 637 OFFCURVE",
"562 497 OFFCURVE",
"492 420 CURVE SMOOTH"
);
}
);
width = 499;
}
);
note = P.script;
unicode = 0050;
},
{
color = 4;
glyphname = Q;
lastChange = "2021-04-19 01:10:12 +0000";
layers = (
{
hints = (
{
horizontal = 1;
place = "{-281, 92}";
type = Stem;
},
{
horizontal = 1;
place = "{-33, 43}";
type = Stem;
},
{
horizontal = 1;
place = "{662, 45}";
type = Stem;
},
{
place = "{3, 120}";
type = Stem;
},
{
place = "{631, 8}";
type = Stem;
},
{
place = "{675, 84}";
type = Stem;
}
);
layerId = "FDC6D5C2-1E82-4E29-8E0D-3EE46E074C54";
paths = (
{
closed = 1;
nodes = (
"807 506 OFFCURVE",
"761 715 OFFCURVE",
"492 708 CURVE SMOOTH",
"237 701 OFFCURVE",
"13 461 OFFCURVE",
"3 203 CURVE SMOOTH",
"-4 31 OFFCURVE",
"98 -32 OFFCURVE",
"251 -32 CURVE SMOOTH",
"308 -32 OFFCURVE",
"362 -22 OFFCURVE",
"412 -3 CURVE",
"420 -50 OFFCURVE",
"422 -96 OFFCURVE",
"429 -145 CURVE SMOOTH",
"437 -195 OFFCURVE",
"452 -255 OFFCURVE",
"506 -273 CURVE SMOOTH",
"531 -282 OFFCURVE",
"562 -282 OFFCURVE",
"587 -272 CURVE SMOOTH",
"626 -256 OFFCURVE",
"653 -212 OFFCURVE",
"631 -173 CURVE",
"621 -183 OFFCURVE",
"607 -189 OFFCURVE",
"596 -189 CURVE SMOOTH",
"564 -189 OFFCURVE",
"547 -168 OFFCURVE",
"536 -141 CURVE SMOOTH",
"520 -99 OFFCURVE",
"518 -54 OFFCURVE",
"504 -7 CURVE SMOOTH",
"500 7 OFFCURVE",
"494 20 OFFCURVE",
"488 33 CURVE",
"589 93 OFFCURVE",
"668 190 OFFCURVE",
"718 303 CURVE SMOOTH"
);
},
{
closed = 1;
nodes = (
"684 483 OFFCURVE",
"669 395 OFFCURVE",
"634 309 CURVE SMOOTH",
"598 220 OFFCURVE",
"533 136 OFFCURVE",
"458 80 CURVE",
"425 117 OFFCURVE",
"380 138 OFFCURVE",
"322 122 CURVE SMOOTH",
"301 116 OFFCURVE",
"286 87 OFFCURVE",
"322 97 CURVE SMOOTH",
"350 105 OFFCURVE",
"384 88 OFFCURVE",
"401 44 CURVE",
"381 34 OFFCURVE",
"362 26 OFFCURVE",
"342 21 CURVE SMOOTH",
"78 -50 OFFCURVE",
"92 231 OFFCURVE",
"181 400 CURVE SMOOTH",
"219 473 OFFCURVE",
"278 540 OFFCURVE",
"344 591 CURVE SMOOTH",
"448 671 OFFCURVE",
"641 714 OFFCURVE",
"671 551 CURVE SMOOTH"
);
}
);
width = 763;
}
);
note = Q.script;
unicode = 0051;
},
{
color = 4;
glyphname = R;
lastChange = "2021-04-19 01:10:12 +0000";
layers = (
{
hints = (
{
horizontal = 1;
place = "{1, 21}";
target = up;
type = BottomGhost;
},
{
horizontal = 1;
place = "{336, 27}";
type = Stem;
},
{
horizontal = 1;
place = "{668, 30}";
type = Stem;
},
{
place = "{41, 111}";
type = Stem;
},
{
place = "{539, 105}";
type = Stem;
}
);
layerId = "FDC6D5C2-1E82-4E29-8E0D-3EE46E074C54";
paths = (
{
closed = 1;
nodes = (
"645 602 OFFCURVE",
"629 641 OFFCURVE",
"590 666 CURVE SMOOTH",
"560 686 OFFCURVE",
"516 698 OFFCURVE",
"460 698 CURVE SMOOTH",
"264 698 LINE SMOOTH",
"185 698 OFFCURVE",
"111 705 OFFCURVE",
"56 649 CURVE SMOOTH",
"37 630 OFFCURVE",
"18 604 OFFCURVE",
"6 569 CURVE SMOOTH",
"-1 550 OFFCURVE",
"14 541 OFFCURVE",
"17 549 CURVE SMOOTH",
"37 612 OFFCURVE",
"186 659 OFFCURVE",
"291 661 CURVE",
"282 651 OFFCURVE",
"275 638 OFFCURVE",
"266 622 CURVE SMOOTH",
"220 539 OFFCURVE",
"189 461 OFFCURVE",
"152 373 CURVE SMOOTH",
"96 240 OFFCURVE",
"41 100 OFFCURVE",
"18 0 CURVE",
"147 0 LINE",
"124 47 OFFCURVE",
"212 270 OFFCURVE",
"237 332 CURVE SMOOTH",
"279 434 OFFCURVE",
"350 587 OFFCURVE",
"410 668 CURVE",
"428 667 OFFCURVE",
"447 666 OFFCURVE",
"463 662 CURVE SMOOTH",
"525 648 OFFCURVE",
"551 600 OFFCURVE",
"549 549 CURVE SMOOTH",
"545 460 OFFCURVE",
"477 407 OFFCURVE",
"398 383 CURVE SMOOTH",
"370 375 OFFCURVE",
"339 369 OFFCURVE",
"307 365 CURVE SMOOTH",
"289 363 OFFCURVE",
"294 345 OFFCURVE",
"295 336 CURVE SMOOTH",
"307 263 OFFCURVE",
"392 2 OFFCURVE",
"474 2 CURVE",
"474 2 OFFCURVE",
"566 -5 OFFCURVE",
"597 2 CURVE",
"532 71 OFFCURVE",
"434 183 OFFCURVE",
"387 346 CURVE",
"419 352 LINE SMOOTH",
"527 372 OFFCURVE",
"645 438 OFFCURVE",
"645 562 CURVE SMOOTH"
);
}
);
width = 666;
}
);
note = R.script;
unicode = 0052;
},
{
color = 4;
glyphname = S;
lastChange = "2021-04-19 01:10:12 +0000";
layers = (
{
hints = (
{
horizontal = 1;
place = "{-32, 98}";
type = Stem;
},
{
horizontal = 1;
place = "{670, 40}";
type = Stem;
},
{
place = "{-4, 74}";
type = Stem;
},
{
place = "{176, 80}";
type = Stem;
},
{
place = "{504, 72}";
type = Stem;
}
);
layerId = "FDC6D5C2-1E82-4E29-8E0D-3EE46E074C54";
paths = (
{
closed = 1;
nodes = (
"581 513 OFFCURVE",
"646 718 OFFCURVE",
"405 716 CURVE SMOOTH",
"341 716 OFFCURVE",
"279 701 OFFCURVE",
"234 662 CURVE SMOOTH",
"192 627 OFFCURVE",
"170 575 OFFCURVE",
"170 523 CURVE SMOOTH",
"170 440 OFFCURVE",
"223 390 OFFCURVE",
"277 333 CURVE SMOOTH",
"303 305 OFFCURVE",
"337 274 OFFCURVE",
"355 233 CURVE SMOOTH",
"408 113 OFFCURVE",
"312 12 OFFCURVE",
"212 17 CURVE SMOOTH",
"138 20 OFFCURVE",
"100 79 OFFCURVE",
"138 144 CURVE SMOOTH",
"141 150 OFFCURVE",
"153 163 OFFCURVE",
"158 167 CURVE",
"148 187 OFFCURVE",
"116 203 OFFCURVE",
"83 195 CURVE SMOOTH",
"-4 174 OFFCURVE",
"-8 65 OFFCURVE",
"53 19 CURVE SMOOTH",
"91 -9 OFFCURVE",
"150 -20 OFFCURVE",
"216 -20 CURVE SMOOTH",
"432 -21 OFFCURVE",
"595 189 OFFCURVE",
"416 368 CURVE SMOOTH",
"379 405 OFFCURVE",
"315 457 OFFCURVE",
"284 504 CURVE SMOOTH",
"232 583 OFFCURVE",
"294 681 OFFCURVE",
"399 681 CURVE SMOOTH",
"452 681 OFFCURVE",
"496 649 OFFCURVE",
"476 599 CURVE SMOOTH",
"468 577 OFFCURVE",
"438 557 OFFCURVE",
"414 557 CURVE",
"403 507 OFFCURVE",
"444 493 OFFCURVE",
"484 499 CURVE SMOOTH"
);
}
);
width = 523;
}
);
note = S.script;
unicode = 0053;
},
{
color = 4;
glyphname = T;
lastChange = "2021-04-19 01:10:12 +0000";
layers = (
{
hints = (
{
horizontal = 1;
place = "{0, 21}";
target = up;
type = BottomGhost;
},
{
horizontal = 1;
place = "{663, 30}";
type = Stem;
},
{
horizontal = 1;
place = "{663, 35}";
type = Stem;
},
{
place = "{63, 111}";
type = Stem;
}
);
layerId = "FDC6D5C2-1E82-4E29-8E0D-3EE46E074C54";
paths = (
{
closed = 1;
nodes = (
"309 519 OFFCURVE",
"189 254 OFFCURVE",
"162 126 CURVE SMOOTH",
"153 79 OFFCURVE",
"134 -30 OFFCURVE",
"217 -21 CURVE SMOOTH",
"245 -18 OFFCURVE",
"277 -3 OFFCURVE",
"298 14 CURVE SMOOTH",
"323 34 OFFCURVE",
"354 67 OFFCURVE",
"366 85 CURVE SMOOTH",
"399 130 OFFCURVE",
"385 155 OFFCURVE",
"371 136 CURVE SMOOTH",
"293 30 OFFCURVE",
"254 74 OFFCURVE",
"261 130 CURVE SMOOTH",
"272 217 OFFCURVE",
"341 390 OFFCURVE",
"391 497 CURVE SMOOTH",
"413 543 OFFCURVE",
"448 614 OFFCURVE",
"461 633 CURVE",
"483 634 OFFCURVE",
"606 621 OFFCURVE",
"669 631 CURVE SMOOTH",
"733 641 OFFCURVE",
"770 683 OFFCURVE",
"755 713 CURVE",
"710 666 OFFCURVE",
"524 691 OFFCURVE",
"437 696 CURVE SMOOTH",
"324 702 OFFCURVE",
"117 735 OFFCURVE",
"35 638 CURVE SMOOTH",
"5 603 OFFCURVE",
"-17 534 OFFCURVE",
"20 479 CURVE SMOOTH",
"27 469 OFFCURVE",
"43 476 OFFCURVE",
"38 489 CURVE SMOOTH",
"27 522 OFFCURVE",
"27 561 OFFCURVE",
"62 592 CURVE SMOOTH",
"133 657 OFFCURVE",
"290 636 OFFCURVE",
"373 638 CURVE"
);
}
);
width = 483;
}
);
note = T.script;
unicode = 0054;
},
{
color = 4;
glyphname = U;
lastChange = "2021-04-19 01:10:12 +0000";
layers = (
{
hints = (
{
horizontal = 1;
place = "{-9, 44}";
type = Stem;
},
{
horizontal = 1;
place = "{698, -20}";
target = down;
type = TopGhost;
},
{
place = "{49, 95}";
type = Stem;
},
{
place = "{436, 112}";
type = Stem;
},
{
horizontal = 1;
place = "{-7, 63}";
type = Stem;
}
);
layerId = "FDC6D5C2-1E82-4E29-8E0D-3EE46E074C54";
paths = (
{
closed = 1;
nodes = (
"218 522 OFFCURVE",
"148 377 OFFCURVE",
"110 259 CURVE SMOOTH",
"46 59 OFFCURVE",
"87 -7 OFFCURVE",
"194 -7 CURVE SMOOTH",
"247 -7 OFFCURVE",
"315 26 OFFCURVE",
"376 93 CURVE SMOOTH",
"427 148 OFFCURVE",
"522 287 OFFCURVE",
"566 353 CURVE",
"539 294 OFFCURVE",
"492 178 OFFCURVE",
"483 135 CURVE SMOOTH",
"467 61 OFFCURVE",
"464 -14 OFFCURVE",
"547 -8 CURVE SMOOTH",
"591 -5 OFFCURVE",
"645 15 OFFCURVE",
"668 40 CURVE",
"670 43 OFFCURVE",
"668 51 OFFCURVE",
"665 49 CURVE SMOOTH",
"589 7 OFFCURVE",
"584 77 OFFCURVE",
"593 125 CURVE SMOOTH",
"613 230 OFFCURVE",
"672 374 OFFCURVE",
"725 482 CURVE SMOOTH",
"761 554 OFFCURVE",
"819 665 OFFCURVE",
"862 698 CURVE",
"800 698 LINE SMOOTH",
"753 698 OFFCURVE",
"719 662 OFFCURVE",
"673 577 CURVE SMOOTH",
"603 446 OFFCURVE",
"352 59 OFFCURVE",
"228 56 CURVE SMOOTH",
"119 54 OFFCURVE",
"210 265 OFFCURVE",
"230 312 CURVE SMOOTH",
"265 398 OFFCURVE",
"380 645 OFFCURVE",
"450 698 CURVE",
"270 698 LINE SMOOTH",
"191 698 OFFCURVE",
"117 705 OFFCURVE",
"62 649 CURVE SMOOTH",
"43 630 OFFCURVE",
"25 604 OFFCURVE",
"12 569 CURVE SMOOTH",
"5 550 OFFCURVE",
"20 541 OFFCURVE",
"23 549 CURVE SMOOTH",
"43 612 OFFCURVE",
"192 659 OFFCURVE",
"297 661 CURVE",
"291 654 OFFCURVE",
"281 635 OFFCURVE",
"278 630 CURVE SMOOTH"
);
}
);
width = 747;
}
);
note = U.script;
unicode = 0055;
},
{
color = 4;
glyphname = V;
lastChange = "2021-04-19 01:10:12 +0000";
layers = (
{
hints = (
{
horizontal = 1;
place = "{0, 21}";
target = up;
type = BottomGhost;
},
{
horizontal = 1;
place = "{619, 92}";
type = Stem;
},
{
horizontal = 1;
place = "{698, -20}";
target = down;
type = TopGhost;
},
{
place = "{185, 99}";
type = Stem;
}
);
layerId = "FDC6D5C2-1E82-4E29-8E0D-3EE46E074C54";
paths = (
{
closed = 1;
nodes = (
"570 698 LINE",
"525 595 OFFCURVE",
"341 268 OFFCURVE",
"229 111 CURVE",
"236 186 OFFCURVE",
"253 479 OFFCURVE",
"229 612 CURVE SMOOTH",
"216 680 OFFCURVE",
"185 744 OFFCURVE",
"113 693 CURVE SMOOTH",
"77 668 OFFCURVE",
"40 624 OFFCURVE",
"30 591 CURVE SMOOTH",
"29 588 OFFCURVE",
"33 582 OFFCURVE",
"35 585 CURVE SMOOTH",
"83 659 OFFCURVE",
"113 601 OFFCURVE",
"122 555 CURVE SMOOTH",
"143 455 OFFCURVE",
"139 319 OFFCURVE",
"134 209 CURVE SMOOTH",
"130 135 OFFCURVE",
"132 46 OFFCURVE",
"108 0 CURVE",
"172 0 LINE SMOOTH",
"175 0 OFFCURVE",
"178 0 OFFCURVE",
"181 1 CURVE SMOOTH",
"221 9 OFFCURVE",
"245 56 OFFCURVE",
"271 97 CURVE SMOOTH",
"388 278 OFFCURVE",
"610 617 OFFCURVE",
"660 698 CURVE"
);
}
);
width = 609;
}
);
note = V.script;
unicode = 0056;
},
{
color = 4;
glyphname = W;
lastChange = "2021-04-19 01:10:12 +0000";
layers = (
{
hints = (
{
horizontal = 1;
place = "{-5, 67}";
type = Stem;
},
{
horizontal = 1;
place = "{674, 34}";
type = Stem;
},
{
place = "{10, 31}";
type = Stem;
},
{
place = "{84, 103}";
type = Stem;
},
{
place = "{526, 95}";
type = Stem;
},
{
place = "{1005, 98}";
type = Stem;
},
{
horizontal = 1;
place = "{656, 42}";
type = Stem;
}
);
layerId = "FDC6D5C2-1E82-4E29-8E0D-3EE46E074C54";
paths = (
{
closed = 1;
nodes = (
"1096 740 OFFCURVE",
"924 723 OFFCURVE",
"916 668 CURVE",
"1068 719 OFFCURVE",
"988 468 OFFCURVE",
"954 376 CURVE SMOOTH",
"902 234 OFFCURVE",
"811 58 OFFCURVE",
"702 63 CURVE SMOOTH",
"623 67 OFFCURVE",
"600 181 OFFCURVE",
"640 350 CURVE SMOOTH",
"669 473 OFFCURVE",
"724 575 OFFCURVE",
"768 635 CURVE",
"762 640 OFFCURVE",
"765 643 OFFCURVE",
"756 644 CURVE SMOOTH",
"692 655 OFFCURVE",
"622 594 OFFCURVE",
"596 544 CURVE SMOOTH",
"556 468 OFFCURVE",
"527 368 OFFCURVE",
"473 287 CURVE SMOOTH",
"396 173 OFFCURVE",
"307 64 OFFCURVE",
"253 63 CURVE SMOOTH",
"137 60 OFFCURVE",
"204 278 OFFCURVE",
"238 361 CURVE SMOOTH",
"296 506 OFFCURVE",
"380 623 OFFCURVE",
"435 656 CURVE SMOOTH",
"452 667 OFFCURVE",
"480 698 OFFCURVE",
"469 698 CURVE SMOOTH",
"311 698 LINE SMOOTH",
"236 698 OFFCURVE",
"101 706 OFFCURVE",
"39 636 CURVE SMOOTH",
"9 603 OFFCURVE",
"-8 547 OFFCURVE",
"41 497 CURVE",
"40 561 OFFCURVE",
"77 609 OFFCURVE",
"148 625 CURVE SMOOTH",
"200 637 OFFCURVE",
"294 641 OFFCURVE",
"370 656 CURVE",
"354 650 OFFCURVE",
"339 642 OFFCURVE",
"325 629 CURVE SMOOTH",
"202 519 OFFCURVE",
"94 304 OFFCURVE",
"84 172 CURVE SMOOTH",
"74 37 OFFCURVE",
"132 -3 OFFCURVE",
"191 -4 CURVE SMOOTH",
"241 -4 OFFCURVE",
"310 14 OFFCURVE",
"388 104 CURVE SMOOTH",
"450 176 OFFCURVE",
"503 271 OFFCURVE",
"543 350 CURVE",
"509 184 OFFCURVE",
"518 24 OFFCURVE",
"621 8 CURVE SMOOTH",
"726 -8 OFFCURVE",
"833 69 OFFCURVE",
"892 134 CURVE SMOOTH",
"1011 265 OFFCURVE",
"1111 467 OFFCURVE",
"1103 607 CURVE SMOOTH"
);
}
);
width = 1101;
}
);
note = W.script;
unicode = 0057;
},
{
color = 4;
glyphname = X;
lastChange = "2021-04-19 01:10:12 +0000";
layers = (
{
hints = (
{
horizontal = 1;
place = "{0, 18}";
type = Stem;
},
{
horizontal = 1;
place = "{631, 69}";
type = Stem;
},
{
place = "{0, 789}";
type = Stem;
}
);
layerId = "FDC6D5C2-1E82-4E29-8E0D-3EE46E074C54";
paths = (
{
closed = 1;
nodes = (
"755 695 OFFCURVE",
"697 704 OFFCURVE",
"675 679 CURVE SMOOTH",
"597 590 OFFCURVE",
"517 504 OFFCURVE",
"434 419 CURVE",
"421 473 OFFCURVE",
"405 541 OFFCURVE",
"393 596 CURVE SMOOTH",
"376 673 OFFCURVE",
"366 721 OFFCURVE",
"259 685 CURVE SMOOTH",
"211 669 OFFCURVE",
"171 636 OFFCURVE",
"145 611 CURVE SMOOTH",
"139 606 OFFCURVE",
"145 586 OFFCURVE",
"152 592 CURVE SMOOTH",
"181 621 OFFCURVE",
"207 629 OFFCURVE",
"225 631 CURVE SMOOTH",
"257 634 OFFCURVE",
"271 609 OFFCURVE",
"276 588 CURVE SMOOTH",
"343 327 LINE",
"232 215 OFFCURVE",
"117 107 OFFCURVE",
"0 0 CURVE",
"108 0 LINE",
"185 94 OFFCURVE",
"268 188 OFFCURVE",
"355 280 CURVE",
"430 0 LINE",
"571 0 LINE",
"559 15 OFFCURVE",
"537 67 OFFCURVE",
"494 205 CURVE SMOOTH",
"477 258 OFFCURVE",
"461 316 OFFCURVE",
"446 373 CURVE",
"558 486 OFFCURVE",
"674 595 OFFCURVE",
"790 695 CURVE"
);
}
);
width = 696;
}
);
note = X.script;
unicode = 0058;
},
{
color = 4;
glyphname = Y;
lastChange = "2021-04-19 01:10:12 +0000";
layers = (
{
hints = (
{
horizontal = 1;
place = "{-7, 43}";
type = Stem;
},
{
horizontal = 1;
place = "{624, 81}";
type = Stem;
},
{
horizontal = 1;
place = "{698, -20}";
target = down;
type = TopGhost;
},
{
place = "{203, 118}";
type = Stem;
}
);
layerId = "FDC6D5C2-1E82-4E29-8E0D-3EE46E074C54";
paths = (
{
closed = 1;
nodes = (
"717 698 OFFCURVE",
"639 707 OFFCURVE",
"617 678 CURVE SMOOTH",
"548 588 OFFCURVE",
"449 441 OFFCURVE",
"374 337 CURVE",
"357 405 OFFCURVE",
"334 490 OFFCURVE",
"314 559 CURVE SMOOTH",
"289 642 OFFCURVE",
"264 692 OFFCURVE",
"197 695 CURVE SMOOTH",
"93 700 OFFCURVE",
"49 645 OFFCURVE",
"5 557 CURVE SMOOTH",
"3 552 OFFCURVE",
"6 536 OFFCURVE",
"11 541 CURVE",
"119 685 OFFCURVE",
"175 606 OFFCURVE",
"216 497 CURVE SMOOTH",
"241 429 OFFCURVE",
"265 354 OFFCURVE",
"273 297 CURVE SMOOTH",
"278 261 OFFCURVE",
"269 215 OFFCURVE",
"251 167 CURVE SMOOTH",
"229 106 OFFCURVE",
"210 48 OFFCURVE",
"199 0 CURVE",
"328 0 LINE",
"321 14 OFFCURVE",
"324 43 OFFCURVE",
"332 80 CURVE SMOOTH",
"367 246 OFFCURVE",
"472 412 OFFCURVE",
"560 515 CURVE SMOOTH",
"626 592 OFFCURVE",
"697 657 OFFCURVE",
"756 698 CURVE"
);
}
);
width = 684;
}
);
note = Y.script;
unicode = 0059;
},
{
color = 4;
glyphname = Z;
lastChange = "2021-04-19 01:10:12 +0000";
layers = (
{
hints = (
{
horizontal = 1;
place = "{-12, 83}";
type = Stem;
},
{
horizontal = 1;
place = "{88, 40}";
type = Stem;
},
{
horizontal = 1;
place = "{601, 99}";
type = Stem;
},
{
place = "{618, 66}";
type = Stem;
},
{
horizontal = 1;
place = "{588, 112}";
type = Stem;
}
);
layerId = "FDC6D5C2-1E82-4E29-8E0D-3EE46E074C54";
paths = (
{
closed = 1;
nodes = (
"780 708 OFFCURVE",
"717 700 OFFCURVE",
"690 677 CURVE SMOOTH",
"664 655 OFFCURVE",
"565 665 OFFCURVE",
"457 689 CURVE SMOOTH",
"405 701 OFFCURVE",
"323 710 OFFCURVE",
"278 683 CURVE SMOOTH",
"242 661 OFFCURVE",
"176 577 OFFCURVE",
"187 516 CURVE SMOOTH",
"189 505 OFFCURVE",
"203 512 OFFCURVE",
"203 516 CURVE SMOOTH",
"207 564 OFFCURVE",
"258 601 OFFCURVE",
"295 601 CURVE SMOOTH",
"335 600 OFFCURVE",
"417 589 OFFCURVE",
"471 588 CURVE SMOOTH",
"519 587 OFFCURVE",
"604 606 OFFCURVE",
"653 628 CURVE",
"563 538 OFFCURVE",
"484 463 OFFCURVE",
"382 366 CURVE SMOOTH",
"275 264 OFFCURVE",
"144 145 OFFCURVE",
"36 78 CURVE SMOOTH",
"-28 39 OFFCURVE",
"19 -52 OFFCURVE",
"83 10 CURVE SMOOTH",
"133 59 OFFCURVE",
"152 114 OFFCURVE",
"226 75 CURVE SMOOTH",
"248 63 OFFCURVE",
"319 35 OFFCURVE",
"342 23 CURVE SMOOTH",
"392 -3 OFFCURVE",
"465 -16 OFFCURVE",
"527 -12 CURVE SMOOTH",
"642 -5 OFFCURVE",
"699 81 OFFCURVE",
"682 134 CURVE SMOOTH",
"673 162 OFFCURVE",
"644 182 OFFCURVE",
"614 183 CURVE SMOOTH",
"611 183 OFFCURVE",
"603 174 OFFCURVE",
"605 173 CURVE SMOOTH",
"617 165 OFFCURVE",
"621 152 OFFCURVE",
"619 137 CURVE SMOOTH",
"608 24 OFFCURVE",
"344 89 OFFCURVE",
"280 103 CURVE SMOOTH",
"246 111 OFFCURVE",
"216 119 OFFCURVE",
"198 128 CURVE",
"276 205 OFFCURVE",
"357 285 OFFCURVE",
"437 362 CURVE SMOOTH",
"552 472 OFFCURVE",
"681 590 OFFCURVE",
"805 698 CURVE"
);
}
);
width = 688;
}
);
note = Z.script;
unicode = 005A;
},
{
glyphname = bracketleft;
layers = (
{
hints = (
{
horizontal = 1;
place = "{-77, 47}";
type = Stem;
},
{
horizontal = 1;
place = "{664, 48}";
type = Stem;
},
{
place = "{13, 480}";
type = Stem;
}
);
layerId = "FDC6D5C2-1E82-4E29-8E0D-3EE46E074C54";
paths = (
{
closed = 1;
nodes = (
"280 712 LINE",
"261 655 OFFCURVE",
"311 803 OFFCURVE",
"13 -77 CURVE",
"256 -77 LINE",
"272 -29 LINE",
"119 -29 LINE",
"354 664 LINE",
"507 664 LINE",
"523 712 LINE"
);
}
);
width = 455;
}
);
note = bracketleft;
unicode = 005B;
},
{
glyphname = backslash;
layers = (
{
hints = (
{
horizontal = 1;
place = "{702, -20}";
target = down;
type = TopGhost;
},
{
place = "{86, 308}";
type = Stem;
}
);
layerId = "FDC6D5C2-1E82-4E29-8E0D-3EE46E074C54";
paths = (
{
closed = 1;
nodes = (
"170 699 LINE SMOOTH",
"168 706 OFFCURVE",
"84 701 OFFCURVE",
"86 694 CURVE SMOOTH",
"340 -58 LINE SMOOTH",
"342 -65 OFFCURVE",
"426 -60 OFFCURVE",
"424 -53 CURVE SMOOTH"
);
}
);
width = 455;
}
);
note = backslash;
unicode = 005C;
},
{
glyphname = bracketright;
layers = (
{
hints = (
{
horizontal = 1;
place = "{-77, 47}";
type = Stem;
},
{
horizontal = 1;
place = "{664, 48}";
type = Stem;
},
{
place = "{13, 480}";
type = Stem;
}
);
layerId = "FDC6D5C2-1E82-4E29-8E0D-3EE46E074C54";
paths = (
{
closed = 1;
nodes = (
"280 712 LINE",
"264 664 LINE",
"417 664 LINE",
"182 -29 LINE",
"29 -29 LINE",
"13 -77 LINE",
"256 -77 LINE",
"523 712 LINE"
);
}
);
width = 455;
}
);
note = bracketright;
unicode = 005D;
},
{
glyphname = asciicircum;
layers = (
{
hints = (
{
horizontal = 1;
place = "{680, 67}";
type = Stem;
},
{
place = "{552, 47}";
type = Stem;
}
);
layerId = "FDC6D5C2-1E82-4E29-8E0D-3EE46E074C54";
paths = (
{
closed = 1;
nodes = (
"479 551 OFFCURVE",
"445 598 OFFCURVE",
"415 662 CURVE SMOOTH",
"405 682 OFFCURVE",
"400 688 OFFCURVE",
"379 665 CURVE SMOOTH",
"313 594 OFFCURVE",
"240 526 OFFCURVE",
"163 463 CURVE SMOOTH",
"156 457 OFFCURVE",
"180 458 OFFCURVE",
"189 464 CURVE",
"225 482 OFFCURVE",
"341 588 OFFCURVE",
"378 625 CURVE",
"400 577 OFFCURVE",
"445 494 OFFCURVE",
"483 463 CURVE SMOOTH",
"494 454 OFFCURVE",
"532 485 OFFCURVE",
"527 491 CURVE SMOOTH"
);
}
);
width = 531;
}
);
note = asciicircum;
unicode = 005E;
},
{
glyphname = underscore;
layers = (
{
hints = (
{
horizontal = 1;
place = "{-166, 66}";
type = Stem;
},
{
place = "{-47, 805}";
type = Stem;
}
);
layerId = "FDC6D5C2-1E82-4E29-8E0D-3EE46E074C54";
paths = (
{
closed = 1;
nodes = (
"0 -100 LINE SMOOTH",
"-15 -100 OFFCURVE",
"-54 -165 OFFCURVE",
"-46 -165 CURVE SMOOTH",
"712 -165 LINE SMOOTH",
"726 -165 OFFCURVE",
"766 -100 OFFCURVE",
"758 -100 CURVE SMOOTH"
);
}
);
width = 758;
}
);
note = underscore;
unicode = 005F;
},
{
glyphname = grave;
layers = (
{
hints = (
{
horizontal = 1;
place = "{525, 138}";
type = Stem;
},
{
place = "{300, 240}";
type = Stem;
}
);
layerId = "FDC6D5C2-1E82-4E29-8E0D-3EE46E074C54";
paths = (
{
closed = 1;
nodes = (
"402 585 OFFCURVE",
"487 542 OFFCURVE",
"503 531 CURVE SMOOTH",
"507 529 OFFCURVE",
"528 540 OFFCURVE",
"527 543 CURVE",
"512 550 OFFCURVE",
"436 609 OFFCURVE",
"387 644 CURVE SMOOTH",
"373 654 OFFCURVE",
"315 621 OFFCURVE",
"330 615 CURVE SMOOTH"
);
}
);
width = 531;
}
);
note = grave;
unicode = 0060;
},
{
glyphname = a;
layers = (
{
hints = (
{
horizontal = 1;
place = "{-7, 84}";
type = Stem;
},
{
horizontal = 1;
place = "{336, 15}";
type = Stem;
},
{
horizontal = 1;
place = "{366, 37}";
type = Stem;
},
{
place = "{27, 97}";
type = Stem;
},
{
place = "{364, 7}";
type = Stem;
},
{
horizontal = 1;
place = "{400, -20}";
target = down;
type = TopGhost;
}
);
layerId = "FDC6D5C2-1E82-4E29-8E0D-3EE46E074C54";
paths = (
{
closed = 1;
nodes = (
"563 230 OFFCURVE",
"555 272 OFFCURVE",
"542 248 CURVE SMOOTH",
"515 196 OFFCURVE",
"481 134 OFFCURVE",
"434 97 CURVE SMOOTH",
"383 56 OFFCURVE",
"367 81 OFFCURVE",
"382 138 CURVE SMOOTH",
"398 200 OFFCURVE",
"429 270 OFFCURVE",
"465 339 CURVE SMOOTH",
"472 353 OFFCURVE",
"494 390 OFFCURVE",
"505 399 CURVE",
"493 398 OFFCURVE",
"459 400 OFFCURVE",
"445 400 CURVE SMOOTH",
"416 400 OFFCURVE",
"392 377 OFFCURVE",
"373 348 CURVE",
"371 346 OFFCURVE",
"369 345 OFFCURVE",
"368 343 CURVE",
"355 391 OFFCURVE",
"305 404 OFFCURVE",
"271 404 CURVE SMOOTH",
"129 404 OFFCURVE",
"28 227 OFFCURVE",
"28 89 CURVE SMOOTH",
"28 22 OFFCURVE",
"56 -3 OFFCURVE",
"93 -3 CURVE SMOOTH",
"140 -4 OFFCURVE",
"189 35 OFFCURVE",
"233 88 CURVE SMOOTH",
"258 117 OFFCURVE",
"283 158 OFFCURVE",
"306 199 CURVE",
"299 178 OFFCURVE",
"295 159 OFFCURVE",
"291 140 CURVE SMOOTH",
"278 68 OFFCURVE",
"281 -6 OFFCURVE",
"339 -6 CURVE SMOOTH",
"420 -6 OFFCURVE",
"507 137 OFFCURVE",
"545 201 CURVE SMOOTH"
);
},
{
closed = 1;
nodes = (
"358 327 OFFCURVE",
"332 282 OFFCURVE",
"273 189 CURVE SMOOTH",
"236 132 OFFCURVE",
"177 70 OFFCURVE",
"140 81 CURVE SMOOTH",
"95 94 OFFCURVE",
"160 257 OFFCURVE",
"227 326 CURVE SMOOTH",
"266 366 OFFCURVE",
"346 389 OFFCURVE",
"362 334 CURVE"
);
}
);
width = 473;
}
);
note = a;
unicode = 0061;
},
{
glyphname = b;
layers = (
{
hints = (
{
horizontal = 1;
place = "{24, 47}";
type = Stem;
},
{
horizontal = 1;
place = "{126, 34}";
type = Stem;
},
{
horizontal = 1;
place = "{403, -20}";
target = down;
type = TopGhost;
},
{
horizontal = 1;
place = "{653, -20}";
target = down;
type = TopGhost;
},
{
horizontal = 1;
place = "{719, 25}";
type = Stem;
},
{
place = "{38, 79}";
type = Stem;
},
{
place = "{311, 98}";
type = Stem;
},
{
horizontal = 1;
place = "{-9, 35}";
type = Stem;
},
{
horizontal = 1;
place = "{319, 84}";
type = Stem;
},
{
place = "{31, 80}";
type = Stem;
}
);
layerId = "FDC6D5C2-1E82-4E29-8E0D-3EE46E074C54";
paths = (
{
closed = 1;
nodes = (
"534 232 OFFCURVE",
"526 274 OFFCURVE",
"513 249 CURVE SMOOTH",
"496 216 OFFCURVE",
"470 172 OFFCURVE",
"443 138 CURVE SMOOTH",
"427 118 OFFCURVE",
"409 94 OFFCURVE",
"389 81 CURVE SMOOTH",
"355 59 OFFCURVE",
"330 77 OFFCURVE",
"328 108 CURVE",
"376 167 OFFCURVE",
"410 241 OFFCURVE",
"410 312 CURVE SMOOTH",
"410 378 OFFCURVE",
"381 404 OFFCURVE",
"344 404 CURVE SMOOTH",
"298 405 OFFCURVE",
"248 366 OFFCURVE",
"204 313 CURVE SMOOTH",
"182 286 OFFCURVE",
"159 250 OFFCURVE",
"138 213 CURVE",
"184 389 OFFCURVE",
"292 616 OFFCURVE",
"344 654 CURVE",
"338 653 OFFCURVE",
"313 653 OFFCURVE",
"298 653 CURVE SMOOTH",
"282 653 OFFCURVE",
"266 652 OFFCURVE",
"255 649 CURVE SMOOTH",
"231 643 OFFCURVE",
"216 621 OFFCURVE",
"181 554 CURVE SMOOTH",
"126 447 OFFCURVE",
"57 237 OFFCURVE",
"36 149 CURVE SMOOTH",
"10 38 OFFCURVE",
"27 -4 OFFCURVE",
"90 -9 CURVE SMOOTH",
"158 -14 OFFCURVE",
"205 1 OFFCURVE",
"248 31 CURVE SMOOTH",
"264 43 OFFCURVE",
"280 56 OFFCURVE",
"296 72 CURVE",
"306 42 OFFCURVE",
"336 30 OFFCURVE",
"362 34 CURVE SMOOTH",
"430 46 OFFCURVE",
"483 148 OFFCURVE",
"516 202 CURVE SMOOTH"
);
},
{
closed = 1;
nodes = (
"332 310 OFFCURVE",
"303 214 OFFCURVE",
"258 139 CURVE SMOOTH",
"228 88 OFFCURVE",
"172 26 OFFCURVE",
"138 26 CURVE SMOOTH",
"123 26 OFFCURVE",
"114 35 OFFCURVE",
"111 49 CURVE SMOOTH",
"93 122 OFFCURVE",
"190 260 OFFCURVE",
"243 300 CURVE SMOOTH",
"263 316 OFFCURVE",
"282 324 OFFCURVE",
"298 319 CURVE SMOOTH"
);
}
);
width = 443;
}
);
note = b;
unicode = 0062;
},
{
glyphname = c;
layers = (
{
hints = (
{
horizontal = 1;
place = "{-10, 40}";
type = Stem;
},
{
horizontal = 1;
place = "{238, 50}";
type = Stem;
},
{
horizontal = 1;
place = "{367, 30}";
type = Stem;
},
{
place = "{33, 91}";
type = Stem;
},
{
place = "{329, 53}";
type = Stem;
}
);
layerId = "FDC6D5C2-1E82-4E29-8E0D-3EE46E074C54";
paths = (
{
closed = 1;
nodes = (
"448 230 OFFCURVE",
"440 274 OFFCURVE",
"427 249 CURVE SMOOTH",
"411 217 OFFCURVE",
"387 176 OFFCURVE",
"358 139 CURVE SMOOTH",
"314 81 OFFCURVE",
"257 31 OFFCURVE",
"195 31 CURVE SMOOTH",
"110 31 OFFCURVE",
"109 133 OFFCURVE",
"152 227 CURVE SMOOTH",
"183 293 OFFCURVE",
"233 351 OFFCURVE",
"282 365 CURVE SMOOTH",
"336 381 OFFCURVE",
"339 337 OFFCURVE",
"317 306 CURVE SMOOTH",
"307 291 OFFCURVE",
"289 290 OFFCURVE",
"281 289 CURVE",
"273 255 OFFCURVE",
"294 238 OFFCURVE",
"319 238 CURVE SMOOTH",
"358 238 OFFCURVE",
"383 278 OFFCURVE",
"383 318 CURVE SMOOTH",
"383 360 OFFCURVE",
"346 398 OFFCURVE",
"284 398 CURVE SMOOTH",
"184 398 OFFCURVE",
"118 337 OFFCURVE",
"71 253 CURVE SMOOTH",
"13 147 OFFCURVE",
"9 -10 OFFCURVE",
"164 -10 CURVE SMOOTH",
"254 -10 OFFCURVE",
"312 33 OFFCURVE",
"358 92 CURVE SMOOTH",
"384 125 OFFCURVE",
"407 163 OFFCURVE",
"430 201 CURVE SMOOTH"
);
}
);
width = 358;
}
);
note = c;
unicode = 0063;
},
{
glyphname = d;
layers = (
{
hints = (
{
horizontal = 1;
place = "{-4, 21}";
target = up;
type = BottomGhost;
},
{
horizontal = 1;
place = "{366, 37}";
type = Stem;
},
{
place = "{27, 97}";
type = Stem;
},
{
place = "{364, 7}";
type = Stem;
},
{
place = "{289, 90}";
type = Stem;
}
);
layerId = "FDC6D5C2-1E82-4E29-8E0D-3EE46E074C54";
paths = (
{
closed = 1;
nodes = (
"595 653 OFFCURVE",
"570 653 OFFCURVE",
"554 653 CURVE SMOOTH",
"538 653 OFFCURVE",
"523 652 OFFCURVE",
"511 649 CURVE SMOOTH",
"488 643 OFFCURVE",
"479 631 OFFCURVE",
"446 563 CURVE SMOOTH",
"429 528 OFFCURVE",
"407 460 OFFCURVE",
"375 390 CURVE SMOOTH",
"371 382 OFFCURVE",
"367 371 OFFCURVE",
"361 360 CURVE",
"342 394 OFFCURVE",
"300 404 OFFCURVE",
"271 404 CURVE SMOOTH",
"129 404 OFFCURVE",
"28 227 OFFCURVE",
"28 89 CURVE SMOOTH",
"28 21 OFFCURVE",
"58 -3 OFFCURVE",
"95 -3 CURVE SMOOTH",
"181 -3 OFFCURVE",
"267 120 OFFCURVE",
"318 222 CURVE",
"307 188 OFFCURVE",
"299 159 OFFCURVE",
"296 139 CURVE SMOOTH",
"283 67 OFFCURVE",
"284 -6 OFFCURVE",
"342 -6 CURVE SMOOTH",
"389 -6 OFFCURVE",
"448 55 OFFCURVE",
"476 92 CURVE SMOOTH",
"503 129 OFFCURVE",
"530 171 OFFCURVE",
"549 203 CURVE SMOOTH",
"567 232 OFFCURVE",
"557 274 OFFCURVE",
"545 249 CURVE SMOOTH",
"528 214 OFFCURVE",
"503 173 OFFCURVE",
"476 138 CURVE SMOOTH",
"460 118 OFFCURVE",
"384 37 OFFCURVE",
"379 102 CURVE SMOOTH",
"372 206 OFFCURVE",
"532 603 OFFCURVE",
"601 654 CURVE"
);
},
{
closed = 1;
nodes = (
"334 301 OFFCURVE",
"305 240 OFFCURVE",
"290 216 CURVE SMOOTH",
"235 128 OFFCURVE",
"177 70 OFFCURVE",
"140 81 CURVE SMOOTH",
"95 94 OFFCURVE",
"160 257 OFFCURVE",
"227 326 CURVE SMOOTH",
"262 362 OFFCURVE",
"331 384 OFFCURVE",
"356 348 CURVE"
);
}
);
width = 476;
}
);
note = d;
unicode = 0064;
},
{
glyphname = e;
layers = (
{
hints = (
{
horizontal = 1;
place = "{-10, 40}";
type = Stem;
},
{
horizontal = 1;
place = "{193, 28}";
type = Stem;
},
{
horizontal = 1;
place = "{367, 30}";
type = Stem;
},
{
place = "{33, 91}";
type = Stem;
},
{
place = "{329, 53}";
type = Stem;
}
);
layerId = "FDC6D5C2-1E82-4E29-8E0D-3EE46E074C54";
paths = (
{
closed = 1;
nodes = (
"449 234 OFFCURVE",
"442 278 OFFCURVE",
"429 253 CURVE SMOOTH",
"398 194 OFFCURVE",
"385 172 OFFCURVE",
"358 138 CURVE SMOOTH",
"322 91 OFFCURVE",
"257 31 OFFCURVE",
"195 31 CURVE SMOOTH",
"117 31 OFFCURVE",
"109 118 OFFCURVE",
"143 205 CURVE",
"171 190 OFFCURVE",
"239 189 OFFCURVE",
"291 208 CURVE SMOOTH",
"345 228 OFFCURVE",
"383 267 OFFCURVE",
"383 318 CURVE SMOOTH",
"383 360 OFFCURVE",
"346 398 OFFCURVE",
"284 398 CURVE SMOOTH",
"200 398 OFFCURVE",
"128 346 OFFCURVE",
"83 275 CURVE SMOOTH",
"46 217 OFFCURVE",
"23 138 OFFCURVE",
"40 78 CURVE SMOOTH",
"67 -21 OFFCURVE",
"189 -27 OFFCURVE",
"267 14 CURVE SMOOTH",
"303 32 OFFCURVE",
"334 60 OFFCURVE",
"358 92 CURVE SMOOTH",
"385 128 OFFCURVE",
"412 170 OFFCURVE",
"431 203 CURVE SMOOTH"
);
},
{
closed = 1;
nodes = (
"327 302 OFFCURVE",
"304 272 OFFCURVE",
"273 251 CURVE SMOOTH",
"248 233 OFFCURVE",
"205 212 OFFCURVE",
"176 227 CURVE SMOOTH",
"143 243 OFFCURVE",
"207 312 OFFCURVE",
"219 324 CURVE SMOOTH",
"239 344 OFFCURVE",
"261 359 OFFCURVE",
"282 365 CURVE SMOOTH",
"318 376 OFFCURVE",
"331 359 OFFCURVE",
"330 339 CURVE SMOOTH"
);
}
);
width = 358;
}
);
note = e;
unicode = 0065;
},
{
glyphname = f;
layers = (
{
hints = (
{
horizontal = 1;
place = "{-228, 76}";
type = Stem;
},
{
horizontal = 1;
place = "{38, 140}";
type = Stem;
},
{
horizontal = 1;
place = "{716, 27}";
type = Stem;
},
{
place = "{-22, 88}";
type = Stem;
},
{
place = "{398, 38}";
type = Stem;
}
);
layerId = "FDC6D5C2-1E82-4E29-8E0D-3EE46E074C54";
paths = (
{
closed = 1;
nodes = (
"87 223 OFFCURVE",
"111 271 OFFCURVE",
"133 313 CURVE SMOOTH",
"147 340 OFFCURVE",
"177 345 OFFCURVE",
"201 345 CURVE SMOOTH",
"229 345 LINE",
"180 217 OFFCURVE",
"124 78 OFFCURVE",
"63 -46 CURVE SMOOTH",
"35 -101 OFFCURVE",
"-24 -221 OFFCURVE",
"-95 -220 CURVE SMOOTH",
"-111 -220 OFFCURVE",
"-124 -202 OFFCURVE",
"-119 -179 CURVE SMOOTH",
"-117 -166 OFFCURVE",
"-108 -151 OFFCURVE",
"-100 -144 CURVE",
"-91 -113 OFFCURVE",
"-122 -99 OFFCURVE",
"-145 -112 CURVE SMOOTH",
"-187 -136 OFFCURVE",
"-192 -242 OFFCURVE",
"-87 -248 CURVE SMOOTH",
"101 -261 OFFCURVE",
"228 99 OFFCURVE",
"285 262 CURVE SMOOTH",
"314 346 LINE",
"359 347 OFFCURVE",
"404 349 OFFCURVE",
"435 354 CURVE SMOOTH",
"479 361 OFFCURVE",
"498 375 OFFCURVE",
"508 400 CURVE",
"495 392 OFFCURVE",
"409 385 OFFCURVE",
"328 386 CURVE",
"359 472 OFFCURVE",
"406 612 OFFCURVE",
"470 686 CURVE SMOOTH",
"496 716 OFFCURVE",
"531 726 OFFCURVE",
"556 709 CURVE SMOOTH",
"569 701 OFFCURVE",
"574 685 OFFCURVE",
"569 667 CURVE SMOOTH",
"565 653 OFFCURVE",
"554 637 OFFCURVE",
"544 630 CURVE",
"531 596 OFFCURVE",
"567 581 OFFCURVE",
"596 595 CURVE SMOOTH",
"625 609 OFFCURVE",
"640 656 OFFCURVE",
"630 686 CURVE SMOOTH",
"614 730 OFFCURVE",
"578 743 OFFCURVE",
"529 742 CURVE SMOOTH",
"400 742 OFFCURVE",
"338 627 OFFCURVE",
"293 511 CURVE SMOOTH",
"278 473 OFFCURVE",
"263 432 OFFCURVE",
"247 390 CURVE",
"159 397 LINE SMOOTH",
"135 399 OFFCURVE",
"131 393 OFFCURVE",
"125 375 CURVE SMOOTH",
"113 339 OFFCURVE",
"80 265 OFFCURVE",
"51 215 CURVE SMOOTH",
"44 202 OFFCURVE",
"41 152 OFFCURVE",
"57 177 CURVE SMOOTH"
);
}
);
width = 339;
}
);
note = f;
unicode = 0066;
},
{
glyphname = g;
layers = (
{
hints = (
{
horizontal = 1;
place = "{-235, 28}";
type = Stem;
},
{
horizontal = 1;
place = "{-4, 21}";
target = up;
type = BottomGhost;
},
{
horizontal = 1;
place = "{23, 48}";
type = Stem;
},
{
horizontal = 1;
place = "{336, 15}";
type = Stem;
},
{
horizontal = 1;
place = "{366, 37}";
type = Stem;
},
{
place = "{30, 97}";
type = Stem;
},
{
place = "{367, 7}";
type = Stem;
},
{
place = "{-38, 71}";
type = Stem;
}
);
layerId = "FDC6D5C2-1E82-4E29-8E0D-3EE46E074C54";
paths = (
{
closed = 1;
nodes = (
"472 400 LINE SMOOTH",
"406 400 OFFCURVE",
"388 384 OFFCURVE",
"369 344 CURVE",
"357 391 OFFCURVE",
"307 404 OFFCURVE",
"273 404 CURVE SMOOTH",
"131 404 OFFCURVE",
"30 227 OFFCURVE",
"30 89 CURVE SMOOTH",
"30 22 OFFCURVE",
"59 -3 OFFCURVE",
"96 -3 CURVE SMOOTH",
"143 -4 OFFCURVE",
"192 35 OFFCURVE",
"236 88 CURVE SMOOTH",
"265 122 OFFCURVE",
"295 172 OFFCURVE",
"320 219 CURVE",
"289 133 OFFCURVE",
"258 38 OFFCURVE",
"224 -45 CURVE SMOOTH",
"204 -92 OFFCURVE",
"179 -145 OFFCURVE",
"136 -179 CURVE SMOOTH",
"70 -231 OFFCURVE",
"10 -202 OFFCURVE",
"42 -140 CURVE SMOOTH",
"44 -136 OFFCURVE",
"51 -127 OFFCURVE",
"54 -125 CURVE",
"48 -111 OFFCURVE",
"28 -100 OFFCURVE",
"8 -105 CURVE SMOOTH",
"-19 -112 OFFCURVE",
"-36 -140 OFFCURVE",
"-38 -166 CURVE SMOOTH",
"-43 -228 OFFCURVE",
"23 -240 OFFCURVE",
"74 -234 CURVE SMOOTH",
"145 -226 OFFCURVE",
"217 -182 OFFCURVE",
"265 -121 CURVE SMOOTH",
"317 -56 OFFCURVE",
"352 50 OFFCURVE",
"378 122 CURVE SMOOTH",
"396 174 OFFCURVE",
"421 236 OFFCURVE",
"438 279 CURVE SMOOTH",
"460 337 OFFCURVE",
"487 384 OFFCURVE",
"512 400 CURVE"
);
},
{
closed = 1;
nodes = (
"365 334 OFFCURVE",
"365 333 OFFCURVE",
"364 333 CURVE",
"358 321 OFFCURVE",
"331 275 OFFCURVE",
"275 189 CURVE SMOOTH",
"238 132 OFFCURVE",
"179 70 OFFCURVE",
"142 81 CURVE SMOOTH",
"97 94 OFFCURVE",
"163 257 OFFCURVE",
"230 326 CURVE SMOOTH",
"268 366 OFFCURVE",
"349 389 OFFCURVE",
"365 335 CURVE"
);
}
);
width = 436;
}
);
note = g;
unicode = 0067;
},
{
glyphname = h;
layers = (
{
hints = (
{
horizontal = 1;
place = "{-7, 84}";
type = Stem;
},
{
horizontal = 1;
place = "{358, 50}";
type = Stem;
},
{
horizontal = 1;
place = "{719, 25}";
type = Stem;
},
{
place = "{244, 98}";
type = Stem;
},
{
place = "{401, 36}";
type = Stem;
},
{
horizontal = 1;
place = "{0, 21}";
target = up;
type = BottomGhost;
}
);
layerId = "FDC6D5C2-1E82-4E29-8E0D-3EE46E074C54";
paths = (
{
closed = 1;
nodes = (
"528 231 OFFCURVE",
"520 274 OFFCURVE",
"508 250 CURVE SMOOTH",
"480 196 OFFCURVE",
"434 114 OFFCURVE",
"378 83 CURVE SMOOTH",
"338 61 OFFCURVE",
"338 99 OFFCURVE",
"343 126 CURVE SMOOTH",
"354 181 OFFCURVE",
"392 271 OFFCURVE",
"407 309 CURVE SMOOTH",
"441 392 OFFCURVE",
"398 425 OFFCURVE",
"314 401 CURVE SMOOTH",
"291 394 OFFCURVE",
"260 378 OFFCURVE",
"216 346 CURVE",
"236 368 OFFCURVE",
"287 426 OFFCURVE",
"302 445 CURVE SMOOTH",
"344 497 OFFCURVE",
"386 562 OFFCURVE",
"410 610 CURVE SMOOTH",
"431 650 OFFCURVE",
"467 739 OFFCURVE",
"392 744 CURVE SMOOTH",
"312 750 OFFCURVE",
"243 661 OFFCURVE",
"190 556 CURVE SMOOTH",
"113 404 OFFCURVE",
"65 234 OFFCURVE",
"4 75 CURVE SMOOTH",
"-9 42 OFFCURVE",
"-20 0 OFFCURVE",
"-20 0 CURVE",
"77 0 LINE",
"84 23 OFFCURVE",
"92 47 OFFCURVE",
"100 70 CURVE SMOOTH",
"113 106 OFFCURVE",
"126 159 OFFCURVE",
"153 217 CURVE SMOOTH",
"165 243 OFFCURVE",
"181 270 OFFCURVE",
"199 292 CURVE SMOOTH",
"208 304 OFFCURVE",
"237 332 OFFCURVE",
"265 346 CURVE SMOOTH",
"340 384 OFFCURVE",
"321 323 OFFCURVE",
"306 287 CURVE SMOOTH",
"278 221 OFFCURVE",
"250 136 OFFCURVE",
"244 78 CURVE SMOOTH",
"240 37 OFFCURVE",
"249 -6 OFFCURVE",
"302 -6 CURVE SMOOTH",
"385 -6 OFFCURVE",
"472 137 OFFCURVE",
"510 201 CURVE SMOOTH"
);
},
{
closed = 1;
nodes = (
"423 719 OFFCURVE",
"380 630 OFFCURVE",
"374 617 CURVE SMOOTH",
"328 523 OFFCURVE",
"254 432 OFFCURVE",
"187 353 CURVE",
"226 459 OFFCURVE",
"277 577 OFFCURVE",
"323 653 CURVE SMOOTH",
"347 693 OFFCURVE",
"371 719 OFFCURVE",
"389 719 CURVE SMOOTH"
);
}
);
width = 438;
}
);
note = h;
unicode = 0068;
},
{
glyphname = i;
layers = (
{
hints = (
{
horizontal = 1;
place = "{-7, 85}";
type = Stem;
},
{
horizontal = 1;
place = "{400, -20}";
target = down;
type = TopGhost;
},
{
place = "{25, 93}";
type = Stem;
},
{
place = "{211, 126}";
type = Stem;
}
);
layerId = "FDC6D5C2-1E82-4E29-8E0D-3EE46E074C54";
paths = (
{
closed = 1;
nodes = (
"362 557 OFFCURVE",
"333 607 OFFCURVE",
"286 593 CURVE SMOOTH",
"255 584 OFFCURVE",
"226 544 OFFCURVE",
"227 512 CURVE SMOOTH",
"228 498 OFFCURVE",
"236 486 OFFCURVE",
"253 480 CURVE",
"262 500 OFFCURVE",
"292 535 OFFCURVE",
"322 532 CURVE"
);
},
{
closed = 1;
nodes = (
"306 230 OFFCURVE",
"299 273 OFFCURVE",
"286 248 CURVE SMOOTH",
"269 215 OFFCURVE",
"244 172 OFFCURVE",
"217 138 CURVE SMOOTH",
"205 122 OFFCURVE",
"191 108 OFFCURVE",
"177 97 CURVE SMOOTH",
"123 54 OFFCURVE",
"110 88 OFFCURVE",
"122 138 CURVE SMOOTH",
"138 200 OFFCURVE",
"171 270 OFFCURVE",
"206 339 CURVE SMOOTH",
"213 353 OFFCURVE",
"234 390 OFFCURVE",
"246 399 CURVE",
"234 398 OFFCURVE",
"200 400 OFFCURVE",
"186 400 CURVE SMOOTH",
"124 400 OFFCURVE",
"83 295 OFFCURVE",
"65 250 CURVE SMOOTH",
"29 158 OFFCURVE",
"13 69 OFFCURVE",
"36 21 CURVE SMOOTH",
"47 -1 OFFCURVE",
"63 -6 OFFCURVE",
"81 -6 CURVE SMOOTH",
"129 -6 OFFCURVE",
"189 54 OFFCURVE",
"217 92 CURVE SMOOTH",
"244 128 OFFCURVE",
"270 169 OFFCURVE",
"289 201 CURVE SMOOTH"
);
}
);
width = 217;
}
);
note = i;
unicode = 0069;
},
{
glyphname = j;
layers = (
{
hints = (
{
horizontal = 1;
place = "{-235, 27}";
type = Stem;
},
{
horizontal = 1;
place = "{23, 48}";
type = Stem;
},
{
horizontal = 1;
place = "{389, -20}";
target = down;
type = TopGhost;
},
{
place = "{-298, 71}";
type = Stem;
},
{
place = "{211, 126}";
type = Stem;
}
);
layerId = "FDC6D5C2-1E82-4E29-8E0D-3EE46E074C54";
paths = (
{
closed = 1;
nodes = (
"206 390 LINE SMOOTH",
"121 390 OFFCURVE",
"115 363 OFFCURVE",
"86 292 CURVE SMOOTH",
"43 187 OFFCURVE",
"10 65 OFFCURVE",
"-36 -46 CURVE SMOOTH",
"-56 -93 OFFCURVE",
"-80 -147 OFFCURVE",
"-123 -180 CURVE SMOOTH",
"-189 -232 OFFCURVE",
"-249 -202 OFFCURVE",
"-217 -140 CURVE SMOOTH",
"-215 -136 OFFCURVE",
"-208 -127 OFFCURVE",
"-205 -125 CURVE",
"-211 -111 OFFCURVE",
"-231 -100 OFFCURVE",
"-251 -105 CURVE SMOOTH",
"-279 -112 OFFCURVE",
"-295 -140 OFFCURVE",
"-297 -166 CURVE SMOOTH",
"-303 -228 OFFCURVE",
"-236 -241 OFFCURVE",
"-186 -235 CURVE SMOOTH",
"0 -215 OFFCURVE",
"72 -11 OFFCURVE",
"119 121 CURVE SMOOTH",
"139 176 OFFCURVE",
"155 226 OFFCURVE",
"172 269 CURVE SMOOTH",
"194 327 OFFCURVE",
"221 374 OFFCURVE",
"246 390 CURVE"
);
},
{
closed = 1;
nodes = (
"362 557 OFFCURVE",
"333 607 OFFCURVE",
"286 593 CURVE SMOOTH",
"255 584 OFFCURVE",
"226 544 OFFCURVE",
"227 512 CURVE SMOOTH",
"228 498 OFFCURVE",
"236 486 OFFCURVE",
"253 480 CURVE",
"262 500 OFFCURVE",
"292 535 OFFCURVE",
"322 532 CURVE"
);
}
);
width = 215;
}
);
note = j;
unicode = 006A;
},
{
glyphname = k;
layers = (
{
hints = (
{
horizontal = 1;
place = "{-7, 79}";
type = Stem;
},
{
horizontal = 1;
place = "{329, 64}";
type = Stem;
},
{
place = "{176, 90}";
type = Stem;
},
{
place = "{334, 93}";
type = Stem;
},
{
horizontal = 1;
place = "{0, 21}";
target = up;
type = BottomGhost;
}
);
layerId = "FDC6D5C2-1E82-4E29-8E0D-3EE46E074C54";
paths = (
{
closed = 1;
nodes = (
"500 228 OFFCURVE",
"493 273 OFFCURVE",
"480 248 CURVE SMOOTH",
"463 215 OFFCURVE",
"438 172 OFFCURVE",
"411 138 CURVE SMOOTH",
"399 122 OFFCURVE",
"385 108 OFFCURVE",
"371 97 CURVE SMOOTH",
"302 42 OFFCURVE",
"285 87 OFFCURVE",
"274 154 CURVE SMOOTH",
"271 173 OFFCURVE",
"269 191 OFFCURVE",
"267 210 CURVE",
"286 213 OFFCURVE",
"313 220 OFFCURVE",
"328 226 CURVE SMOOTH",
"369 241 OFFCURVE",
"404 270 OFFCURVE",
"421 311 CURVE SMOOTH",
"429 332 OFFCURVE",
"431 354 OFFCURVE",
"418 373 CURVE SMOOTH",
"394 406 OFFCURVE",
"320 402 OFFCURVE",
"262 354 CURVE SMOOTH",
"217 318 OFFCURVE",
"179 284 OFFCURVE",
"144 239 CURVE",
"162 289 LINE",
"196 322 OFFCURVE",
"256 385 OFFCURVE",
"291 428 CURVE SMOOTH",
"336 483 OFFCURVE",
"381 551 OFFCURVE",
"408 602 CURVE SMOOTH",
"430 644 OFFCURVE",
"469 737 OFFCURVE",
"388 743 CURVE SMOOTH",
"278 750 OFFCURVE",
"190 551 OFFCURVE",
"152 471 CURVE SMOOTH",
"116 397 OFFCURVE",
"80 291 OFFCURVE",
"47 189 CURVE SMOOTH",
"25 120 OFFCURVE",
"-8 39 OFFCURVE",
"-29 0 CURVE",
"32 0 LINE SMOOTH",
"42 0 OFFCURVE",
"51 5 OFFCURVE",
"59 13 CURVE SMOOTH",
"87 39 OFFCURVE",
"126 139 OFFCURVE",
"149 180 CURVE SMOOTH",
"180 234 OFFCURVE",
"236 324 OFFCURVE",
"295 330 CURVE SMOOTH",
"348 335 OFFCURVE",
"341 282 OFFCURVE",
"311 257 CURVE SMOOTH",
"285 234 OFFCURVE",
"245 225 OFFCURVE",
"207 224 CURVE SMOOTH",
"196 224 OFFCURVE",
"190 218 OFFCURVE",
"184 195 CURVE SMOOTH",
"170 143 OFFCURVE",
"177 70 OFFCURVE",
"200 27 CURVE SMOOTH",
"231 -31 OFFCURVE",
"307 -5 OFFCURVE",
"347 26 CURVE SMOOTH",
"372 46 OFFCURVE",
"396 72 OFFCURVE",
"411 92 CURVE SMOOTH",
"438 128 OFFCURVE",
"463 167 OFFCURVE",
"482 199 CURVE SMOOTH"
);
},
{
closed = 1;
nodes = (
"421 717 OFFCURVE",
"375 623 OFFCURVE",
"368 610 CURVE SMOOTH",
"323 520 OFFCURVE",
"254 434 OFFCURVE",
"188 357 CURVE",
"241 493 OFFCURVE",
"336 717 OFFCURVE",
"384 717 CURVE SMOOTH"
);
}
);
width = 411;
}
);
note = k;
unicode = 006B;
},
{
glyphname = l;
layers = (
{
hints = (
{
horizontal = 1;
place = "{-7, 71}";
type = Stem;
},
{
horizontal = 1;
place = "{719, 25}";
type = Stem;
},
{
place = "{32, 85}";
type = Stem;
},
{
place = "{399, 36}";
type = Stem;
}
);
layerId = "FDC6D5C2-1E82-4E29-8E0D-3EE46E074C54";
paths = (
{
closed = 1;
nodes = (
"436 650 OFFCURVE",
"465 739 OFFCURVE",
"390 744 CURVE SMOOTH",
"231 755 OFFCURVE",
"119 398 OFFCURVE",
"79 277 CURVE SMOOTH",
"56 206 OFFCURVE",
"38 140 OFFCURVE",
"32 90 CURVE SMOOTH",
"26 31 OFFCURVE",
"45 -6 OFFCURVE",
"87 -6 CURVE SMOOTH",
"143 -6 OFFCURVE",
"216 52 OFFCURVE",
"246 92 CURVE SMOOTH",
"273 128 OFFCURVE",
"299 169 OFFCURVE",
"318 201 CURVE SMOOTH",
"335 230 OFFCURVE",
"328 273 OFFCURVE",
"315 248 CURVE SMOOTH",
"298 215 OFFCURVE",
"273 172 OFFCURVE",
"246 138 CURVE SMOOTH",
"235 124 OFFCURVE",
"207 93 OFFCURVE",
"181 77 CURVE SMOOTH",
"147 56 OFFCURVE",
"116 57 OFFCURVE",
"124 109 CURVE SMOOTH",
"129 146 OFFCURVE",
"142 211 OFFCURVE",
"156 250 CURVE SMOOTH",
"172 296 LINE",
"193 316 OFFCURVE",
"268 395 OFFCURVE",
"307 445 CURVE SMOOTH",
"349 497 OFFCURVE",
"391 562 OFFCURVE",
"415 610 CURVE SMOOTH"
);
},
{
closed = 1;
nodes = (
"394 719 LINE SMOOTH",
"428 719 OFFCURVE",
"385 630 OFFCURVE",
"379 617 CURVE SMOOTH",
"333 523 OFFCURVE",
"259 432 OFFCURVE",
"192 353 CURVE",
"231 459 OFFCURVE",
"275 577 OFFCURVE",
"321 653 CURVE SMOOTH",
"345 693 OFFCURVE",
"369 719 OFFCURVE",
"387 719 CURVE SMOOTH"
);
}
);
width = 246;
}
);
note = l;
unicode = 006C;
},
{
glyphname = m;
layers = (
{
hints = (
{
horizontal = 1;
place = "{-7, 84}";
type = Stem;
},
{
horizontal = 1;
place = "{399, -20}";
target = down;
type = TopGhost;
},
{
place = "{188, 12}";
type = Stem;
},
{
place = "{407, 10}";
type = Stem;
},
{
place = "{546, 100}";
type = Stem;
},
{
horizontal = 1;
place = "{358, 47}";
type = Stem;
},
{
horizontal = 1;
place = "{0, 21}";
target = up;
type = BottomGhost;
},
{
place = "{471, 98}";
type = Stem;
}
);
layerId = "FDC6D5C2-1E82-4E29-8E0D-3EE46E074C54";
paths = (
{
closed = 1;
nodes = (
"755 230 OFFCURVE",
"747 273 OFFCURVE",
"734 248 CURVE SMOOTH",
"717 215 OFFCURVE",
"692 172 OFFCURVE",
"665 138 CURVE SMOOTH",
"657 127 OFFCURVE",
"629 97 OFFCURVE",
"605 83 CURVE SMOOTH",
"565 61 OFFCURVE",
"565 99 OFFCURVE",
"570 126 CURVE SMOOTH",
"581 180 OFFCURVE",
"619 271 OFFCURVE",
"634 309 CURVE SMOOTH",
"658 368 OFFCURVE",
"647 400 OFFCURVE",
"605 405 CURVE SMOOTH",
"577 408 OFFCURVE",
"527 398 OFFCURVE",
"498 381 CURVE SMOOTH",
"464 361 OFFCURVE",
"435 342 OFFCURVE",
"407 314 CURVE",
"429 370 OFFCURVE",
"417 401 OFFCURVE",
"376 405 CURVE SMOOTH",
"348 408 OFFCURVE",
"298 398 OFFCURVE",
"269 381 CURVE SMOOTH",
"226 356 OFFCURVE",
"208 342 OFFCURVE",
"189 325 CURVE",
"194 341 OFFCURVE",
"212 378 OFFCURVE",
"190 395 CURVE SMOOTH",
"179 403 OFFCURVE",
"134 400 OFFCURVE",
"105 400 CURVE",
"118 380 OFFCURVE",
"76 265 OFFCURVE",
"67 241 CURVE SMOOTH",
"2 75 LINE SMOOTH",
"-11 42 OFFCURVE",
"-22 0 OFFCURVE",
"-22 0 CURVE",
"75 0 LINE",
"82 23 OFFCURVE",
"90 47 OFFCURVE",
"98 70 CURVE SMOOTH",
"111 106 OFFCURVE",
"124 159 OFFCURVE",
"151 217 CURVE SMOOTH",
"163 243 OFFCURVE",
"179 270 OFFCURVE",
"197 292 CURVE SMOOTH",
"206 304 OFFCURVE",
"235 332 OFFCURVE",
"263 346 CURVE SMOOTH",
"338 384 OFFCURVE",
"324 327 OFFCURVE",
"312 290 CURVE SMOOTH",
"302 261 OFFCURVE",
"290 226 OFFCURVE",
"276 190 CURVE SMOOTH",
"252 127 OFFCURVE",
"229 64 OFFCURVE",
"206 0 CURVE",
"304 0 LINE",
"311 23 OFFCURVE",
"319 47 OFFCURVE",
"327 70 CURVE SMOOTH",
"355 148 OFFCURVE",
"374 226 OFFCURVE",
"425 292 CURVE SMOOTH",
"435 304 OFFCURVE",
"464 332 OFFCURVE",
"492 346 CURVE SMOOTH",
"567 384 OFFCURVE",
"548 323 OFFCURVE",
"533 287 CURVE SMOOTH",
"505 221 OFFCURVE",
"477 136 OFFCURVE",
"471 78 CURVE SMOOTH",
"467 37 OFFCURVE",
"476 -6 OFFCURVE",
"529 -6 CURVE SMOOTH",
"577 -6 OFFCURVE",
"637 54 OFFCURVE",
"665 92 CURVE SMOOTH",
"692 128 OFFCURVE",
"718 169 OFFCURVE",
"737 201 CURVE SMOOTH"
);
}
);
width = 665;
}
);
note = m;
unicode = 006D;
},
{
glyphname = n;
layers = (
{
hints = (
{
horizontal = 1;
place = "{-7, 84}";
type = Stem;
},
{
horizontal = 1;
place = "{399, -20}";
target = down;
type = TopGhost;
},
{
place = "{103, 93}";
type = Stem;
},
{
place = "{320, 91}";
type = Stem;
},
{
horizontal = 1;
place = "{360, 45}";
type = Stem;
},
{
horizontal = 1;
place = "{0, 21}";
target = up;
type = BottomGhost;
}
);
layerId = "FDC6D5C2-1E82-4E29-8E0D-3EE46E074C54";
paths = (
{
closed = 1;
nodes = (
"526 230 OFFCURVE",
"518 273 OFFCURVE",
"505 248 CURVE SMOOTH",
"488 215 OFFCURVE",
"464 172 OFFCURVE",
"436 138 CURVE SMOOTH",
"424 122 OFFCURVE",
"411 109 OFFCURVE",
"396 97 CURVE SMOOTH",
"364 71 OFFCURVE",
"346 73 OFFCURVE",
"340 89 CURVE SMOOTH",
"327 122 OFFCURVE",
"388 260 OFFCURVE",
"404 309 CURVE SMOOTH",
"423 368 OFFCURVE",
"408 400 OFFCURVE",
"366 405 CURVE SMOOTH",
"338 408 OFFCURVE",
"288 398 OFFCURVE",
"261 381 CURVE SMOOTH",
"220 356 OFFCURVE",
"204 342 OFFCURVE",
"186 325 CURVE",
"191 341 OFFCURVE",
"208 378 OFFCURVE",
"185 395 CURVE SMOOTH",
"174 403 OFFCURVE",
"129 400 OFFCURVE",
"100 400 CURVE",
"114 380 OFFCURVE",
"76 265 OFFCURVE",
"67 241 CURVE SMOOTH",
"50 195 OFFCURVE",
"25 133 OFFCURVE",
"2 75 CURVE SMOOTH",
"-11 42 OFFCURVE",
"-21 0 OFFCURVE",
"-21 0 CURVE",
"76 0 LINE",
"83 23 OFFCURVE",
"89 47 OFFCURVE",
"97 70 CURVE SMOOTH",
"109 106 OFFCURVE",
"130 168 OFFCURVE",
"155 226 CURVE SMOOTH",
"178 277 OFFCURVE",
"218 328 OFFCURVE",
"259 350 CURVE SMOOTH",
"291 368 OFFCURVE",
"334 365 OFFCURVE",
"316 320 CURVE SMOOTH",
"290 252 OFFCURVE",
"249 146 OFFCURVE",
"242 78 CURVE SMOOTH",
"238 37 OFFCURVE",
"247 -6 OFFCURVE",
"300 -6 CURVE SMOOTH",
"348 -6 OFFCURVE",
"408 54 OFFCURVE",
"436 92 CURVE SMOOTH",
"463 128 OFFCURVE",
"489 169 OFFCURVE",
"508 201 CURVE SMOOTH"
);
}
);
width = 436;
}
);
note = n;
unicode = 006E;
},
{
glyphname = o;
layers = (
{
hints = (
{
horizontal = 1;
place = "{23, 48}";
type = Stem;
},
{
horizontal = 1;
place = "{361, 46}";
type = Stem;
},
{
place = "{35, 96}";
type = Stem;
},
{
place = "{350, 46}";
type = Stem;
},
{
horizontal = 1;
place = "{-8, 38}";
type = Stem;
}
);
layerId = "FDC6D5C2-1E82-4E29-8E0D-3EE46E074C54";
paths = (
{
closed = 1;
nodes = (
"505 224 OFFCURVE",
"489 197 OFFCURVE",
"471 181 CURVE SMOOTH",
"438 152 OFFCURVE",
"397 153 OFFCURVE",
"376 180 CURVE",
"390 216 OFFCURVE",
"399 254 OFFCURVE",
"397 292 CURVE SMOOTH",
"395 352 OFFCURVE",
"365 406 OFFCURVE",
"282 407 CURVE SMOOTH",
"122 410 OFFCURVE",
"26 222 OFFCURVE",
"36 96 CURVE SMOOTH",
"42 24 OFFCURVE",
"90 -7 OFFCURVE",
"145 -8 CURVE SMOOTH",
"243 -9 OFFCURVE",
"302 43 OFFCURVE",
"341 110 CURVE SMOOTH",
"348 121 OFFCURVE",
"355 133 OFFCURVE",
"361 145 CURVE",
"385 126 OFFCURVE",
"421 121 OFFCURVE",
"449 132 CURVE SMOOTH",
"475 142 OFFCURVE",
"496 158 OFFCURVE",
"516 193 CURVE SMOOTH",
"537 229 OFFCURVE",
"529 268 OFFCURVE",
"517 246 CURVE SMOOTH"
);
},
{
closed = 1;
nodes = (
"309 311 OFFCURVE",
"285 281 OFFCURVE",
"291 236 CURVE SMOOTH",
"294 212 OFFCURVE",
"306 191 OFFCURVE",
"324 176 CURVE",
"301 124 OFFCURVE",
"246 27 OFFCURVE",
"183 30 CURVE SMOOTH",
"99 35 OFFCURVE",
"136 163 OFFCURVE",
"167 227 CURVE SMOOTH",
"190 274 OFFCURVE",
"241 361 OFFCURVE",
"302 361 CURVE SMOOTH",
"335 361 OFFCURVE",
"348 338 OFFCURVE",
"350 308 CURVE"
);
}
);
width = 449;
}
);
note = o;
unicode = 006F;
},
{
glyphname = p;
layers = (
{
hints = (
{
horizontal = 1;
place = "{-248, 21}";
target = up;
type = BottomGhost;
},
{
horizontal = 1;
place = "{-17, 48}";
type = Stem;
},
{
horizontal = 1;
place = "{403, -20}";
target = down;
type = TopGhost;
},
{
place = "{67, 24}";
type = Stem;
},
{
place = "{292, 98}";
type = Stem;
},
{
horizontal = 1;
place = "{-17, 43}";
type = Stem;
},
{
horizontal = 1;
place = "{319, 80}";
type = Stem;
}
);
layerId = "FDC6D5C2-1E82-4E29-8E0D-3EE46E074C54";
paths = (
{
closed = 1;
nodes = (
"492 248 OFFCURVE",
"479 280 OFFCURVE",
"468 258 CURVE SMOOTH",
"450 223 OFFCURVE",
"421 173 OFFCURVE",
"394 138 CURVE SMOOTH",
"360 95 OFFCURVE",
"293 26 OFFCURVE",
"229 32 CURVE",
"241 40 OFFCURVE",
"252 49 OFFCURVE",
"262 58 CURVE SMOOTH",
"332 122 OFFCURVE",
"390 220 OFFCURVE",
"390 312 CURVE SMOOTH",
"390 378 OFFCURVE",
"361 404 OFFCURVE",
"325 404 CURVE SMOOTH",
"278 405 OFFCURVE",
"229 366 OFFCURVE",
"185 313 CURVE SMOOTH",
"176 303 OFFCURVE",
"168 292 OFFCURVE",
"159 280 CURVE",
"185 332 OFFCURVE",
"219 387 OFFCURVE",
"238 400 CURVE",
"208 400 LINE SMOOTH",
"123 400 OFFCURVE",
"117 373 OFFCURVE",
"88 302 CURVE SMOOTH",
"45 197 OFFCURVE",
"-31 -41 OFFCURVE",
"-77 -152 CURVE SMOOTH",
"-89 -180 OFFCURVE",
"-113 -235 OFFCURVE",
"-122 -248 CURVE",
"-74 -248 LINE SMOOTH",
"-19 -248 OFFCURVE",
"-9 -214 OFFCURVE",
"13 -144 CURVE SMOOTH",
"69 31 LINE",
"78 -4 OFFCURVE",
"110 -13 OFFCURVE",
"142 -16 CURVE SMOOTH",
"273 -28 OFFCURVE",
"359 39 OFFCURVE",
"426 136 CURVE SMOOTH",
"441 158 OFFCURVE",
"462 194 OFFCURVE",
"473 214 CURVE SMOOTH"
);
},
{
closed = 1;
nodes = (
"312 309 OFFCURVE",
"282 215 OFFCURVE",
"238 139 CURVE SMOOTH",
"208 88 OFFCURVE",
"152 26 OFFCURVE",
"119 26 CURVE SMOOTH",
"103 26 OFFCURVE",
"95 35 OFFCURVE",
"92 49 CURVE SMOOTH",
"75 122 OFFCURVE",
"171 260 OFFCURVE",
"223 300 CURVE SMOOTH",
"243 316 OFFCURVE",
"263 323 OFFCURVE",
"278 319 CURVE SMOOTH"
);
}
);
width = 394;
}
);
note = p;
unicode = 0070;
},
{
glyphname = q;
layers = (
{
hints = (
{
horizontal = 1;
place = "{-245, 21}";
target = up;
type = BottomGhost;
},
{
horizontal = 1;
place = "{-4, 21}";
target = up;
type = BottomGhost;
},
{
horizontal = 1;
place = "{23, 48}";
type = Stem;
},
{
horizontal = 1;
place = "{336, 15}";
type = Stem;
},
{
horizontal = 1;
place = "{366, 37}";
type = Stem;
},
{
horizontal = 1;
place = "{399, -20}";
target = down;
type = TopGhost;
},
{
place = "{27, 97}";
type = Stem;
},
{
place = "{364, 7}";
type = Stem;
}
);
layerId = "FDC6D5C2-1E82-4E29-8E0D-3EE46E074C54";
paths = (
{
closed = 1;
nodes = (
"554 232 OFFCURVE",
"546 275 OFFCURVE",
"534 251 CURVE SMOOTH",
"516 217 OFFCURVE",
"490 172 OFFCURVE",
"463 138 CURVE SMOOTH",
"447 118 OFFCURVE",
"429 94 OFFCURVE",
"409 81 CURVE SMOOTH",
"372 58 OFFCURVE",
"353 80 OFFCURVE",
"355 116 CURVE",
"370 160 OFFCURVE",
"386 203 OFFCURVE",
"405 248 CURVE SMOOTH",
"429 306 OFFCURVE",
"471 384 OFFCURVE",
"497 400 CURVE",
"467 400 LINE SMOOTH",
"404 400 OFFCURVE",
"384 385 OFFCURVE",
"366 348 CURVE",
"351 392 OFFCURVE",
"304 404 OFFCURVE",
"271 404 CURVE SMOOTH",
"129 404 OFFCURVE",
"28 227 OFFCURVE",
"28 89 CURVE SMOOTH",
"28 22 OFFCURVE",
"56 -3 OFFCURVE",
"93 -3 CURVE SMOOTH",
"140 -4 OFFCURVE",
"189 35 OFFCURVE",
"233 88 CURVE SMOOTH",
"259 119 OFFCURVE",
"287 164 OFFCURVE",
"311 207 CURVE",
"269 90 OFFCURVE",
"217 -67 OFFCURVE",
"182 -152 CURVE SMOOTH",
"169 -183 OFFCURVE",
"154 -216 OFFCURVE",
"133 -245 CURVE",
"147 -245 OFFCURVE",
"161 -244 OFFCURVE",
"172 -243 CURVE SMOOTH",
"234 -236 OFFCURVE",
"259 -204 OFFCURVE",
"271 -165 CURVE SMOOTH",
"295 -86 OFFCURVE",
"315 -14 OFFCURVE",
"336 56 CURVE",
"347 29 OFFCURVE",
"382 26 OFFCURVE",
"417 48 CURVE SMOOTH",
"468 81 OFFCURVE",
"509 158 OFFCURVE",
"536 202 CURVE SMOOTH"
);
},
{
closed = 1;
nodes = (
"354 321 LINE",
"342 300 OFFCURVE",
"317 257 OFFCURVE",
"273 189 CURVE SMOOTH",
"236 132 OFFCURVE",
"177 70 OFFCURVE",
"140 81 CURVE SMOOTH",
"95 94 OFFCURVE",
"160 257 OFFCURVE",
"227 326 CURVE SMOOTH",
"266 366 OFFCURVE",
"343 388 OFFCURVE",
"361 337 CURVE"
);
}
);
width = 463;
}
);
note = q;
unicode = 0071;
},
{
glyphname = r;
layers = (
{
hints = (
{
horizontal = 1;
place = "{-7, 85}";
type = Stem;
},
{
horizontal = 1;
place = "{315, 35}";
type = Stem;
},
{
horizontal = 1;
place = "{315, 84}";
type = Stem;
},
{
horizontal = 1;
place = "{424, 15}";
type = Stem;
},
{
place = "{-194, 93}";
type = Stem;
}
);
layerId = "FDC6D5C2-1E82-4E29-8E0D-3EE46E074C54";
paths = (
{
closed = 1;
nodes = (
"426 232 OFFCURVE",
"418 274 OFFCURVE",
"405 249 CURVE SMOOTH",
"388 215 OFFCURVE",
"362 172 OFFCURVE",
"336 138 CURVE SMOOTH",
"323 122 OFFCURVE",
"309 108 OFFCURVE",
"295 96 CURVE SMOOTH",
"241 53 OFFCURVE",
"227 87 OFFCURVE",
"240 138 CURVE SMOOTH",
"256 200 OFFCURVE",
"289 270 OFFCURVE",
"325 340 CURVE SMOOTH",
"332 354 OFFCURVE",
"353 392 OFFCURVE",
"365 401 CURVE",
"353 400 OFFCURVE",
"318 402 OFFCURVE",
"304 402 CURVE SMOOTH",
"276 402 OFFCURVE",
"252 379 OFFCURVE",
"233 352 CURVE",
"189 346 OFFCURVE",
"143 374 OFFCURVE",
"156 427 CURVE",
"145 439 OFFCURVE",
"122 446 OFFCURVE",
"103 438 CURVE SMOOTH",
"61 420 OFFCURVE",
"63 354 OFFCURVE",
"109 331 CURVE",
"106 322 OFFCURVE",
"81 272 OFFCURVE",
"62 235 CURVE SMOOTH",
"48 208 OFFCURVE",
"55 173 OFFCURVE",
"62 185 CURVE SMOOTH",
"102 250 OFFCURVE",
"125 300 OFFCURVE",
"136 322 CURVE",
"164 310 OFFCURVE",
"203 324 OFFCURVE",
"229 345 CURVE",
"208 312 OFFCURVE",
"192 274 OFFCURVE",
"183 251 CURVE SMOOTH",
"146 158 OFFCURVE",
"130 68 OFFCURVE",
"153 20 CURVE SMOOTH",
"163 0 OFFCURVE",
"177 -7 OFFCURVE",
"199 -7 CURVE SMOOTH",
"247 -7 OFFCURVE",
"309 55 OFFCURVE",
"336 91 CURVE SMOOTH",
"363 128 OFFCURVE",
"389 170 OFFCURVE",
"409 203 CURVE SMOOTH"
);
}
);
width = 336;
}
);
note = r;
unicode = 0072;
},
{
glyphname = s;
layers = (
{
hints = (
{
horizontal = 1;
place = "{-17, 34}";
type = Stem;
},
{
horizontal = 1;
place = "{29, 21}";
type = Stem;
},
{
horizontal = 1;
place = "{381, 30}";
type = Stem;
},
{
place = "{19, 65}";
type = Stem;
},
{
place = "{106, 70}";
type = Stem;
},
{
place = "{220, 97}";
type = Stem;
},
{
place = "{248, 15}";
type = Stem;
},
{
place = "{291, 57}";
type = Stem;
}
);
layerId = "FDC6D5C2-1E82-4E29-8E0D-3EE46E074C54";
paths = (
{
closed = 1;
nodes = (
"469 233 OFFCURVE",
"460 274 OFFCURVE",
"448 250 CURVE SMOOTH",
"431 216 OFFCURVE",
"415 191 OFFCURVE",
"395 161 CURVE SMOOTH",
"364 114 OFFCURVE",
"320 60 OFFCURVE",
"276 41 CURVE",
"310 65 OFFCURVE",
"341 121 OFFCURVE",
"315 177 CURVE SMOOTH",
"297 217 OFFCURVE",
"257 243 OFFCURVE",
"224 267 CURVE SMOOTH",
"210 278 OFFCURVE",
"195 292 OFFCURVE",
"189 310 CURVE SMOOTH",
"180 334 OFFCURVE",
"189 358 OFFCURVE",
"207 373 CURVE SMOOTH",
"221 384 OFFCURVE",
"240 388 OFFCURVE",
"260 388 CURVE SMOOTH",
"275 388 OFFCURVE",
"297 381 OFFCURVE",
"299 362 CURVE SMOOTH",
"300 355 OFFCURVE",
"298 347 OFFCURVE",
"293 340 CURVE SMOOTH",
"285 329 OFFCURVE",
"272 322 OFFCURVE",
"254 318 CURVE",
"248 286 OFFCURVE",
"272 276 OFFCURVE",
"296 279 CURVE SMOOTH",
"336 285 OFFCURVE",
"358 323 OFFCURVE",
"356 358 CURVE SMOOTH",
"354 385 OFFCURVE",
"334 401 OFFCURVE",
"311 409 CURVE SMOOTH",
"296 414 OFFCURVE",
"277 417 OFFCURVE",
"256 417 CURVE SMOOTH",
"227 417 OFFCURVE",
"196 410 OFFCURVE",
"174 398 CURVE SMOOTH",
"156 388 OFFCURVE",
"142 377 OFFCURVE",
"132 363 CURVE SMOOTH",
"114 337 OFFCURVE",
"106 296 OFFCURVE",
"116 262 CURVE SMOOTH",
"133 206 OFFCURVE",
"194 181 OFFCURVE",
"220 128 CURVE SMOOTH",
"248 72 OFFCURVE",
"202 18 OFFCURVE",
"146 17 CURVE SMOOTH",
"99 17 OFFCURVE",
"76 52 OFFCURVE",
"99 97 CURVE",
"100 100 OFFCURVE",
"107 109 OFFCURVE",
"109 111 CURVE",
"104 123 OFFCURVE",
"85 133 OFFCURVE",
"67 128 CURVE SMOOTH",
"42 122 OFFCURVE",
"27 96 OFFCURVE",
"25 72 CURVE SMOOTH",
"20 8 OFFCURVE",
"87 -20 OFFCURVE",
"157 -20 CURVE SMOOTH",
"252 -20 OFFCURVE",
"317 10 OFFCURVE",
"378 92 CURVE SMOOTH",
"408 132 OFFCURVE",
"427 163 OFFCURVE",
"451 203 CURVE SMOOTH"
);
}
);
width = 378;
}
);
note = s;
unicode = 0073;
},
{
glyphname = t;
layers = (
{
hints = (
{
horizontal = 1;
place = "{-7, 83}";
type = Stem;
},
{
horizontal = 1;
place = "{367, 31}";
type = Stem;
},
{
place = "{26, 95}";
type = Stem;
}
);
layerId = "FDC6D5C2-1E82-4E29-8E0D-3EE46E074C54";
paths = (
{
closed = 1;
nodes = (
"341 572 OFFCURVE",
"312 572 OFFCURVE",
"298 572 CURVE SMOOTH",
"230 572 OFFCURVE",
"181 469 OFFCURVE",
"152 399 CURVE",
"76 399 LINE SMOOTH",
"70 399 OFFCURVE",
"49 368 OFFCURVE",
"60 368 CURVE SMOOTH",
"127 368 LINE",
"104 311 OFFCURVE",
"66 244 OFFCURVE",
"50 213 CURVE SMOOTH",
"36 186 OFFCURVE",
"32 138 OFFCURVE",
"53 171 CURVE SMOOTH",
"59 181 OFFCURVE",
"79 209 OFFCURVE",
"90 229 CURVE",
"90 228 LINE",
"80 201 OFFCURVE",
"71 174 OFFCURVE",
"65 139 CURVE SMOOTH",
"56 92 OFFCURVE",
"53 45 OFFCURVE",
"71 17 CURVE SMOOTH",
"80 3 OFFCURVE",
"95 -6 OFFCURVE",
"115 -6 CURVE SMOOTH",
"162 -6 OFFCURVE",
"221 55 OFFCURVE",
"249 92 CURVE SMOOTH",
"276 129 OFFCURVE",
"302 169 OFFCURVE",
"321 201 CURVE SMOOTH",
"339 230 OFFCURVE",
"332 274 OFFCURVE",
"319 249 CURVE SMOOTH",
"302 216 OFFCURVE",
"276 173 OFFCURVE",
"249 138 CURVE SMOOTH",
"192 67 OFFCURVE",
"127 44 OFFCURVE",
"147 151 CURVE SMOOTH",
"158 212 OFFCURVE",
"195 301 OFFCURVE",
"222 368 CURVE",
"308 368 LINE SMOOTH",
"321 368 OFFCURVE",
"343 399 OFFCURVE",
"337 399 CURVE SMOOTH",
"236 399 LINE",
"280 501 OFFCURVE",
"318 554 OFFCURVE",
"346 573 CURVE"
);
}
);
width = 249;
}
);
note = t;
unicode = 0074;
},
{
glyphname = u;
layers = (
{
hints = (
{
horizontal = 1;
place = "{-7, 85}";
type = Stem;
},
{
horizontal = 1;
place = "{389, -20}";
target = down;
type = TopGhost;
},
{
place = "{24, 104}";
type = Stem;
},
{
place = "{263, 93}";
type = Stem;
},
{
horizontal = 1;
place = "{-6, 65}";
type = Stem;
}
);
layerId = "FDC6D5C2-1E82-4E29-8E0D-3EE46E074C54";
paths = (
{
closed = 1;
nodes = (
"539 230 OFFCURVE",
"532 274 OFFCURVE",
"519 249 CURVE SMOOTH",
"502 216 OFFCURVE",
"477 172 OFFCURVE",
"449 138 CURVE SMOOTH",
"437 122 OFFCURVE",
"424 108 OFFCURVE",
"410 97 CURVE SMOOTH",
"356 54 OFFCURVE",
"342 88 OFFCURVE",
"355 138 CURVE SMOOTH",
"371 200 OFFCURVE",
"407 273 OFFCURVE",
"442 342 CURVE SMOOTH",
"450 357 OFFCURVE",
"471 395 OFFCURVE",
"483 403 CURVE",
"472 401 OFFCURVE",
"431 403 OFFCURVE",
"416 403 CURVE SMOOTH",
"386 403 OFFCURVE",
"365 376 OFFCURVE",
"345 345 CURVE SMOOTH",
"305 281 OFFCURVE",
"211 61 OFFCURVE",
"148 59 CURVE SMOOTH",
"93 58 OFFCURVE",
"136 176 OFFCURVE",
"144 199 CURVE SMOOTH",
"161 247 OFFCURVE",
"205 341 OFFCURVE",
"240 390 CURVE",
"192 390 LINE SMOOTH",
"151 390 OFFCURVE",
"141 388 OFFCURVE",
"127 368 CURVE SMOOTH",
"74 291 OFFCURVE",
"33 153 OFFCURVE",
"28 95 CURVE SMOOTH",
"22 26 OFFCURVE",
"48 -6 OFFCURVE",
"83 -6 CURVE SMOOTH",
"113 -6 OFFCURVE",
"146 1 OFFCURVE",
"197 52 CURVE SMOOTH",
"220 76 OFFCURVE",
"242 99 OFFCURVE",
"262 127 CURVE",
"255 84 OFFCURVE",
"256 46 OFFCURVE",
"268 21 CURVE SMOOTH",
"279 -1 OFFCURVE",
"295 -6 OFFCURVE",
"314 -6 CURVE SMOOTH",
"361 -6 OFFCURVE",
"421 55 OFFCURVE",
"449 92 CURVE SMOOTH",
"476 129 OFFCURVE",
"502 169 OFFCURVE",
"521 201 CURVE SMOOTH"
);
}
);
width = 449;
}
);
note = u;
unicode = 0075;
},
{
glyphname = v;
layers = (
{
hints = (
{
horizontal = 1;
place = "{32, 36}";
type = Stem;
},
{
horizontal = 1;
place = "{389, -20}";
target = down;
type = TopGhost;
},
{
place = "{22, 104}";
type = Stem;
},
{
place = "{266, 46}";
type = Stem;
},
{
horizontal = 1;
place = "{-6, 65}";
type = Stem;
}
);
layerId = "FDC6D5C2-1E82-4E29-8E0D-3EE46E074C54";
paths = (
{
closed = 1;
nodes = (
"484 216 OFFCURVE",
"483 268 OFFCURVE",
"472 246 CURVE SMOOTH",
"460 224 OFFCURVE",
"444 197 OFFCURVE",
"426 181 CURVE SMOOTH",
"379 140 OFFCURVE",
"329 158 OFFCURVE",
"325 224 CURVE",
"337 247 OFFCURVE",
"350 270 OFFCURVE",
"359 295 CURVE SMOOTH",
"369 322 OFFCURVE",
"390 417 OFFCURVE",
"323 400 CURVE SMOOTH",
"309 396 OFFCURVE",
"296 383 OFFCURVE",
"287 361 CURVE SMOOTH",
"270 319 OFFCURVE",
"270 272 OFFCURVE",
"278 237 CURVE",
"249 159 OFFCURVE",
"192 60 OFFCURVE",
"152 59 CURVE SMOOTH",
"97 58 OFFCURVE",
"120 139 OFFCURVE",
"145 203 CURVE SMOOTH",
"170 267 OFFCURVE",
"216 362 OFFCURVE",
"245 387 CURVE SMOOTH",
"252 394 OFFCURVE",
"253 401 OFFCURVE",
"247 401 CURVE SMOOTH",
"181 401 OFFCURVE",
"142 391 OFFCURVE",
"107 336 CURVE SMOOTH",
"66 271 OFFCURVE",
"30 153 OFFCURVE",
"26 95 CURVE SMOOTH",
"21 33 OFFCURVE",
"45 -7 OFFCURVE",
"80 -7 CURVE SMOOTH",
"141 -7 OFFCURVE",
"193 37 OFFCURVE",
"233 88 CURVE SMOOTH",
"245 103 OFFCURVE",
"270 139 OFFCURVE",
"298 181 CURVE",
"317 129 OFFCURVE",
"362 116 OFFCURVE",
"404 132 CURVE SMOOTH",
"430 142 OFFCURVE",
"455 164 OFFCURVE",
"474 198 CURVE SMOOTH"
);
}
);
width = 404;
}
);
note = v;
unicode = 0076;
},
{
glyphname = w;
layers = (
{
hints = (
{
horizontal = 1;
place = "{32, 34}";
type = Stem;
},
{
horizontal = 1;
place = "{399, -20}";
target = down;
type = TopGhost;
},
{
place = "{22, 104}";
type = Stem;
},
{
place = "{522, 40}";
type = Stem;
},
{
horizontal = 1;
place = "{-6, 64}";
type = Stem;
}
);
layerId = "FDC6D5C2-1E82-4E29-8E0D-3EE46E074C54";
paths = (
{
closed = 1;
nodes = (
"733 224 OFFCURVE",
"717 197 OFFCURVE",
"699 181 CURVE SMOOTH",
"654 141 OFFCURVE",
"613 158 OFFCURVE",
"602 207 CURVE SMOOTH",
"600 214 OFFCURVE",
"599 219 OFFCURVE",
"599 224 CURVE",
"610 247 OFFCURVE",
"623 270 OFFCURVE",
"632 295 CURVE SMOOTH",
"642 322 OFFCURVE",
"664 417 OFFCURVE",
"597 400 CURVE SMOOTH",
"583 396 OFFCURVE",
"569 383 OFFCURVE",
"560 361 CURVE SMOOTH",
"542 319 OFFCURVE",
"544 272 OFFCURVE",
"551 237 CURVE",
"541 210 OFFCURVE",
"517 150 OFFCURVE",
"476 102 CURVE SMOOTH",
"433 52 OFFCURVE",
"359 18 OFFCURVE",
"365 106 CURVE SMOOTH",
"368 145 OFFCURVE",
"389 196 OFFCURVE",
"394 210 CURVE SMOOTH",
"415 271 OFFCURVE",
"437 314 OFFCURVE",
"458 355 CURVE SMOOTH",
"463 366 OFFCURVE",
"477 375 OFFCURVE",
"482 378 CURVE",
"472 376 OFFCURVE",
"424 378 OFFCURVE",
"408 378 CURVE SMOOTH",
"378 378 OFFCURVE",
"357 351 OFFCURVE",
"337 319 CURVE SMOOTH",
"312 280 OFFCURVE",
"215 61 OFFCURVE",
"152 59 CURVE SMOOTH",
"97 58 OFFCURVE",
"146 187 OFFCURVE",
"154 210 CURVE SMOOTH",
"177 275 OFFCURVE",
"218 361 OFFCURVE",
"247 386 CURVE SMOOTH",
"255 393 OFFCURVE",
"255 400 OFFCURVE",
"250 400 CURVE SMOOTH",
"183 400 OFFCURVE",
"145 390 OFFCURVE",
"110 335 CURVE SMOOTH",
"69 270 OFFCURVE",
"27 149 OFFCURVE",
"23 91 CURVE SMOOTH",
"18 29 OFFCURVE",
"45 -6 OFFCURVE",
"80 -6 CURVE SMOOTH",
"110 -6 OFFCURVE",
"150 1 OFFCURVE",
"201 52 CURVE SMOOTH",
"224 76 OFFCURVE",
"246 99 OFFCURVE",
"266 127 CURVE",
"258 88 OFFCURVE",
"256 3 OFFCURVE",
"326 -6 CURVE SMOOTH",
"393 -15 OFFCURVE",
"452 22 OFFCURVE",
"503 86 CURVE SMOOTH",
"514 101 OFFCURVE",
"548 156 OFFCURVE",
"568 191 CURVE",
"571 181 LINE SMOOTH",
"587 128 OFFCURVE",
"635 116 OFFCURVE",
"677 132 CURVE SMOOTH",
"703 142 OFFCURVE",
"724 158 OFFCURVE",
"744 193 CURVE SMOOTH",
"755 211 OFFCURVE",
"757 268 OFFCURVE",
"745 246 CURVE SMOOTH"
);
}
);
width = 677;
}
);
note = w;
unicode = 0077;
},
{
glyphname = x;
layers = (
{
hints = (
{
horizontal = 1;
place = "{0, 21}";
target = up;
type = BottomGhost;
},
{
horizontal = 1;
place = "{399, -20}";
target = down;
type = TopGhost;
},
{
place = "{-57, 543}";
type = Stem;
},
{
horizontal = 1;
place = "{-9, 66}";
type = Stem;
}
);
layerId = "FDC6D5C2-1E82-4E29-8E0D-3EE46E074C54";
paths = (
{
closed = 1;
nodes = (
"538 233 OFFCURVE",
"531 276 OFFCURVE",
"519 251 CURVE SMOOTH",
"500 214 OFFCURVE",
"475 173 OFFCURVE",
"448 138 CURVE SMOOTH",
"422 106 OFFCURVE",
"360 28 OFFCURVE",
"316 68 CURVE SMOOTH",
"290 92 OFFCURVE",
"265 166 OFFCURVE",
"252 207 CURVE",
"318 276 OFFCURVE",
"379 338 OFFCURVE",
"448 399 CURVE",
"435 399 OFFCURVE",
"386 404 OFFCURVE",
"374 390 CURVE SMOOTH",
"326 336 OFFCURVE",
"280 280 OFFCURVE",
"244 244 CURVE",
"226 300 OFFCURVE",
"211 359 OFFCURVE",
"204 399 CURVE",
"152 399 LINE SMOOTH",
"134 399 OFFCURVE",
"124 390 OFFCURVE",
"119 375 CURVE SMOOTH",
"106 334 OFFCURVE",
"96 299 OFFCURVE",
"63 237 CURVE SMOOTH",
"55 222 OFFCURVE",
"60 180 OFFCURVE",
"66 191 CURVE SMOOTH",
"99 244 OFFCURVE",
"115 281 OFFCURVE",
"127 305 CURVE",
"138 259 OFFCURVE",
"153 210 OFFCURVE",
"167 171 CURVE",
"80 86 OFFCURVE",
"9 20 OFFCURVE",
"-13 0 CURVE",
"61 0 LINE",
"97 45 OFFCURVE",
"139 85 OFFCURVE",
"181 129 CURVE",
"206 41 OFFCURVE",
"237 -6 OFFCURVE",
"295 -9 CURVE SMOOTH",
"348 -11 OFFCURVE",
"415 52 OFFCURVE",
"448 93 CURVE SMOOTH",
"475 126 OFFCURVE",
"497 162 OFFCURVE",
"520 201 CURVE SMOOTH"
);
}
);
width = 448;
}
);
note = x;
unicode = 0078;
},
{
glyphname = y;
layers = (
{
hints = (
{
horizontal = 1;
place = "{-201, 28}";
type = Stem;
},
{
horizontal = 1;
place = "{23, 48}";
type = Stem;
},
{
horizontal = 1;
place = "{389, -20}";
target = down;
type = TopGhost;
},
{
place = "{-50, 72}";
type = Stem;
},
{
place = "{24, 91}";
type = Stem;
},
{
horizontal = 1;
place = "{-6, 62}";
type = Stem;
}
);
layerId = "FDC6D5C2-1E82-4E29-8E0D-3EE46E074C54";
paths = (
{
closed = 1;
nodes = (
"440 390 LINE SMOOTH",
"348 390 OFFCURVE",
"348 358 OFFCURVE",
"312 272 CURVE SMOOTH",
"280 198 OFFCURVE",
"234 127 OFFCURVE",
"178 80 CURVE SMOOTH",
"86 2 OFFCURVE",
"116 135 OFFCURVE",
"138 199 CURVE SMOOTH",
"161 264 OFFCURVE",
"212 351 OFFCURVE",
"241 376 CURVE SMOOTH",
"248 383 OFFCURVE",
"249 390 OFFCURVE",
"243 390 CURVE SMOOTH",
"177 390 OFFCURVE",
"139 380 OFFCURVE",
"104 325 CURVE SMOOTH",
"63 260 OFFCURVE",
"29 149 OFFCURVE",
"25 91 CURVE SMOOTH",
"20 29 OFFCURVE",
"46 -6 OFFCURVE",
"81 -6 CURVE SMOOTH",
"111 -6 OFFCURVE",
"151 1 OFFCURVE",
"202 52 CURVE SMOOTH",
"208 59 OFFCURVE",
"240 94 OFFCURVE",
"264 124 CURVE",
"207 -28 LINE SMOOTH",
"192 -67 OFFCURVE",
"170 -123 OFFCURVE",
"127 -153 CURVE SMOOTH",
"63 -198 OFFCURVE",
"1 -161 OFFCURVE",
"30 -102 CURVE SMOOTH",
"31 -99 OFFCURVE",
"38 -90 OFFCURVE",
"41 -89 CURVE",
"34 -74 OFFCURVE",
"13 -60 OFFCURVE",
"-7 -63 CURVE SMOOTH",
"-34 -66 OFFCURVE",
"-49 -93 OFFCURVE",
"-50 -119 CURVE SMOOTH",
"-51 -181 OFFCURVE",
"16 -201 OFFCURVE",
"67 -201 CURVE SMOOTH",
"139 -201 OFFCURVE",
"208 -166 OFFCURVE",
"253 -110 CURVE SMOOTH",
"301 -51 OFFCURVE",
"328 50 OFFCURVE",
"353 122 CURVE SMOOTH",
"372 174 OFFCURVE",
"390 226 OFFCURVE",
"407 269 CURVE SMOOTH",
"429 327 OFFCURVE",
"455 374 OFFCURVE",
"481 390 CURVE"
);
}
);
width = 425;
}
);
note = y;
unicode = 0079;
},
{
glyphname = z;
layers = (
{
hints = (
{
horizontal = 1;
place = "{-19, 67}";
type = Stem;
},
{
horizontal = 1;
place = "{397, -20}";
target = down;
type = TopGhost;
},
{
place = "{20, 487}";
type = Stem;
},
{
horizontal = 1;
place = "{307, 79}";
type = Stem;
},
{
horizontal = 1;
place = "{397, 7}";
type = Stem;
}
);
layerId = "FDC6D5C2-1E82-4E29-8E0D-3EE46E074C54";
paths = (
{
closed = 1;
nodes = (
"517 233 OFFCURVE",
"511 279 OFFCURVE",
"497 252 CURVE SMOOTH",
"480 218 OFFCURVE",
"453 172 OFFCURVE",
"426 138 CURVE SMOOTH",
"362 55 OFFCURVE",
"243 14 OFFCURVE",
"154 86 CURVE",
"221 151 OFFCURVE",
"288 218 OFFCURVE",
"356 283 CURVE SMOOTH",
"401 326 OFFCURVE",
"444 366 OFFCURVE",
"479 398 CURVE",
"465 403 OFFCURVE",
"442 411 OFFCURVE",
"431 398 CURVE SMOOTH",
"394 354 OFFCURVE",
"375 360 OFFCURVE",
"263 379 CURVE SMOOTH",
"251 381 LINE SMOOTH",
"217 387 OFFCURVE",
"188 390 OFFCURVE",
"164 381 CURVE SMOOTH",
"132 368 OFFCURVE",
"114 341 OFFCURVE",
"94 300 CURVE SMOOTH",
"91 294 OFFCURVE",
"73 255 OFFCURVE",
"62 234 CURVE SMOOTH",
"52 217 OFFCURVE",
"55 172 OFFCURVE",
"61 183 CURVE SMOOTH",
"79 212 OFFCURVE",
"110 265 OFFCURVE",
"127 281 CURVE SMOOTH",
"145 298 OFFCURVE",
"169 308 OFFCURVE",
"208 307 CURVE SMOOTH",
"248 306 OFFCURVE",
"322 293 OFFCURVE",
"322 293 CURVE",
"322 293 OFFCURVE",
"193 168 OFFCURVE",
"96 90 CURVE SMOOTH",
"77 74 OFFCURVE",
"54 62 OFFCURVE",
"40 44 CURVE SMOOTH",
"10 5 OFFCURVE",
"30 -33 OFFCURVE",
"77 5 CURVE SMOOTH",
"88 13 OFFCURVE",
"98 26 OFFCURVE",
"108 38 CURVE",
"118 47 OFFCURVE",
"142 37 OFFCURVE",
"169 23 CURVE SMOOTH",
"234 -12 OFFCURVE",
"280 -43 OFFCURVE",
"350 7 CURVE SMOOTH",
"376 25 OFFCURVE",
"401 58 OFFCURVE",
"426 92 CURVE SMOOTH",
"436 105 OFFCURVE",
"446 120 OFFCURVE",
"457 136 CURVE SMOOTH",
"472 158 OFFCURVE",
"480 171 OFFCURVE",
"498 201 CURVE SMOOTH"
);
}
);
width = 426;
}
);
note = z;
unicode = 007A;
},
{
glyphname = braceleft;
layers = (
{
hints = (
{
horizontal = 1;
place = "{-81, 11}";
type = Stem;
},
{
horizontal = 1;
place = "{320, 15}";
type = Stem;
},
{
horizontal = 1;
place = "{692, 19}";
type = Stem;
},
{
place = "{64, 85}";
type = Stem;
},
{
place = "{119, 85}";
type = Stem;
}
);
layerId = "FDC6D5C2-1E82-4E29-8E0D-3EE46E074C54";
paths = (
{
closed = 1;
nodes = (
"500 712 LINE",
"386 716 OFFCURVE",
"346 694 OFFCURVE",
"307 675 CURVE SMOOTH",
"273 658 OFFCURVE",
"241 634 OFFCURVE",
"227 607 CURVE SMOOTH",
"199 554 OFFCURVE",
"204 520 OFFCURVE",
"183 463 CURVE SMOOTH",
"147 367 OFFCURVE",
"98 366 OFFCURVE",
"19 360 CURVE",
"9 329 LINE",
"42 329 OFFCURVE",
"112 318 OFFCURVE",
"112 248 CURVE SMOOTH",
"112 170 OFFCURVE",
"55 82 OFFCURVE",
"55 6 CURVE SMOOTH",
"55 -80 OFFCURVE",
"147 -81 OFFCURVE",
"241 -81 CURVE SMOOTH",
"248 -81 OFFCURVE",
"286 -79 OFFCURVE",
"293 -79 CURVE",
"305 -50 LINE",
"273 -50 OFFCURVE",
"213 -57 OFFCURVE",
"180 -29 CURVE SMOOTH",
"164 -15 OFFCURVE",
"160 4 OFFCURVE",
"160 21 CURVE SMOOTH",
"160 95 OFFCURVE",
"206 164 OFFCURVE",
"206 242 CURVE SMOOTH",
"206 298 OFFCURVE",
"140 339 OFFCURVE",
"82 340 CURVE",
"162 343 OFFCURVE",
"253 398 OFFCURVE",
"279 467 CURVE SMOOTH",
"301 523 OFFCURVE",
"303 556 OFFCURVE",
"323 600 CURVE SMOOTH",
"341 639 OFFCURVE",
"370 660 OFFCURVE",
"434 675 CURVE SMOOTH",
"458 680 OFFCURVE",
"456 681 OFFCURVE",
"491 681 CURVE"
);
}
);
width = 457;
}
);
note = braceleft;
unicode = 007B;
},
{
glyphname = bar;
layers = (
{
hints = (
{
horizontal = 1;
place = "{702, -20}";
target = down;
type = TopGhost;
},
{
place = "{182, 151}";
type = Stem;
}
);
layerId = "FDC6D5C2-1E82-4E29-8E0D-3EE46E074C54";
paths = (
{
closed = 1;
nodes = (
"279 699 LINE",
"172 -53 LINE",
"242 -55 LINE",
"348 697 LINE"
);
}
);
width = 457;
}
);
note = bar;
unicode = 007C;
},
{
glyphname = braceright;
layers = (
{
hints = (
{
horizontal = 1;
place = "{-81, 18}";
type = Stem;
},
{
horizontal = 1;
place = "{295, 15}";
type = Stem;
},
{
horizontal = 1;
place = "{700, 11}";
type = Stem;
},
{
place = "{335, 85}";
type = Stem;
},
{
place = "{390, 85}";
type = Stem;
}
);
layerId = "FDC6D5C2-1E82-4E29-8E0D-3EE46E074C54";
paths = (
{
closed = 1;
nodes = (
"500 302 LINE",
"467 302 OFFCURVE",
"397 313 OFFCURVE",
"397 383 CURVE SMOOTH",
"397 461 OFFCURVE",
"454 549 OFFCURVE",
"454 625 CURVE SMOOTH",
"454 711 OFFCURVE",
"362 712 OFFCURVE",
"268 712 CURVE SMOOTH",
"261 712 OFFCURVE",
"223 710 OFFCURVE",
"216 710 CURVE",
"204 681 LINE",
"236 681 OFFCURVE",
"296 688 OFFCURVE",
"329 660 CURVE SMOOTH",
"345 646 OFFCURVE",
"349 627 OFFCURVE",
"349 610 CURVE SMOOTH",
"349 536 OFFCURVE",
"303 467 OFFCURVE",
"303 389 CURVE SMOOTH",
"303 333 OFFCURVE",
"368 292 OFFCURVE",
"427 291 CURVE",
"346 288 OFFCURVE",
"255 232 OFFCURVE",
"230 164 CURVE SMOOTH",
"208 108 OFFCURVE",
"206 75 OFFCURVE",
"186 31 CURVE SMOOTH",
"168 -8 OFFCURVE",
"139 -29 OFFCURVE",
"75 -44 CURVE SMOOTH",
"51 -49 OFFCURVE",
"54 -50 OFFCURVE",
"19 -50 CURVE",
"9 -81 LINE",
"123 -85 OFFCURVE",
"163 -63 OFFCURVE",
"202 -44 CURVE SMOOTH",
"236 -27 OFFCURVE",
"268 -3 OFFCURVE",
"282 24 CURVE SMOOTH",
"310 77 OFFCURVE",
"305 111 OFFCURVE",
"326 168 CURVE SMOOTH",
"362 264 OFFCURVE",
"411 265 OFFCURVE",
"490 271 CURVE"
);
}
);
width = 572;
}
);
note = braceright;
unicode = 007D;
},
{
glyphname = asciitilde;
layers = (
{
hints = (
{
horizontal = 1;
place = "{609, 49}";
type = Stem;
},
{
place = "{226, 383}";
type = Stem;
},
{
horizontal = 1;
place = "{652, 49}";
type = Stem;
}
);
layerId = "FDC6D5C2-1E82-4E29-8E0D-3EE46E074C54";
paths = (
{
closed = 1;
nodes = (
"615 697 OFFCURVE",
"601 707 OFFCURVE",
"595 697 CURVE SMOOTH",
"583 680 OFFCURVE",
"556 658 OFFCURVE",
"514 658 CURVE SMOOTH",
"449 658 OFFCURVE",
"400 701 OFFCURVE",
"332 701 CURVE SMOOTH",
"282 701 OFFCURVE",
"242 652 OFFCURVE",
"228 632 CURVE SMOOTH",
"222 623 OFFCURVE",
"236 613 OFFCURVE",
"242 623 CURVE SMOOTH",
"254 641 OFFCURVE",
"274 652 OFFCURVE",
"317 652 CURVE SMOOTH",
"381 652 OFFCURVE",
"433 609 OFFCURVE",
"498 609 CURVE SMOOTH",
"549 609 OFFCURVE",
"585 654 OFFCURVE",
"609 688 CURVE SMOOTH"
);
}
);
width = 514;
}
);
note = asciitilde;
unicode = 007E;
},
{
glyphname = exclamdown;
layers = (
{
hints = (
{
horizontal = 1;
place = "{432, 114}";
type = Stem;
},
{
place = "{262, 108}";
type = Stem;
}
);
layerId = "FDC6D5C2-1E82-4E29-8E0D-3EE46E074C54";
paths = (
{
closed = 1;
nodes = (
"381 512 OFFCURVE",
"367 523 OFFCURVE",
"346 525 CURVE SMOOTH",
"317 529 OFFCURVE",
"292 517 OFFCURVE",
"277 501 CURVE SMOOTH",
"261 485 OFFCURVE",
"259 465 OFFCURVE",
"276 452 CURVE SMOOTH",
"289 442 OFFCURVE",
"308 435 OFFCURVE",
"313 433 CURVE",
"321 448 OFFCURVE",
"358 487 OFFCURVE",
"374 490 CURVE"
);
},
{
closed = 1;
nodes = (
"44 -104 OFFCURVE",
"122 -128 OFFCURVE",
"136 -88 CURVE SMOOTH",
"188 55 OFFCURVE",
"265 281 OFFCURVE",
"282 318 CURVE",
"241 310 LINE",
"231 281 OFFCURVE",
"99 12 OFFCURVE",
"15 -109 CURVE"
);
}
);
width = 375;
}
);
note = exclamdown;
unicode = 00A1;
},
{
glyphname = cent;
layers = (
{
hints = (
{
horizontal = 1;
place = "{89, 56}";
type = Stem;
},
{
horizontal = 1;
place = "{562, 35}";
type = Stem;
},
{
horizontal = 1;
place = "{702, -20}";
target = down;
type = TopGhost;
},
{
place = "{48, 89}";
type = Stem;
},
{
place = "{409, 56}";
type = Stem;
}
);
layerId = "FDC6D5C2-1E82-4E29-8E0D-3EE46E074C54";
paths = (
{
closed = 1;
nodes = (
"481 544 OFFCURVE",
"449 585 OFFCURVE",
"392 595 CURVE",
"430 694 LINE SMOOTH",
"433 701 OFFCURVE",
"389 706 OFFCURVE",
"386 699 CURVE SMOOTH",
"347 598 LINE",
"262 591 OFFCURVE",
"160 516 OFFCURVE",
"105 421 CURVE SMOOTH",
"28 287 OFFCURVE",
"18 122 OFFCURVE",
"151 94 CURVE SMOOTH",
"152 94 OFFCURVE",
"152 93 OFFCURVE",
"153 93 CURVE",
"97 -53 LINE SMOOTH",
"94 -60 OFFCURVE",
"137 -65 OFFCURVE",
"140 -58 CURVE SMOOTH",
"196 89 LINE",
"231 88 OFFCURVE",
"268 95 OFFCURVE",
"301 108 CURVE SMOOTH",
"340 123 OFFCURVE",
"396 157 OFFCURVE",
"425 197 CURVE SMOOTH",
"447 227 OFFCURVE",
"446 271 OFFCURVE",
"420 240 CURVE SMOOTH",
"393 209 OFFCURVE",
"355 175 OFFCURVE",
"315 162 CURVE SMOOTH",
"275 149 OFFCURVE",
"243 144 OFFCURVE",
"218 145 CURVE",
"378 560 LINE",
"396 557 OFFCURVE",
"409 547 OFFCURVE",
"409 530 CURVE SMOOTH",
"409 512 OFFCURVE",
"400 496 OFFCURVE",
"387 483 CURVE",
"371 438 OFFCURVE",
"435 409 OFFCURVE",
"458 476 CURVE SMOOTH"
);
},
{
closed = 1;
nodes = (
"177 155 LINE",
"120 185 OFFCURVE",
"132 276 OFFCURVE",
"163 363 CURVE SMOOTH",
"194 453 OFFCURVE",
"258 531 OFFCURVE",
"331 556 CURVE"
);
}
);
width = 481;
}
);
note = cent;
unicode = 00A2;
},
{
glyphname = sterling;
layers = (
{
hints = (
{
horizontal = 1;
place = "{-8, 76}";
type = Stem;
},
{
horizontal = 1;
place = "{81, 30}";
type = Stem;
},
{
horizontal = 1;
place = "{323, 47}";
type = Stem;
},
{
horizontal = 1;
place = "{612, 76}";
type = Stem;
},
{
place = "{532, 24}";
type = Stem;
},
{
place = "{572, 61}";
type = Stem;
}
);
layerId = "FDC6D5C2-1E82-4E29-8E0D-3EE46E074C54";
paths = (
{
closed = 1;
nodes = (
"622 151 OFFCURVE",
"595 169 OFFCURVE",
"568 170 CURVE SMOOTH",
"565 170 OFFCURVE",
"558 162 OFFCURVE",
"560 161 CURVE SMOOTH",
"571 153 OFFCURVE",
"574 142 OFFCURVE",
"573 128 CURVE SMOOTH",
"562 25 OFFCURVE",
"322 83 OFFCURVE",
"263 97 CURVE SMOOTH",
"235 103 OFFCURVE",
"208 109 OFFCURVE",
"183 112 CURVE",
"225 163 OFFCURVE",
"254 230 OFFCURVE",
"280 289 CURVE SMOOTH",
"295 323 LINE",
"406 323 LINE SMOOTH",
"419 323 OFFCURVE",
"443 370 OFFCURVE",
"435 370 CURVE SMOOTH",
"317 370 LINE",
"349 439 OFFCURVE",
"388 516 OFFCURVE",
"433 572 CURVE SMOOTH",
"463 609 OFFCURVE",
"519 645 OFFCURVE",
"532 560 CURVE SMOOTH",
"533 556 OFFCURVE",
"538 560 OFFCURVE",
"540 563 CURVE",
"548 571 OFFCURVE",
"555 587 OFFCURVE",
"556 605 CURVE SMOOTH",
"560 654 OFFCURVE",
"536 689 OFFCURVE",
"482 689 CURVE SMOOTH",
"436 689 OFFCURVE",
"384 662 OFFCURVE",
"348 615 CURVE SMOOTH",
"292 544 OFFCURVE",
"255 457 OFFCURVE",
"224 370 CURVE",
"145 370 LINE SMOOTH",
"132 370 OFFCURVE",
"108 323 OFFCURVE",
"115 323 CURVE SMOOTH",
"207 323 LINE",
"179 245 OFFCURVE",
"153 170 OFFCURVE",
"118 112 CURVE",
"87 108 OFFCURVE",
"60 97 OFFCURVE",
"41 74 CURVE SMOOTH",
"-3 22 OFFCURVE",
"26 -44 OFFCURVE",
"84 12 CURVE SMOOTH",
"103 31 OFFCURVE",
"116 52 OFFCURVE",
"133 65 CURVE SMOOTH",
"149 77 OFFCURVE",
"176 92 OFFCURVE",
"214 72 CURVE SMOOTH",
"235 61 OFFCURVE",
"299 35 OFFCURVE",
"320 24 CURVE SMOOTH",
"366 0 OFFCURVE",
"433 -11 OFFCURVE",
"489 -8 CURVE SMOOTH",
"594 -1 OFFCURVE",
"646 77 OFFCURVE",
"630 125 CURVE SMOOTH"
);
}
);
width = 643;
}
);
note = sterling;
unicode = 00A3;
},
{
glyphname = currency;
layers = (
{
hints = (
{
horizontal = 1;
place = "{161, 50}";
type = Stem;
},
{
horizontal = 1;
place = "{483, 49}";
type = Stem;
},
{
place = "{215, 71}";
type = Stem;
},
{
place = "{549, 71}";
type = Stem;
}
);
layerId = "FDC6D5C2-1E82-4E29-8E0D-3EE46E074C54";
paths = (
{
closed = 1;
nodes = (
"565 489 LINE",
"533 516 OFFCURVE",
"491 532 OFFCURVE",
"441 532 CURVE SMOOTH",
"397 532 OFFCURVE",
"354 519 OFFCURVE",
"318 497 CURVE",
"218 593 LINE SMOOTH",
"211 600 OFFCURVE",
"184 509 OFFCURVE",
"196 498 CURVE SMOOTH",
"255 441 LINE",
"234 413 OFFCURVE",
"219 381 OFFCURVE",
"215 346 CURVE SMOOTH",
"210 312 OFFCURVE",
"216 279 OFFCURVE",
"231 251 CURVE",
"134 183 LINE SMOOTH",
"120 173 OFFCURVE",
"111 82 OFFCURVE",
"121 88 CURVE SMOOTH",
"276 198 LINE",
"307 175 OFFCURVE",
"347 161 OFFCURVE",
"393 161 CURVE SMOOTH",
"436 161 OFFCURVE",
"477 173 OFFCURVE",
"513 194 CURVE",
"624 88 LINE SMOOTH",
"630 82 OFFCURVE",
"656 173 OFFCURVE",
"644 183 CURVE SMOOTH",
"576 248 LINE",
"599 276 OFFCURVE",
"615 310 OFFCURVE",
"620 346 CURVE SMOOTH",
"624 378 OFFCURVE",
"619 408 OFFCURVE",
"607 434 CURVE",
"697 498 LINE SMOOTH",
"713 509 OFFCURVE",
"720 600 OFFCURVE",
"711 593 CURVE SMOOTH"
);
},
{
closed = 1;
nodes = (
"540 272 OFFCURVE",
"474 211 OFFCURVE",
"402 211 CURVE SMOOTH",
"329 211 OFFCURVE",
"277 272 OFFCURVE",
"286 347 CURVE SMOOTH",
"294 422 OFFCURVE",
"360 483 OFFCURVE",
"433 483 CURVE SMOOTH",
"506 483 OFFCURVE",
"558 422 OFFCURVE",
"549 347 CURVE SMOOTH"
);
}
);
width = 833;
}
);
note = currency;
unicode = 00A4;
},
{
glyphname = yen;
layers = (
{
hints = (
{
horizontal = 1;
place = "{-7, 43}";
type = Stem;
},
{
horizontal = 1;
place = "{207, 58}";
type = Stem;
},
{
horizontal = 1;
place = "{320, 58}";
type = Stem;
},
{
horizontal = 1;
place = "{624, 81}";
type = Stem;
},
{
horizontal = 1;
place = "{698, -20}";
target = down;
type = TopGhost;
},
{
place = "{203, 118}";
type = Stem;
}
);
layerId = "FDC6D5C2-1E82-4E29-8E0D-3EE46E074C54";
paths = (
{
closed = 1;
nodes = (
"688 698 OFFCURVE",
"610 707 OFFCURVE",
"588 678 CURVE SMOOTH",
"519 588 OFFCURVE",
"420 441 OFFCURVE",
"345 337 CURVE",
"324 419 OFFCURVE",
"296 527 OFFCURVE",
"272 600 CURVE SMOOTH",
"249 672 OFFCURVE",
"240 699 OFFCURVE",
"189 696 CURVE SMOOTH",
"134 692 OFFCURVE",
"64 651 OFFCURVE",
"24 608 CURVE SMOOTH",
"20 604 OFFCURVE",
"25 587 OFFCURVE",
"30 592 CURVE SMOOTH",
"97 648 OFFCURVE",
"131 636 OFFCURVE",
"153 583 CURVE SMOOTH",
"180 517 OFFCURVE",
"217 421 OFFCURVE",
"235 342 CURVE",
"178 342 LINE SMOOTH",
"163 342 OFFCURVE",
"127 284 OFFCURVE",
"135 284 CURVE SMOOTH",
"245 284 LINE",
"247 255 OFFCURVE",
"240 220 OFFCURVE",
"227 183 CURVE",
"134 183 LINE SMOOTH",
"119 183 OFFCURVE",
"83 125 OFFCURVE",
"91 125 CURVE SMOOTH",
"207 125 LINE",
"191 79 OFFCURVE",
"178 37 OFFCURVE",
"170 0 CURVE",
"299 0 LINE",
"292 14 OFFCURVE",
"295 43 OFFCURVE",
"303 80 CURVE SMOOTH",
"306 95 OFFCURVE",
"310 110 OFFCURVE",
"314 125 CURVE",
"410 125 LINE SMOOTH",
"425 125 OFFCURVE",
"461 183 OFFCURVE",
"453 183 CURVE SMOOTH",
"333 183 LINE",
"346 217 OFFCURVE",
"361 251 OFFCURVE",
"378 284 CURVE",
"454 284 LINE SMOOTH",
"469 284 OFFCURVE",
"505 342 OFFCURVE",
"497 342 CURVE SMOOTH",
"409 342 LINE",
"448 409 OFFCURVE",
"491 468 OFFCURVE",
"531 515 CURVE SMOOTH",
"597 592 OFFCURVE",
"668 657 OFFCURVE",
"727 698 CURVE"
);
}
);
width = 655;
}
);
note = yen;
unicode = 00A5;
},
{
glyphname = brokenbar;
layers = (
{
hints = (
{
horizontal = 1;
place = "{699, -20}";
target = down;
type = TopGhost;
},
{
place = "{249, 152}";
type = Stem;
}
);
layerId = "FDC6D5C2-1E82-4E29-8E0D-3EE46E074C54";
paths = (
{
closed = 1;
nodes = (
"401 691 LINE SMOOTH",
"402 698 OFFCURVE",
"357 703 OFFCURVE",
"356 696 CURVE SMOOTH",
"310 379 LINE SMOOTH",
"309 372 OFFCURVE",
"354 367 OFFCURVE",
"355 374 CURVE SMOOTH"
);
},
{
closed = 1;
nodes = (
"340 259 LINE SMOOTH",
"341 266 OFFCURVE",
"296 271 OFFCURVE",
"295 264 CURVE SMOOTH",
"249 -53 LINE SMOOTH",
"248 -60 OFFCURVE",
"293 -65 OFFCURVE",
"294 -58 CURVE SMOOTH"
);
}
);
width = 457;
}
);
note = brokenbar;
unicode = 00A6;
},
{
glyphname = section;
layers = (
{
hints = (
{
horizontal = 1;
place = "{-227, 98}";
type = Stem;
},
{
horizontal = 1;
place = "{505, -20}";
target = down;
type = TopGhost;
},
{
horizontal = 1;
place = "{670, 40}";
type = Stem;
},
{
place = "{8, 74}";
type = Stem;
},
{
place = "{188, 80}";
type = Stem;
},
{
place = "{390, 136}";
type = Stem;
},
{
place = "{556, 115}";
type = Stem;
},
{
place = "{654, 73}";
type = Stem;
}
);
layerId = "FDC6D5C2-1E82-4E29-8E0D-3EE46E074C54";
paths = (
{
closed = 1;
nodes = (
"856 513 OFFCURVE",
"921 718 OFFCURVE",
"680 716 CURVE SMOOTH",
"616 716 OFFCURVE",
"554 701 OFFCURVE",
"509 662 CURVE SMOOTH",
"467 627 OFFCURVE",
"445 575 OFFCURVE",
"445 523 CURVE SMOOTH",
"445 517 OFFCURVE",
"445 511 OFFCURVE",
"446 506 CURVE",
"425 506 LINE SMOOTH",
"361 506 OFFCURVE",
"299 491 OFFCURVE",
"254 452 CURVE SMOOTH",
"212 417 OFFCURVE",
"190 365 OFFCURVE",
"190 313 CURVE SMOOTH",
"190 230 OFFCURVE",
"243 181 OFFCURVE",
"297 123 CURVE SMOOTH",
"323 96 OFFCURVE",
"357 64 OFFCURVE",
"375 23 CURVE SMOOTH",
"428 -97 OFFCURVE",
"332 -197 OFFCURVE",
"232 -193 CURVE SMOOTH",
"158 -189 OFFCURVE",
"120 -131 OFFCURVE",
"158 -66 CURVE SMOOTH",
"161 -60 OFFCURVE",
"173 -47 OFFCURVE",
"178 -43 CURVE",
"168 -23 OFFCURVE",
"136 -7 OFFCURVE",
"103 -15 CURVE SMOOTH",
"16 -36 OFFCURVE",
"12 -145 OFFCURVE",
"73 -191 CURVE SMOOTH",
"111 -219 OFFCURVE",
"170 -229 OFFCURVE",
"236 -230 CURVE SMOOTH",
"381 -230 OFFCURVE",
"502 -135 OFFCURVE",
"512 -19 CURVE",
"717 -7 OFFCURVE",
"864 195 OFFCURVE",
"691 368 CURVE SMOOTH",
"654 405 OFFCURVE",
"589 457 OFFCURVE",
"559 504 CURVE SMOOTH",
"506 583 OFFCURVE",
"569 681 OFFCURVE",
"674 681 CURVE SMOOTH",
"727 681 OFFCURVE",
"770 649 OFFCURVE",
"751 599 CURVE SMOOTH",
"742 577 OFFCURVE",
"713 557 OFFCURVE",
"689 557 CURVE",
"678 507 OFFCURVE",
"718 493 OFFCURVE",
"759 499 CURVE SMOOTH"
);
},
{
closed = 1;
nodes = (
"578 305 OFFCURVE",
"611 274 OFFCURVE",
"630 233 CURVE SMOOTH",
"678 122 OFFCURVE",
"601 28 OFFCURVE",
"511 17 CURVE",
"505 63 OFFCURVE",
"482 112 OFFCURVE",
"436 158 CURVE SMOOTH",
"399 195 OFFCURVE",
"335 247 OFFCURVE",
"304 294 CURVE SMOOTH",
"252 373 OFFCURVE",
"314 471 OFFCURVE",
"419 471 CURVE SMOOTH",
"432 471 OFFCURVE",
"443 471 OFFCURVE",
"452 472 CURVE",
"469 417 OFFCURVE",
"510 377 OFFCURVE",
"552 333 CURVE SMOOTH"
);
}
);
width = 857;
}
);
note = section;
unicode = 00A7;
},
{
glyphname = dieresis;
lastChange = "2020-01-03 21:38:09 +0000";
layers = (
{
hints = (
{
horizontal = 1;
place = "{562, 96}";
type = Stem;
},
{
place = "{273, 91}";
type = Stem;
},
{
place = "{487, 91}";
type = Stem;
}
);
layerId = "FDC6D5C2-1E82-4E29-8E0D-3EE46E074C54";
paths = (
{
closed = 1;
nodes = (
"542 614 OFFCURVE",
"516 668 OFFCURVE",
"495 663 CURVE SMOOTH",
"466 656 OFFCURVE",
"429 600 OFFCURVE",
"428 577 CURVE SMOOTH",
"427 559 OFFCURVE",
"454 553 OFFCURVE",
"468 567 CURVE SMOOTH",
"479 578 OFFCURVE",
"499 603 OFFCURVE",
"523 609 CURVE SMOOTH"
);
},
{
closed = 1;
nodes = (
"385 614 OFFCURVE",
"359 668 OFFCURVE",
"338 663 CURVE SMOOTH",
"309 655 OFFCURVE",
"272 600 OFFCURVE",
"271 577 CURVE SMOOTH",
"270 559 OFFCURVE",
"297 553 OFFCURVE",
"311 567 CURVE SMOOTH",
"322 578 OFFCURVE",
"342 603 OFFCURVE",
"366 609 CURVE SMOOTH"
);
}
);
width = 580;
}
);
note = dieresis;
unicode = 00A8;
},
{
glyphname = copyright;
layers = (
{
hints = (
{
horizontal = 1;
place = "{63, 41}";
type = Stem;
},
{
horizontal = 1;
place = "{429, 46}";
type = Stem;
},
{
horizontal = 1;
place = "{588, 28}";
type = Stem;
},
{
place = "{105, 98}";
type = Stem;
},
{
place = "{453, 8}";
type = Stem;
},
{
place = "{559, 49}";
type = Stem;
},
{
place = "{585, 14}";
type = Stem;
}
);
layerId = "FDC6D5C2-1E82-4E29-8E0D-3EE46E074C54";
paths = (
{
closed = 1;
nodes = (
"815 532 OFFCURVE",
"668 685 OFFCURVE",
"462 685 CURVE SMOOTH",
"256 685 OFFCURVE",
"68 532 OFFCURVE",
"44 343 CURVE SMOOTH",
"19 154 OFFCURVE",
"166 1 OFFCURVE",
"372 1 CURVE SMOOTH",
"578 1 OFFCURVE",
"765 154 OFFCURVE",
"790 343 CURVE SMOOTH"
);
},
{
closed = 1;
nodes = (
"694 175 OFFCURVE",
"545 38 OFFCURVE",
"382 38 CURVE SMOOTH",
"218 38 OFFCURVE",
"101 175 OFFCURVE",
"121 344 CURVE SMOOTH",
"140 513 OFFCURVE",
"289 650 OFFCURVE",
"453 650 CURVE SMOOTH",
"616 650 OFFCURVE",
"733 513 OFFCURVE",
"714 344 CURVE SMOOTH"
);
},
{
closed = 1;
nodes = (
"601 262 OFFCURVE",
"587 294 OFFCURVE",
"573 276 CURVE SMOOTH",
"526 215 OFFCURVE",
"465 173 OFFCURVE",
"399 166 CURVE SMOOTH",
"308 158 OFFCURVE",
"277 266 OFFCURVE",
"318 378 CURVE SMOOTH",
"347 457 OFFCURVE",
"393 524 OFFCURVE",
"449 546 CURVE SMOOTH",
"510 569 OFFCURVE",
"528 520 OFFCURVE",
"507 483 CURVE SMOOTH",
"497 465 OFFCURVE",
"477 462 OFFCURVE",
"468 460 CURVE",
"463 422 OFFCURVE",
"488 405 OFFCURVE",
"515 407 CURVE SMOOTH",
"559 411 OFFCURVE",
"583 458 OFFCURVE",
"579 503 CURVE SMOOTH",
"575 550 OFFCURVE",
"530 588 OFFCURVE",
"461 582 CURVE SMOOTH",
"349 572 OFFCURVE",
"281 498 OFFCURVE",
"238 400 CURVE SMOOTH",
"183 276 OFFCURVE",
"221 112 OFFCURVE",
"379 126 CURVE SMOOTH",
"471 135 OFFCURVE",
"539 182 OFFCURVE",
"588 244 CURVE SMOOTH"
);
}
);
width = 674;
}
);
note = copyright;
unicode = 00A9;
},
{
glyphname = ordfeminine;
layers = (
{
hints = (
{
horizontal = 1;
place = "{295, 84}";
type = Stem;
},
{
horizontal = 1;
place = "{638, 15}";
type = Stem;
},
{
horizontal = 1;
place = "{668, 37}";
type = Stem;
},
{
place = "{27, 97}";
type = Stem;
},
{
place = "{364, 7}";
type = Stem;
},
{
horizontal = 1;
place = "{702, -20}";
target = down;
type = TopGhost;
}
);
layerId = "FDC6D5C2-1E82-4E29-8E0D-3EE46E074C54";
paths = (
{
closed = 1;
nodes = (
"563 533 OFFCURVE",
"556 576 OFFCURVE",
"543 551 CURVE SMOOTH",
"526 518 OFFCURVE",
"501 474 OFFCURVE",
"473 440 CURVE SMOOTH",
"461 424 OFFCURVE",
"448 410 OFFCURVE",
"434 399 CURVE SMOOTH",
"383 358 OFFCURVE",
"367 383 OFFCURVE",
"382 440 CURVE SMOOTH",
"398 502 OFFCURVE",
"429 572 OFFCURVE",
"465 641 CURVE SMOOTH",
"472 655 OFFCURVE",
"494 692 OFFCURVE",
"505 701 CURVE",
"493 700 OFFCURVE",
"459 702 OFFCURVE",
"445 702 CURVE SMOOTH",
"416 702 OFFCURVE",
"392 679 OFFCURVE",
"373 650 CURVE",
"371 648 OFFCURVE",
"369 647 OFFCURVE",
"368 645 CURVE",
"355 693 OFFCURVE",
"305 706 OFFCURVE",
"271 706 CURVE SMOOTH",
"129 706 OFFCURVE",
"28 529 OFFCURVE",
"28 391 CURVE SMOOTH",
"28 324 OFFCURVE",
"56 299 OFFCURVE",
"93 299 CURVE SMOOTH",
"140 298 OFFCURVE",
"189 337 OFFCURVE",
"233 390 CURVE SMOOTH",
"258 419 OFFCURVE",
"283 460 OFFCURVE",
"306 501 CURVE",
"299 480 OFFCURVE",
"295 461 OFFCURVE",
"291 442 CURVE SMOOTH",
"278 370 OFFCURVE",
"281 296 OFFCURVE",
"339 296 CURVE SMOOTH",
"386 296 OFFCURVE",
"445 357 OFFCURVE",
"473 394 CURVE SMOOTH",
"500 431 OFFCURVE",
"526 472 OFFCURVE",
"545 504 CURVE SMOOTH"
);
},
{
closed = 1;
nodes = (
"358 629 OFFCURVE",
"332 584 OFFCURVE",
"273 491 CURVE SMOOTH",
"236 434 OFFCURVE",
"177 372 OFFCURVE",
"140 383 CURVE SMOOTH",
"95 396 OFFCURVE",
"160 559 OFFCURVE",
"227 628 CURVE SMOOTH",
"266 668 OFFCURVE",
"346 691 OFFCURVE",
"362 636 CURVE"
);
}
);
width = 473;
}
);
note = ordfeminine;
unicode = 00AA;
},
{
glyphname = guillemotleft;
layers = (
{
hints = (
{
horizontal = 1;
place = "{25, 551}";
type = Stem;
},
{
place = "{177, 387}";
type = Stem;
}
);
layerId = "FDC6D5C2-1E82-4E29-8E0D-3EE46E074C54";
paths = (
{
closed = 1;
nodes = (
"555 443 OFFCURVE",
"446 373 OFFCURVE",
"335 311 CURVE SMOOTH",
"300 291 OFFCURVE",
"306 283 OFFCURVE",
"331 265 CURVE SMOOTH",
"409 209 OFFCURVE",
"464 154 OFFCURVE",
"532 77 CURVE SMOOTH",
"539 70 OFFCURVE",
"589 108 OFFCURVE",
"580 124 CURVE SMOOTH",
"547 180 OFFCURVE",
"448 259 OFFCURVE",
"389 300 CURVE",
"448 336 OFFCURVE",
"616 449 OFFCURVE",
"648 489 CURVE",
"658 499 OFFCURVE",
"666 528 OFFCURVE",
"656 521 CURVE SMOOTH"
);
},
{
closed = 1;
nodes = (
"312 444 OFFCURVE",
"204 373 OFFCURVE",
"94 311 CURVE SMOOTH",
"59 291 OFFCURVE",
"65 283 OFFCURVE",
"89 265 CURVE SMOOTH",
"167 209 OFFCURVE",
"222 154 OFFCURVE",
"290 77 CURVE SMOOTH",
"297 70 OFFCURVE",
"348 108 OFFCURVE",
"338 124 CURVE SMOOTH",
"306 180 OFFCURVE",
"206 259 OFFCURVE",
"148 300 CURVE",
"206 336 OFFCURVE",
"374 449 OFFCURVE",
"406 489 CURVE",
"416 499 OFFCURVE",
"424 529 OFFCURVE",
"414 521 CURVE SMOOTH"
);
}
);
width = 671;
}
);
note = guillemotleft;
unicode = 00AB;
},
{
glyphname = logicalnot;
layers = (
{
hints = (
{
horizontal = 1;
place = "{317, 50}";
type = Stem;
},
{
place = "{646, 64}";
type = Stem;
}
);
layerId = "FDC6D5C2-1E82-4E29-8E0D-3EE46E074C54";
paths = (
{
closed = 1;
nodes = (
"716 347 OFFCURVE",
"682 369 OFFCURVE",
"669 369 CURVE SMOOTH",
"3 359 LINE",
"3 314 LINE",
"646 323 LINE",
"646 323 OFFCURVE",
"632 132 OFFCURVE",
"625 31 CURVE",
"628 18 OFFCURVE",
"647 14 OFFCURVE",
"650 24 CURVE",
"670 131 OFFCURVE",
"687 214 OFFCURVE",
"710 321 CURVE SMOOTH"
);
}
);
width = 811;
}
);
note = logicalnot;
unicode = 00AC;
},
{
glyphname = registered;
layers = (
{
hints = (
{
horizontal = 1;
place = "{114, 14}";
type = Stem;
},
{
horizontal = 1;
place = "{340, 18}";
type = Stem;
},
{
horizontal = 1;
place = "{564, 20}";
type = Stem;
},
{
place = "{133, 75}";
type = Stem;
},
{
place = "{470, 71}";
type = Stem;
}
);
layerId = "FDC6D5C2-1E82-4E29-8E0D-3EE46E074C54";
paths = (
{
closed = 1;
nodes = (
"815 532 OFFCURVE",
"668 685 OFFCURVE",
"462 685 CURVE SMOOTH",
"256 685 OFFCURVE",
"68 532 OFFCURVE",
"44 343 CURVE SMOOTH",
"19 154 OFFCURVE",
"166 1 OFFCURVE",
"372 1 CURVE SMOOTH",
"578 1 OFFCURVE",
"765 154 OFFCURVE",
"790 343 CURVE SMOOTH"
);
},
{
closed = 1;
nodes = (
"694 175 OFFCURVE",
"545 38 OFFCURVE",
"382 38 CURVE SMOOTH",
"218 38 OFFCURVE",
"101 175 OFFCURVE",
"121 344 CURVE SMOOTH",
"140 513 OFFCURVE",
"289 650 OFFCURVE",
"453 650 CURVE SMOOTH",
"616 650 OFFCURVE",
"733 513 OFFCURVE",
"714 344 CURVE SMOOTH"
);
},
{
closed = 1;
nodes = (
"613 531 OFFCURVE",
"602 557 OFFCURVE",
"576 574 CURVE SMOOTH",
"556 587 OFFCURVE",
"526 596 OFFCURVE",
"488 596 CURVE SMOOTH",
"383 596 LINE",
"352 549 OFFCURVE",
"295 411 OFFCURVE",
"280 376 CURVE SMOOTH",
"243 286 OFFCURVE",
"205 192 OFFCURVE",
"190 125 CURVE",
"277 125 LINE",
"261 156 OFFCURVE",
"321 307 OFFCURVE",
"338 349 CURVE SMOOTH",
"366 418 OFFCURVE",
"414 521 OFFCURVE",
"454 575 CURVE",
"467 575 OFFCURVE",
"479 574 OFFCURVE",
"490 571 CURVE SMOOTH",
"532 562 OFFCURVE",
"550 530 OFFCURVE",
"548 495 CURVE SMOOTH",
"546 435 OFFCURVE",
"500 399 OFFCURVE",
"446 383 CURVE SMOOTH",
"428 377 OFFCURVE",
"407 373 OFFCURVE",
"385 371 CURVE SMOOTH",
"373 369 OFFCURVE",
"376 357 OFFCURVE",
"377 351 CURVE SMOOTH",
"385 302 OFFCURVE",
"442 126 OFFCURVE",
"498 126 CURVE",
"498 126 OFFCURVE",
"560 121 OFFCURVE",
"581 126 CURVE",
"537 172 OFFCURVE",
"471 248 OFFCURVE",
"439 358 CURVE",
"461 362 LINE SMOOTH",
"533 376 OFFCURVE",
"613 420 OFFCURVE",
"613 504 CURVE SMOOTH"
);
}
);
width = 831;
}
);
note = registered;
unicode = 00AE;
},
{
glyphname = macron;
layers = (
{
hints = (
{
horizontal = 1;
place = "{637, 53}";
type = Stem;
},
{
place = "{243, 349}";
type = Stem;
}
);
layerId = "FDC6D5C2-1E82-4E29-8E0D-3EE46E074C54";
paths = (
{
closed = 1;
nodes = (
"315 685 LINE SMOOTH",
"304 685 OFFCURVE",
"275 644 OFFCURVE",
"281 644 CURVE SMOOTH",
"522 644 LINE SMOOTH",
"533 644 OFFCURVE",
"563 685 OFFCURVE",
"556 685 CURVE SMOOTH"
);
}
);
width = 514;
}
);
note = macron;
unicode = 00AF;
},
{
glyphname = degree;
layers = (
{
hints = (
{
horizontal = 1;
place = "{709, -20}";
target = down;
type = TopGhost;
},
{
place = "{270, 54}";
type = Stem;
},
{
place = "{489, 43}";
type = Stem;
}
);
layerId = "FDC6D5C2-1E82-4E29-8E0D-3EE46E074C54";
paths = (
{
closed = 1;
nodes = (
"545 646 OFFCURVE",
"523 708 OFFCURVE",
"440 709 CURVE SMOOTH",
"352 710 OFFCURVE",
"294 654 OFFCURVE",
"275 594 CURVE SMOOTH",
"257 535 OFFCURVE",
"281 474 OFFCURVE",
"360 473 CURVE SMOOTH",
"446 472 OFFCURVE",
"506 528 OFFCURVE",
"526 588 CURVE SMOOTH"
);
},
{
closed = 1;
nodes = (
"539 664 OFFCURVE",
"466 486 OFFCURVE",
"363 502 CURVE SMOOTH",
"277 516 OFFCURVE",
"345 694 OFFCURVE",
"448 678 CURVE SMOOTH"
);
}
);
width = 833;
}
);
note = degree;
unicode = 00B0;
},
{
glyphname = plusminus;
layers = (
{
hints = (
{
horizontal = 1;
place = "{-39, 21}";
target = up;
type = BottomGhost;
},
{
horizontal = 1;
place = "{317, 50}";
type = Stem;
},
{
place = "{-36, 737}";
type = Stem;
}
);
layerId = "FDC6D5C2-1E82-4E29-8E0D-3EE46E074C54";
paths = (
{
closed = 1;
nodes = (
"656 371 OFFCURVE",
"515 369 OFFCURVE",
"412 368 CURVE",
"452 459 OFFCURVE",
"503 570 OFFCURVE",
"522 612 CURVE SMOOTH",
"527 622 OFFCURVE",
"429 594 OFFCURVE",
"423 574 CURVE SMOOTH",
"411 536 OFFCURVE",
"375 440 OFFCURVE",
"346 368 CURVE",
"275 368 OFFCURVE",
"150 369 OFFCURVE",
"109 376 CURVE SMOOTH",
"90 379 OFFCURVE",
"36 310 OFFCURVE",
"47 311 CURVE SMOOTH",
"125 317 OFFCURVE",
"241 318 OFFCURVE",
"326 318 CURVE",
"291 234 OFFCURVE",
"239 114 OFFCURVE",
"197 36 CURVE SMOOTH",
"191 26 OFFCURVE",
"293 54 OFFCURVE",
"297 74 CURVE SMOOTH",
"307 117 OFFCURVE",
"354 245 OFFCURVE",
"387 311 CURVE SMOOTH",
"390 317 LINE",
"473 316 OFFCURVE",
"599 311 OFFCURVE",
"637 308 CURVE SMOOTH",
"657 306 OFFCURVE",
"711 373 OFFCURVE",
"700 373 CURVE SMOOTH"
);
},
{
closed = 1;
nodes = (
"11 -39 LINE SMOOTH",
"-4 -39 OFFCURVE",
"-43 -97 OFFCURVE",
"-35 -97 CURVE SMOOTH",
"448 -97 LINE SMOOTH",
"463 -97 OFFCURVE",
"502 -39 OFFCURVE",
"494 -39 CURVE SMOOTH"
);
}
);
width = 722;
}
);
note = plusminus;
unicode = 00B1;
},
{
glyphname = twosuperior;
layers = (
{
hints = (
{
horizontal = 1;
place = "{120, 92}";
type = Stem;
},
{
horizontal = 1;
place = "{124, 21}";
target = up;
type = BottomGhost;
},
{
horizontal = 1;
place = "{226, 48}";
type = Stem;
},
{
horizontal = 1;
place = "{759, 49}";
type = Stem;
},
{
place = "{5, 67}";
type = Stem;
},
{
place = "{103, 89}";
type = Stem;
},
{
place = "{398, 135}";
type = Stem;
}
);
layerId = "FDC6D5C2-1E82-4E29-8E0D-3EE46E074C54";
paths = (
{
closed = 1;
nodes = (
"485 633 OFFCURVE",
"455 672 OFFCURVE",
"415 689 CURVE SMOOTH",
"370 709 OFFCURVE",
"294 712 OFFCURVE",
"244 699 CURVE SMOOTH",
"188 685 OFFCURVE",
"121 649 OFFCURVE",
"110 591 CURVE SMOOTH",
"98 528 OFFCURVE",
"143 492 OFFCURVE",
"188 520 CURVE",
"166 584 OFFCURVE",
"227 665 OFFCURVE",
"292 666 CURVE SMOOTH",
"380 668 OFFCURVE",
"376 575 OFFCURVE",
"328 514 CURVE SMOOTH",
"275 447 OFFCURVE",
"204 405 OFFCURVE",
"136 355 CURVE SMOOTH",
"91 322 OFFCURVE",
"47 283 OFFCURVE",
"22 236 CURVE SMOOTH",
"9 212 OFFCURVE",
"1 185 OFFCURVE",
"3 157 CURVE SMOOTH",
"6 108 OFFCURVE",
"56 122 OFFCURVE",
"60 157 CURVE SMOOTH",
"62 174 OFFCURVE",
"60 187 OFFCURVE",
"73 202 CURVE SMOOTH",
"87 218 OFFCURVE",
"112 217 OFFCURVE",
"140 195 CURVE SMOOTH",
"154 185 OFFCURVE",
"195 162 OFFCURVE",
"209 152 CURVE SMOOTH",
"239 129 OFFCURVE",
"284 118 OFFCURVE",
"322 122 CURVE SMOOTH",
"399 129 OFFCURVE",
"427 190 OFFCURVE",
"427 259 CURVE",
"408 259 LINE",
"408 202 OFFCURVE",
"363 196 OFFCURVE",
"315 199 CURVE SMOOTH",
"278 202 OFFCURVE",
"215 215 OFFCURVE",
"179 227 CURVE SMOOTH",
"163 232 OFFCURVE",
"116 244 OFFCURVE",
"90 253 CURVE",
"137 314 OFFCURVE",
"238 364 OFFCURVE",
"305 395 CURVE SMOOTH",
"392 436 OFFCURVE",
"460 487 OFFCURVE",
"474 571 CURVE SMOOTH"
);
}
);
width = 491;
}
);
note = twosuperior;
unicode = 00B2;
},
{
glyphname = threesuperior;
layers = (
{
hints = (
{
horizontal = 1;
place = "{107, 43}";
type = Stem;
},
{
horizontal = 1;
place = "{350, 17}";
type = Stem;
},
{
horizontal = 1;
place = "{458, 49}";
type = Stem;
},
{
horizontal = 1;
place = "{764, 42}";
type = Stem;
},
{
place = "{7, 107}";
type = Stem;
},
{
place = "{165, 47}";
type = Stem;
},
{
place = "{390, 133}";
type = Stem;
},
{
place = "{433, 127}";
type = Stem;
}
);
layerId = "FDC6D5C2-1E82-4E29-8E0D-3EE46E074C54";
paths = (
{
closed = 1;
nodes = (
"481 631 OFFCURVE",
"449 670 OFFCURVE",
"408 687 CURVE SMOOTH",
"362 707 OFFCURVE",
"286 710 OFFCURVE",
"237 697 CURVE SMOOTH",
"181 683 OFFCURVE",
"116 647 OFFCURVE",
"108 589 CURVE SMOOTH",
"99 527 OFFCURVE",
"140 489 OFFCURVE",
"186 517 CURVE",
"159 583 OFFCURVE",
"212 668 OFFCURVE",
"284 669 CURVE SMOOTH",
"384 671 OFFCURVE",
"382 571 OFFCURVE",
"337 510 CURVE SMOOTH",
"314 479 OFFCURVE",
"275 450 OFFCURVE",
"237 441 CURVE",
"216 448 OFFCURVE",
"184 455 OFFCURVE",
"160 447 CURVE SMOOTH",
"141 440 OFFCURVE",
"135 424 OFFCURVE",
"141 412 CURVE SMOOTH",
"147 399 OFFCURVE",
"163 392 OFFCURVE",
"182 401 CURVE SMOOTH",
"226 420 OFFCURVE",
"284 407 OFFCURVE",
"310 366 CURVE SMOOTH",
"332 332 OFFCURVE",
"336 284 OFFCURVE",
"322 244 CURVE SMOOTH",
"303 193 OFFCURVE",
"257 150 OFFCURVE",
"200 148 CURVE SMOOTH",
"141 145 OFFCURVE",
"95 172 OFFCURVE",
"95 231 CURVE SMOOTH",
"95 257 OFFCURVE",
"109 287 OFFCURVE",
"131 317 CURVE",
"107 335 OFFCURVE",
"72 338 OFFCURVE",
"45 318 CURVE SMOOTH",
"-2 284 OFFCURVE",
"-9 213 OFFCURVE",
"27 167 CURVE SMOOTH",
"83 93 OFFCURVE",
"232 102 OFFCURVE",
"307 134 CURVE SMOOTH",
"369 160 OFFCURVE",
"421 208 OFFCURVE",
"439 278 CURVE SMOOTH",
"457 348 OFFCURVE",
"417 415 OFFCURVE",
"340 432 CURVE",
"412 458 OFFCURVE",
"467 508 OFFCURVE",
"474 569 CURVE SMOOTH"
);
}
);
width = 473;
}
);
note = threesuperior;
unicode = 00B3;
},
{
glyphname = acute;
layers = (
{
hints = (
{
horizontal = 1;
place = "{525, 138}";
type = Stem;
},
{
place = "{279, 241}";
type = Stem;
}
);
layerId = "FDC6D5C2-1E82-4E29-8E0D-3EE46E074C54";
paths = (
{
closed = 1;
nodes = (
"495 616 OFFCURVE",
"437 649 OFFCURVE",
"423 639 CURVE SMOOTH",
"374 604 OFFCURVE",
"298 545 OFFCURVE",
"283 538 CURVE",
"282 535 OFFCURVE",
"303 524 OFFCURVE",
"307 526 CURVE SMOOTH",
"323 537 OFFCURVE",
"408 580 OFFCURVE",
"480 610 CURVE SMOOTH"
);
}
);
width = 531;
}
);
note = acute;
unicode = 00B4;
},
{
glyphname = mu;
layers = (
{
hints = (
{
horizontal = 1;
place = "{-7, 85}";
type = Stem;
},
{
horizontal = 1;
place = "{389, -20}";
target = down;
type = TopGhost;
},
{
place = "{22, 104}";
type = Stem;
},
{
place = "{261, 93}";
type = Stem;
},
{
horizontal = 1;
place = "{400, -20}";
target = down;
type = TopGhost;
},
{
horizontal = 1;
place = "{-6, 65}";
type = Stem;
}
);
layerId = "FDC6D5C2-1E82-4E29-8E0D-3EE46E074C54";
paths = (
{
closed = 1;
nodes = (
"543 231 OFFCURVE",
"536 274 OFFCURVE",
"523 249 CURVE SMOOTH",
"506 216 OFFCURVE",
"481 172 OFFCURVE",
"453 138 CURVE SMOOTH",
"441 122 OFFCURVE",
"428 108 OFFCURVE",
"414 97 CURVE SMOOTH",
"360 54 OFFCURVE",
"346 88 OFFCURVE",
"359 138 CURVE SMOOTH",
"375 200 OFFCURVE",
"408 270 OFFCURVE",
"443 339 CURVE SMOOTH",
"451 354 OFFCURVE",
"472 392 OFFCURVE",
"484 400 CURVE",
"473 398 OFFCURVE",
"432 400 OFFCURVE",
"417 400 CURVE SMOOTH",
"387 400 OFFCURVE",
"366 373 OFFCURVE",
"346 342 CURVE SMOOTH",
"306 278 OFFCURVE",
"215 61 OFFCURVE",
"152 59 CURVE SMOOTH",
"97 58 OFFCURVE",
"146 187 OFFCURVE",
"154 210 CURVE SMOOTH",
"171 258 OFFCURVE",
"206 341 OFFCURVE",
"241 390 CURVE",
"196 390 LINE SMOOTH",
"155 390 OFFCURVE",
"137 388 OFFCURVE",
"124 368 CURVE SMOOTH",
"105 339 OFFCURVE",
"89 302 OFFCURVE",
"76 270 CURVE SMOOTH",
"63 237 OFFCURVE",
"51 202 OFFCURVE",
"41 171 CURVE SMOOTH",
"17 98 OFFCURVE",
"-7 24 OFFCURVE",
"-36 -46 CURVE SMOOTH",
"-56 -93 OFFCURVE",
"-80 -147 OFFCURVE",
"-123 -180 CURVE SMOOTH",
"-189 -232 OFFCURVE",
"-249 -202 OFFCURVE",
"-217 -140 CURVE SMOOTH",
"-215 -136 OFFCURVE",
"-208 -127 OFFCURVE",
"-205 -125 CURVE",
"-211 -111 OFFCURVE",
"-231 -100 OFFCURVE",
"-251 -105 CURVE SMOOTH",
"-279 -112 OFFCURVE",
"-295 -140 OFFCURVE",
"-297 -166 CURVE SMOOTH",
"-303 -228 OFFCURVE",
"-236 -241 OFFCURVE",
"-186 -235 CURVE SMOOTH",
"-54 -220 OFFCURVE",
"21 -113 OFFCURVE",
"70 -5 CURVE",
"73 -6 OFFCURVE",
"77 -6 OFFCURVE",
"80 -6 CURVE SMOOTH",
"110 -6 OFFCURVE",
"150 1 OFFCURVE",
"201 52 CURVE SMOOTH",
"224 76 OFFCURVE",
"246 99 OFFCURVE",
"266 127 CURVE",
"259 84 OFFCURVE",
"260 46 OFFCURVE",
"272 21 CURVE SMOOTH",
"283 -1 OFFCURVE",
"299 -6 OFFCURVE",
"318 -6 CURVE SMOOTH",
"365 -6 OFFCURVE",
"425 55 OFFCURVE",
"453 92 CURVE SMOOTH",
"480 129 OFFCURVE",
"506 170 OFFCURVE",
"525 202 CURVE SMOOTH"
);
}
);
width = 453;
}
);
note = mu;
unicode = 00B5;
},
{
glyphname = paragraph;
layers = (
{
hints = (
{
horizontal = 1;
place = "{337, 29}";
type = Stem;
},
{
horizontal = 1;
place = "{678, 20}";
type = Stem;
},
{
place = "{42, 101}";
type = Stem;
},
{
place = "{119, 55}";
type = Stem;
},
{
place = "{271, 55}";
type = Stem;
}
);
layerId = "FDC6D5C2-1E82-4E29-8E0D-3EE46E074C54";
paths = (
{
closed = 1;
nodes = (
"309 698 LINE SMOOTH",
"5 698 OFFCURVE",
"-71 311 OFFCURVE",
"253 338 CURVE",
"214 244 OFFCURVE",
"167 122 OFFCURVE",
"150 71 CURVE SMOOTH",
"112 -41 OFFCURVE",
"103 -125 OFFCURVE",
"160 -125 CURVE SMOOTH",
"217 -125 LINE",
"178 -112 OFFCURVE",
"185 -37 OFFCURVE",
"205 38 CURVE SMOOTH",
"227 123 OFFCURVE",
"318 350 OFFCURVE",
"361 438 CURVE SMOOTH",
"386 488 OFFCURVE",
"454 620 OFFCURVE",
"507 678 CURVE",
"560 678 LINE",
"548 666 OFFCURVE",
"539 650 OFFCURVE",
"528 630 CURVE SMOOTH",
"496 574 OFFCURVE",
"459 503 OFFCURVE",
"424 429 CURVE SMOOTH",
"386 350 OFFCURVE",
"326 204 OFFCURVE",
"302 133 CURVE SMOOTH",
"264 21 OFFCURVE",
"255 -63 OFFCURVE",
"312 -63 CURVE SMOOTH",
"383 -63 LINE",
"344 -50 OFFCURVE",
"352 25 OFFCURVE",
"371 100 CURVE SMOOTH",
"393 185 OFFCURVE",
"463 350 OFFCURVE",
"506 438 CURVE SMOOTH",
"534 494 OFFCURVE",
"617 657 OFFCURVE",
"671 698 CURVE"
);
},
{
closed = 1;
nodes = (
"431 678 LINE",
"417 667 OFFCURVE",
"408 651 OFFCURVE",
"397 630 CURVE SMOOTH",
"366 574 OFFCURVE",
"328 503 OFFCURVE",
"293 429 CURVE SMOOTH",
"285 413 OFFCURVE",
"276 391 OFFCURVE",
"265 367 CURVE",
"96 366 OFFCURVE",
"81 678 OFFCURVE",
"364 678 CURVE SMOOTH"
);
}
);
width = 558;
}
);
note = paragraph;
unicode = 00B6;
},
{
glyphname = periodcentered;
layers = (
{
hints = (
{
horizontal = 1;
place = "{263, 114}";
type = Stem;
},
{
place = "{158, 108}";
type = Stem;
}
);
layerId = "FDC6D5C2-1E82-4E29-8E0D-3EE46E074C54";
paths = (
{
closed = 1;
nodes = (
"279 335 OFFCURVE",
"275 365 OFFCURVE",
"256 366 CURVE SMOOTH",
"205 369 OFFCURVE",
"165 340 OFFCURVE",
"155 310 CURVE SMOOTH",
"147 288 OFFCURVE",
"209 249 OFFCURVE",
"219 267 CURVE SMOOTH",
"228 285 OFFCURVE",
"252 312 OFFCURVE",
"263 323 CURVE"
);
}
);
width = 271;
}
);
note = periodcentered;
unicode = 00B7;
},
{
glyphname = cedilla;
layers = (
{
hints = (
{
horizontal = 1;
place = "{-290, 32}";
type = Stem;
},
{
horizontal = 1;
place = "{-104, 25}";
type = Stem;
},
{
place = "{11, 212}";
type = Stem;
}
);
layerId = "FDC6D5C2-1E82-4E29-8E0D-3EE46E074C54";
paths = (
{
closed = 1;
nodes = (
"234 -9 LINE SMOOTH",
"235 -6 OFFCURVE",
"214 -4 OFFCURVE",
"212 -10 CURVE SMOOTH",
"192 -56 LINE",
"188 -56 LINE SMOOTH",
"127 -55 OFFCURVE",
"88 -83 OFFCURVE",
"61 -131 CURVE SMOOTH",
"28 -192 OFFCURVE",
"26 -282 OFFCURVE",
"114 -282 CURVE SMOOTH",
"155 -282 OFFCURVE",
"184 -266 OFFCURVE",
"207 -244 CURVE SMOOTH",
"212 -239 OFFCURVE",
"216 -209 OFFCURVE",
"205 -220 CURVE SMOOTH",
"184 -242 OFFCURVE",
"159 -258 OFFCURVE",
"132 -258 CURVE SMOOTH",
"84 -258 OFFCURVE",
"83 -200 OFFCURVE",
"108 -146 CURVE SMOOTH",
"125 -108 OFFCURVE",
"157 -82 OFFCURVE",
"186 -74 CURVE",
"194 -73 OFFCURVE",
"204 -75 OFFCURVE",
"207 -76 CURVE SMOOTH",
"211 -77 OFFCURVE",
"214 -75 OFFCURVE",
"215 -72 CURVE SMOOTH"
);
}
);
width = 674;
}
);
note = cedilla;
unicode = 00B8;
},
{
glyphname = onesuperior;
layers = (
{
hints = (
{
horizontal = 1;
place = "{135, 21}";
target = up;
type = BottomGhost;
},
{
place = "{-4, 113}";
type = Stem;
}
);
layerId = "FDC6D5C2-1E82-4E29-8E0D-3EE46E074C54";
paths = (
{
closed = 1;
nodes = (
"194 706 LINE",
"29 533 LINE",
"77 533 LINE",
"188 633 LINE",
"188 633 OFFCURVE",
"29 202 OFFCURVE",
"0 134 CURVE",
"106 134 LINE",
"122 218 OFFCURVE",
"244 571 OFFCURVE",
"302 706 CURVE"
);
}
);
width = 291;
}
);
note = onesuperior;
unicode = 00B9;
},
{
glyphname = ordmasculine;
layers = (
{
hints = (
{
horizontal = 1;
place = "{319, 48}";
type = Stem;
},
{
horizontal = 1;
place = "{657, 46}";
type = Stem;
},
{
place = "{2, 96}";
type = Stem;
},
{
place = "{317, 46}";
type = Stem;
},
{
horizontal = 1;
place = "{288, 38}";
type = Stem;
}
);
layerId = "FDC6D5C2-1E82-4E29-8E0D-3EE46E074C54";
paths = (
{
closed = 1;
nodes = (
"492 527 OFFCURVE",
"485 570 OFFCURVE",
"472 545 CURVE SMOOTH",
"455 512 OFFCURVE",
"430 468 OFFCURVE",
"403 434 CURVE SMOOTH",
"388 414 OFFCURVE",
"369 390 OFFCURVE",
"348 377 CURVE SMOOTH",
"323 361 OFFCURVE",
"303 366 OFFCURVE",
"294 383 CURVE",
"312 410 OFFCURVE",
"327 439 OFFCURVE",
"340 469 CURVE SMOOTH",
"375 551 OFFCURVE",
"390 700 OFFCURVE",
"249 703 CURVE SMOOTH",
"89 706 OFFCURVE",
"-7 518 OFFCURVE",
"3 392 CURVE SMOOTH",
"9 320 OFFCURVE",
"57 289 OFFCURVE",
"112 288 CURVE SMOOTH",
"174 287 OFFCURVE",
"221 308 OFFCURVE",
"256 340 CURVE",
"291 299 OFFCURVE",
"354 322 OFFCURVE",
"403 388 CURVE SMOOTH",
"430 424 OFFCURVE",
"455 466 OFFCURVE",
"475 498 CURVE SMOOTH"
);
},
{
closed = 1;
nodes = (
"287 464 LINE",
"272 494 OFFCURVE",
"225 461 OFFCURVE",
"235 393 CURVE SMOOTH",
"237 380 LINE",
"212 349 OFFCURVE",
"182 324 OFFCURVE",
"150 326 CURVE SMOOTH",
"66 331 OFFCURVE",
"103 459 OFFCURVE",
"134 523 CURVE SMOOTH",
"157 570 OFFCURVE",
"208 657 OFFCURVE",
"269 657 CURVE SMOOTH",
"349 657 OFFCURVE",
"312 518 OFFCURVE",
"294 479 CURVE SMOOTH"
);
}
);
width = 436;
}
);
note = ordmasculine;
unicode = 00BA;
},
{
glyphname = guillemotright;
layers = (
{
hints = (
{
horizontal = 1;
place = "{112, 243}";
type = Stem;
},
{
place = "{91, 171}";
type = Stem;
}
);
layerId = "FDC6D5C2-1E82-4E29-8E0D-3EE46E074C54";
paths = (
{
closed = 1;
nodes = (
"618 389 OFFCURVE",
"563 444 OFFCURVE",
"495 521 CURVE SMOOTH",
"488 529 OFFCURVE",
"438 491 OFFCURVE",
"447 475 CURVE SMOOTH",
"480 418 OFFCURVE",
"579 339 OFFCURVE",
"637 298 CURVE",
"579 263 OFFCURVE",
"411 150 OFFCURVE",
"378 110 CURVE SMOOTH",
"369 100 OFFCURVE",
"361 70 OFFCURVE",
"371 77 CURVE SMOOTH",
"473 155 OFFCURVE",
"581 226 OFFCURVE",
"691 288 CURVE SMOOTH",
"726 308 OFFCURVE",
"720 316 OFFCURVE",
"696 333 CURVE SMOOTH"
);
},
{
closed = 1;
nodes = (
"376 389 OFFCURVE",
"321 444 OFFCURVE",
"253 521 CURVE SMOOTH",
"246 529 OFFCURVE",
"196 491 OFFCURVE",
"205 475 CURVE SMOOTH",
"238 418 OFFCURVE",
"337 339 OFFCURVE",
"395 298 CURVE",
"337 263 OFFCURVE",
"169 150 OFFCURVE",
"137 110 CURVE",
"127 100 OFFCURVE",
"119 70 OFFCURVE",
"129 77 CURVE SMOOTH",
"231 155 OFFCURVE",
"339 226 OFFCURVE",
"450 288 CURVE SMOOTH",
"485 308 OFFCURVE",
"479 316 OFFCURVE",
"454 333 CURVE SMOOTH"
);
}
);
width = 693;
}
);
note = guillemotright;
unicode = 00BB;
},
{
glyphname = onequarter;
layers = (
{
hints = (
{
horizontal = 1;
place = "{1, 21}";
target = up;
type = BottomGhost;
},
{
horizontal = 1;
place = "{135, 21}";
target = up;
type = BottomGhost;
},
{
horizontal = 1;
place = "{276, 33}";
type = Stem;
},
{
horizontal = 1;
place = "{359, 18}";
type = Stem;
},
{
horizontal = 1;
place = "{702, -20}";
target = down;
type = TopGhost;
},
{
place = "{-3, 113}";
type = Stem;
},
{
place = "{445, 61}";
type = Stem;
},
{
place = "{689, 114}";
type = Stem;
},
{
place = "{53, 607}";
type = Stem;
}
);
layerId = "FDC6D5C2-1E82-4E29-8E0D-3EE46E074C54";
paths = (
{
closed = 1;
nodes = (
"982 320 OFFCURVE",
"955 352 OFFCURVE",
"923 323 CURVE",
"930 319 OFFCURVE",
"935 305 OFFCURVE",
"933 295 CURVE SMOOTH",
"927 259 OFFCURVE",
"887 244 OFFCURVE",
"836 240 CURVE",
"877 363 OFFCURVE",
"927 499 OFFCURVE",
"959 572 CURVE",
"851 572 LINE",
"478 251 LINE",
"456 239 OFFCURVE",
"440 219 OFFCURVE",
"441 190 CURVE SMOOTH",
"442 168 OFFCURVE",
"454 157 OFFCURVE",
"468 156 CURVE SMOOTH",
"481 155 OFFCURVE",
"494 164 OFFCURVE",
"494 181 CURVE SMOOTH",
"494 195 OFFCURVE",
"496 208 OFFCURVE",
"512 218 CURVE SMOOTH",
"530 230 OFFCURVE",
"559 229 OFFCURVE",
"591 222 CURVE SMOOTH",
"636 212 OFFCURVE",
"682 197 OFFCURVE",
"729 186 CURVE",
"697 101 OFFCURVE",
"668 25 OFFCURVE",
"657 0 CURVE",
"763 0 LINE",
"769 30 OFFCURVE",
"788 95 OFFCURVE",
"813 173 CURVE",
"834 171 OFFCURVE",
"855 172 OFFCURVE",
"876 175 CURVE SMOOTH",
"964 188 OFFCURVE",
"1001 254 OFFCURVE",
"989 297 CURVE SMOOTH"
);
},
{
closed = 1;
nodes = (
"661 694 LINE SMOOTH",
"666 701 OFFCURVE",
"614 706 OFFCURVE",
"609 699 CURVE SMOOTH",
"53 -53 LINE SMOOTH",
"48 -60 OFFCURVE",
"100 -65 OFFCURVE",
"105 -58 CURVE SMOOTH"
);
},
{
closed = 1;
nodes = (
"195 706 LINE",
"30 533 LINE",
"78 533 LINE",
"189 633 LINE",
"189 633 OFFCURVE",
"30 202 OFFCURVE",
"1 134 CURVE",
"107 134 LINE",
"123 218 OFFCURVE",
"245 571 OFFCURVE",
"303 706 CURVE"
);
},
{
closed = 1;
nodes = (
"850 512 LINE",
"850 512 OFFCURVE",
"797 369 OFFCURVE",
"749 241 CURVE",
"710 243 OFFCURVE",
"674 248 OFFCURVE",
"659 250 CURVE SMOOTH",
"645 252 OFFCURVE",
"623 256 OFFCURVE",
"598 259 CURVE SMOOTH",
"580 261 OFFCURVE",
"573 262 OFFCURVE",
"555 263 CURVE"
);
}
);
width = 993;
}
);
note = onequarter;
unicode = 00BC;
},
{
glyphname = onehalf;
layers = (
{
hints = (
{
horizontal = 1;
place = "{-8, 21}";
target = up;
type = BottomGhost;
},
{
horizontal = 1;
place = "{94, 48}";
type = Stem;
},
{
horizontal = 1;
place = "{171, 21}";
target = up;
type = BottomGhost;
},
{
horizontal = 1;
place = "{627, 49}";
type = Stem;
},
{
horizontal = 1;
place = "{702, -20}";
target = down;
type = TopGhost;
},
{
place = "{-4, 113}";
type = Stem;
},
{
place = "{457, 67}";
type = Stem;
},
{
place = "{555, 89}";
type = Stem;
},
{
place = "{850, 135}";
type = Stem;
},
{
place = "{14, 607}";
type = Stem;
}
);
layerId = "FDC6D5C2-1E82-4E29-8E0D-3EE46E074C54";
paths = (
{
closed = 1;
nodes = (
"937 501 OFFCURVE",
"907 540 OFFCURVE",
"867 557 CURVE SMOOTH",
"822 577 OFFCURVE",
"746 580 OFFCURVE",
"696 567 CURVE SMOOTH",
"640 553 OFFCURVE",
"573 517 OFFCURVE",
"562 459 CURVE SMOOTH",
"550 396 OFFCURVE",
"595 360 OFFCURVE",
"640 388 CURVE",
"618 452 OFFCURVE",
"679 533 OFFCURVE",
"744 534 CURVE SMOOTH",
"832 536 OFFCURVE",
"828 443 OFFCURVE",
"780 382 CURVE SMOOTH",
"727 315 OFFCURVE",
"656 273 OFFCURVE",
"588 223 CURVE SMOOTH",
"543 190 OFFCURVE",
"499 151 OFFCURVE",
"474 104 CURVE SMOOTH",
"461 80 OFFCURVE",
"453 53 OFFCURVE",
"455 25 CURVE SMOOTH",
"458 -24 OFFCURVE",
"508 -10 OFFCURVE",
"512 25 CURVE SMOOTH",
"514 42 OFFCURVE",
"512 55 OFFCURVE",
"525 70 CURVE SMOOTH",
"539 86 OFFCURVE",
"564 85 OFFCURVE",
"592 63 CURVE SMOOTH",
"606 53 OFFCURVE",
"647 30 OFFCURVE",
"661 20 CURVE SMOOTH",
"691 -3 OFFCURVE",
"736 -14 OFFCURVE",
"774 -10 CURVE SMOOTH",
"851 -3 OFFCURVE",
"879 58 OFFCURVE",
"879 127 CURVE",
"860 127 LINE",
"860 70 OFFCURVE",
"815 64 OFFCURVE",
"767 67 CURVE SMOOTH",
"730 70 OFFCURVE",
"667 83 OFFCURVE",
"631 95 CURVE SMOOTH",
"615 100 OFFCURVE",
"568 112 OFFCURVE",
"542 121 CURVE",
"589 182 OFFCURVE",
"690 232 OFFCURVE",
"757 263 CURVE SMOOTH",
"844 304 OFFCURVE",
"912 355 OFFCURVE",
"926 439 CURVE SMOOTH"
);
},
{
closed = 1;
nodes = (
"622 694 LINE SMOOTH",
"627 701 OFFCURVE",
"575 706 OFFCURVE",
"570 699 CURVE SMOOTH",
"14 -53 LINE SMOOTH",
"9 -60 OFFCURVE",
"61 -65 OFFCURVE",
"66 -58 CURVE SMOOTH"
);
},
{
closed = 1;
nodes = (
"194 742 LINE",
"29 569 LINE",
"77 569 LINE",
"188 669 LINE",
"188 669 OFFCURVE",
"29 238 OFFCURVE",
"0 170 CURVE",
"106 170 LINE",
"122 254 OFFCURVE",
"244 607 OFFCURVE",
"302 742 CURVE"
);
}
);
width = 950;
}
);
note = onehalf;
unicode = 00BD;
},
{
glyphname = threequarters;
layers = (
{
hints = (
{
horizontal = 1;
place = "{1, 21}";
target = up;
type = BottomGhost;
},
{
horizontal = 1;
place = "{107, 43}";
type = Stem;
},
{
horizontal = 1;
place = "{276, 33}";
type = Stem;
},
{
horizontal = 1;
place = "{350, 17}";
type = Stem;
},
{
horizontal = 1;
place = "{458, 49}";
type = Stem;
},
{
horizontal = 1;
place = "{702, -20}";
target = down;
type = TopGhost;
},
{
horizontal = 1;
place = "{764, 42}";
type = Stem;
},
{
place = "{7, 107}";
type = Stem;
},
{
place = "{165, 47}";
type = Stem;
},
{
place = "{390, 133}";
type = Stem;
},
{
place = "{676, 61}";
type = Stem;
},
{
place = "{920, 114}";
type = Stem;
},
{
place = "{315, 607}";
type = Stem;
}
);
layerId = "FDC6D5C2-1E82-4E29-8E0D-3EE46E074C54";
paths = (
{
closed = 1;
nodes = (
"1213 320 OFFCURVE",
"1186 352 OFFCURVE",
"1154 323 CURVE",
"1161 319 OFFCURVE",
"1166 305 OFFCURVE",
"1164 295 CURVE SMOOTH",
"1158 259 OFFCURVE",
"1118 244 OFFCURVE",
"1067 240 CURVE",
"1108 363 OFFCURVE",
"1158 499 OFFCURVE",
"1190 572 CURVE",
"1082 572 LINE",
"709 251 LINE",
"687 239 OFFCURVE",
"671 219 OFFCURVE",
"672 190 CURVE SMOOTH",
"673 168 OFFCURVE",
"685 157 OFFCURVE",
"699 156 CURVE SMOOTH",
"712 155 OFFCURVE",
"725 164 OFFCURVE",
"725 181 CURVE SMOOTH",
"725 195 OFFCURVE",
"727 208 OFFCURVE",
"743 218 CURVE SMOOTH",
"761 230 OFFCURVE",
"790 229 OFFCURVE",
"822 222 CURVE SMOOTH",
"867 212 OFFCURVE",
"913 197 OFFCURVE",
"960 186 CURVE",
"928 101 OFFCURVE",
"899 25 OFFCURVE",
"888 0 CURVE",
"994 0 LINE",
"1000 30 OFFCURVE",
"1019 95 OFFCURVE",
"1044 173 CURVE",
"1065 171 OFFCURVE",
"1086 172 OFFCURVE",
"1107 175 CURVE SMOOTH",
"1195 188 OFFCURVE",
"1232 254 OFFCURVE",
"1220 297 CURVE SMOOTH"
);
},
{
closed = 1;
nodes = (
"923 694 LINE SMOOTH",
"928 701 OFFCURVE",
"876 706 OFFCURVE",
"871 699 CURVE SMOOTH",
"315 -53 LINE SMOOTH",
"310 -60 OFFCURVE",
"362 -65 OFFCURVE",
"367 -58 CURVE SMOOTH"
);
},
{
closed = 1;
nodes = (
"481 631 OFFCURVE",
"449 670 OFFCURVE",
"408 687 CURVE SMOOTH",
"362 707 OFFCURVE",
"286 710 OFFCURVE",
"237 697 CURVE SMOOTH",
"181 683 OFFCURVE",
"116 647 OFFCURVE",
"108 589 CURVE SMOOTH",
"99 527 OFFCURVE",
"140 489 OFFCURVE",
"186 517 CURVE",
"159 583 OFFCURVE",
"212 668 OFFCURVE",
"284 669 CURVE SMOOTH",
"384 671 OFFCURVE",
"382 571 OFFCURVE",
"337 510 CURVE SMOOTH",
"314 479 OFFCURVE",
"275 450 OFFCURVE",
"237 441 CURVE",
"216 448 OFFCURVE",
"184 455 OFFCURVE",
"160 447 CURVE SMOOTH",
"141 440 OFFCURVE",
"135 424 OFFCURVE",
"141 412 CURVE SMOOTH",
"147 399 OFFCURVE",
"163 392 OFFCURVE",
"182 401 CURVE SMOOTH",
"226 420 OFFCURVE",
"284 407 OFFCURVE",
"310 366 CURVE SMOOTH",
"332 332 OFFCURVE",
"336 284 OFFCURVE",
"322 244 CURVE SMOOTH",
"303 193 OFFCURVE",
"257 150 OFFCURVE",
"200 148 CURVE SMOOTH",
"141 145 OFFCURVE",
"95 172 OFFCURVE",
"95 231 CURVE SMOOTH",
"95 257 OFFCURVE",
"109 287 OFFCURVE",
"131 317 CURVE",
"107 335 OFFCURVE",
"72 338 OFFCURVE",
"45 318 CURVE SMOOTH",
"-2 284 OFFCURVE",
"-9 213 OFFCURVE",
"27 167 CURVE SMOOTH",
"83 93 OFFCURVE",
"232 102 OFFCURVE",
"307 134 CURVE SMOOTH",
"369 160 OFFCURVE",
"421 208 OFFCURVE",
"439 278 CURVE SMOOTH",
"457 348 OFFCURVE",
"417 415 OFFCURVE",
"340 432 CURVE",
"412 458 OFFCURVE",
"467 508 OFFCURVE",
"474 569 CURVE SMOOTH"
);
},
{
closed = 1;
nodes = (
"1081 512 LINE",
"1081 512 OFFCURVE",
"1028 369 OFFCURVE",
"980 241 CURVE",
"941 243 OFFCURVE",
"905 248 OFFCURVE",
"890 250 CURVE SMOOTH",
"876 252 OFFCURVE",
"854 256 OFFCURVE",
"829 259 CURVE SMOOTH",
"811 261 OFFCURVE",
"804 262 OFFCURVE",
"786 263 CURVE"
);
}
);
width = 1220;
}
);
note = threequarters;
unicode = 00BE;
},
{
glyphname = questiondown;
layers = (
{
hints = (
{
horizontal = 1;
place = "{432, 114}";
type = Stem;
},
{
place = "{141, 216}";
type = Stem;
},
{
place = "{389, 108}";
type = Stem;
}
);
layerId = "FDC6D5C2-1E82-4E29-8E0D-3EE46E074C54";
paths = (
{
closed = 1;
nodes = (
"443 41 OFFCURVE",
"393 74 OFFCURVE",
"351 50 CURVE",
"379 -13 OFFCURVE",
"314 -78 OFFCURVE",
"280 -93 CURVE SMOOTH",
"209 -125 OFFCURVE",
"141 -91 OFFCURVE",
"142 -11 CURVE SMOOTH",
"144 81 OFFCURVE",
"361 210 OFFCURVE",
"366 214 CURVE SMOOTH",
"401 240 OFFCURVE",
"435 282 OFFCURVE",
"429 327 CURVE SMOOTH",
"424 359 OFFCURVE",
"364 340 OFFCURVE",
"370 311 CURVE SMOOTH",
"374 293 OFFCURVE",
"367 274 OFFCURVE",
"356 257 CURVE SMOOTH",
"323 206 OFFCURVE",
"250 175 OFFCURVE",
"188 149 CURVE SMOOTH",
"111 117 OFFCURVE",
"38 83 OFFCURVE",
"28 -3 CURVE SMOOTH",
"20 -65 OFFCURVE",
"55 -104 OFFCURVE",
"100 -121 CURVE SMOOTH",
"152 -141 OFFCURVE",
"237 -144 OFFCURVE",
"292 -131 CURVE SMOOTH",
"355 -117 OFFCURVE",
"425 -79 OFFCURVE",
"434 -22 CURVE SMOOTH"
);
},
{
closed = 1;
nodes = (
"513 516 OFFCURVE",
"499 527 OFFCURVE",
"478 529 CURVE SMOOTH",
"449 533 OFFCURVE",
"424 521 OFFCURVE",
"409 505 CURVE SMOOTH",
"393 489 OFFCURVE",
"391 469 OFFCURVE",
"408 456 CURVE SMOOTH",
"421 446 OFFCURVE",
"440 439 OFFCURVE",
"445 437 CURVE",
"453 452 OFFCURVE",
"490 491 OFFCURVE",
"506 494 CURVE"
);
}
);
width = 508;
}
);
note = questiondown;
unicode = 00BF;
},
{
color = 0;
glyphname = Agrave;
lastChange = "2021-04-19 01:11:12 +0000";
layers = (
{
hints = (
{
horizontal = 1;
place = "{-9, 45}";
type = Stem;
},
{
horizontal = 1;
place = "{269, 39}";
type = Stem;
},
{
horizontal = 1;
place = "{698, -20}";
target = down;
type = TopGhost;
},
{
place = "{152, 31}";
type = Stem;
},
{
place = "{489, 112}";
type = Stem;
},
{
horizontal = 1;
place = "{0, 21}";
target = up;
type = BottomGhost;
},
{
horizontal = 1;
place = "{748, 138}";
type = Stem;
},
{
place = "{523, 240}";
type = Stem;
}
);
layerId = "FDC6D5C2-1E82-4E29-8E0D-3EE46E074C54";
paths = (
{
closed = 1;
nodes = (
"670 698 LINE SMOOTH",
"605 698 OFFCURVE",
"568 645 OFFCURVE",
"533 601 CURVE SMOOTH",
"391 420 OFFCURVE",
"95 94 OFFCURVE",
"3 0 CURVE",
"103 0 LINE",
"166 87 OFFCURVE",
"232 169 OFFCURVE",
"307 259 CURVE",
"502 259 LINE",
"491 204 OFFCURVE",
"480 50 OFFCURVE",
"483 0 CURVE",
"603 0 LINE",
"565 95 OFFCURVE",
"647 640 OFFCURVE",
"714 698 CURVE"
);
},
{
closed = 1;
nodes = (
"548 506 OFFCURVE",
"525 397 OFFCURVE",
"509 309 CURVE",
"345 309 LINE",
"418 395 OFFCURVE",
"486 471 OFFCURVE",
"559 548 CURVE"
);
},
{
closed = 1;
nodes = (
"625 808 OFFCURVE",
"710 765 OFFCURVE",
"726 754 CURVE SMOOTH",
"730 752 OFFCURVE",
"751 763 OFFCURVE",
"750 766 CURVE",
"735 773 OFFCURVE",
"659 832 OFFCURVE",
"610 867 CURVE SMOOTH",
"596 877 OFFCURVE",
"538 844 OFFCURVE",
"553 838 CURVE SMOOTH"
);
}
);
width = 647;
}
);
note = Agrave;
unicode = 00C0;
},
{
color = 0;
glyphname = Aacute;
lastChange = "2021-04-19 01:11:12 +0000";
layers = (
{
hints = (
{
horizontal = 1;
place = "{-9, 45}";
type = Stem;
},
{
horizontal = 1;
place = "{269, 39}";
type = Stem;
},
{
horizontal = 1;
place = "{698, -20}";
target = down;
type = TopGhost;
},
{
place = "{152, 31}";
type = Stem;
},
{
place = "{489, 112}";
type = Stem;
},
{
horizontal = 1;
place = "{0, 21}";
target = up;
type = BottomGhost;
},
{
horizontal = 1;
place = "{751, 138}";
type = Stem;
},
{
place = "{653, 241}";
type = Stem;
}
);
layerId = "FDC6D5C2-1E82-4E29-8E0D-3EE46E074C54";
paths = (
{
closed = 1;
nodes = (
"670 698 LINE SMOOTH",
"605 698 OFFCURVE",
"568 645 OFFCURVE",
"533 601 CURVE SMOOTH",
"391 420 OFFCURVE",
"95 94 OFFCURVE",
"3 0 CURVE",
"103 0 LINE",
"166 87 OFFCURVE",
"232 169 OFFCURVE",
"307 259 CURVE",
"502 259 LINE",
"491 204 OFFCURVE",
"480 50 OFFCURVE",
"483 0 CURVE",
"603 0 LINE",
"565 95 OFFCURVE",
"647 640 OFFCURVE",
"714 698 CURVE"
);
},
{
closed = 1;
nodes = (
"548 506 OFFCURVE",
"525 397 OFFCURVE",
"509 309 CURVE",
"345 309 LINE",
"418 395 OFFCURVE",
"486 471 OFFCURVE",
"559 548 CURVE"
);
},
{
closed = 1;
nodes = (
"869 842 OFFCURVE",
"811 875 OFFCURVE",
"797 865 CURVE SMOOTH",
"748 830 OFFCURVE",
"672 771 OFFCURVE",
"657 764 CURVE",
"656 761 OFFCURVE",
"677 750 OFFCURVE",
"681 752 CURVE SMOOTH",
"697 763 OFFCURVE",
"782 806 OFFCURVE",
"854 836 CURVE SMOOTH"
);
}
);
width = 647;
}
);
note = Aacute;
unicode = 00C1;
},
{
color = 0;
glyphname = Acircumflex;
lastChange = "2021-04-19 01:11:12 +0000";
layers = (
{
hints = (
{
horizontal = 1;
place = "{-9, 45}";
type = Stem;
},
{
horizontal = 1;
place = "{269, 39}";
type = Stem;
},
{
horizontal = 1;
place = "{698, -20}";
target = down;
type = TopGhost;
},
{
place = "{152, 31}";
type = Stem;
},
{
place = "{489, 112}";
type = Stem;
},
{
horizontal = 1;
place = "{0, 21}";
target = up;
type = BottomGhost;
},
{
horizontal = 1;
place = "{937, 67}";
type = Stem;
},
{
place = "{869, 47}";
type = Stem;
}
);
layerId = "FDC6D5C2-1E82-4E29-8E0D-3EE46E074C54";
paths = (
{
closed = 1;
nodes = (
"670 698 LINE SMOOTH",
"605 698 OFFCURVE",
"568 645 OFFCURVE",
"533 601 CURVE SMOOTH",
"391 420 OFFCURVE",
"95 94 OFFCURVE",
"3 0 CURVE",
"103 0 LINE",
"166 87 OFFCURVE",
"232 169 OFFCURVE",
"307 259 CURVE",
"502 259 LINE",
"491 204 OFFCURVE",
"480 50 OFFCURVE",
"483 0 CURVE",
"603 0 LINE",
"565 95 OFFCURVE",
"647 640 OFFCURVE",
"714 698 CURVE"
);
},
{
closed = 1;
nodes = (
"548 506 OFFCURVE",
"525 397 OFFCURVE",
"509 309 CURVE",
"345 309 LINE",
"418 395 OFFCURVE",
"486 471 OFFCURVE",
"559 548 CURVE"
);
},
{
closed = 1;
nodes = (
"771 803 OFFCURVE",
"748 835 OFFCURVE",
"728 878 CURVE SMOOTH",
"721 891 OFFCURVE",
"706 895 OFFCURVE",
"692 880 CURVE SMOOTH",
"646 832 OFFCURVE",
"599 793 OFFCURVE",
"546 750 CURVE SMOOTH",
"542 746 OFFCURVE",
"573 744 OFFCURVE",
"578 748 CURVE",
"603 761 OFFCURVE",
"666 816 OFFCURVE",
"692 841 CURVE",
"707 809 OFFCURVE",
"736 763 OFFCURVE",
"762 743 CURVE SMOOTH",
"770 736 OFFCURVE",
"807 758 OFFCURVE",
"804 762 CURVE SMOOTH"
);
}
);
width = 647;
}
);
note = Acircumflex;
unicode = 00C2;
},
{
color = 0;
glyphname = Atilde;
lastChange = "2021-04-19 01:11:12 +0000";
layers = (
{
hints = (
{
horizontal = 1;
place = "{-9, 45}";
type = Stem;
},
{
horizontal = 1;
place = "{269, 39}";
type = Stem;
},
{
horizontal = 1;
place = "{698, -20}";
target = down;
type = TopGhost;
},
{
place = "{152, 31}";
type = Stem;
},
{
place = "{489, 112}";
type = Stem;
},
{
horizontal = 1;
place = "{0, 21}";
target = up;
type = BottomGhost;
},
{
horizontal = 1;
place = "{820, 49}";
type = Stem;
},
{
place = "{537, 328}";
type = Stem;
},
{
horizontal = 1;
place = "{777, 49}";
type = Stem;
}
);
layerId = "FDC6D5C2-1E82-4E29-8E0D-3EE46E074C54";
paths = (
{
closed = 1;
nodes = (
"670 698 LINE SMOOTH",
"605 698 OFFCURVE",
"568 645 OFFCURVE",
"533 601 CURVE SMOOTH",
"391 420 OFFCURVE",
"95 94 OFFCURVE",
"3 0 CURVE",
"103 0 LINE",
"166 87 OFFCURVE",
"232 169 OFFCURVE",
"307 259 CURVE",
"502 259 LINE",
"491 204 OFFCURVE",
"480 50 OFFCURVE",
"483 0 CURVE",
"603 0 LINE",
"565 95 OFFCURVE",
"647 640 OFFCURVE",
"714 698 CURVE"
);
},
{
closed = 1;
nodes = (
"548 506 OFFCURVE",
"525 397 OFFCURVE",
"509 309 CURVE",
"345 309 LINE",
"418 395 OFFCURVE",
"486 471 OFFCURVE",
"559 548 CURVE"
);
},
{
closed = 1;
nodes = (
"847 864 OFFCURVE",
"827 871 OFFCURVE",
"820 858 CURVE SMOOTH",
"811 843 OFFCURVE",
"800 824 OFFCURVE",
"770 824 CURVE SMOOTH",
"723 824 OFFCURVE",
"679 861 OFFCURVE",
"631 861 CURVE SMOOTH",
"595 861 OFFCURVE",
"566 814 OFFCURVE",
"556 798 CURVE SMOOTH",
"549 787 OFFCURVE",
"568 777 OFFCURVE",
"574 790 CURVE SMOOTH",
"583 805 OFFCURVE",
"598 814 OFFCURVE",
"628 814 CURVE SMOOTH",
"674 814 OFFCURVE",
"712 778 OFFCURVE",
"758 778 CURVE SMOOTH",
"795 778 OFFCURVE",
"821 821 OFFCURVE",
"838 850 CURVE SMOOTH"
);
}
);
width = 647;
}
);
note = Atilde;
unicode = 00C3;
},
{
color = 0;
glyphname = Adieresis;
lastChange = "2021-04-19 01:11:12 +0000";
layers = (
{
hints = (
{
horizontal = 1;
place = "{-9, 45}";
type = Stem;
},
{
horizontal = 1;
place = "{269, 39}";
type = Stem;
},
{
horizontal = 1;
place = "{698, -20}";
target = down;
type = TopGhost;
},
{
place = "{152, 31}";
type = Stem;
},
{
place = "{489, 112}";
type = Stem;
},
{
horizontal = 1;
place = "{0, 21}";
target = up;
type = BottomGhost;
},
{
horizontal = 1;
place = "{769, 96}";
type = Stem;
},
{
place = "{566, 91}";
type = Stem;
},
{
place = "{780, 91}";
type = Stem;
}
);
layerId = "FDC6D5C2-1E82-4E29-8E0D-3EE46E074C54";
paths = (
{
closed = 1;
nodes = (
"670 698 LINE SMOOTH",
"605 698 OFFCURVE",
"568 645 OFFCURVE",
"533 601 CURVE SMOOTH",
"391 420 OFFCURVE",
"95 94 OFFCURVE",
"3 0 CURVE",
"103 0 LINE",
"166 87 OFFCURVE",
"232 169 OFFCURVE",
"307 259 CURVE",
"502 259 LINE",
"491 204 OFFCURVE",
"480 50 OFFCURVE",
"483 0 CURVE",
"603 0 LINE",
"565 95 OFFCURVE",
"647 640 OFFCURVE",
"714 698 CURVE"
);
},
{
closed = 1;
nodes = (
"548 506 OFFCURVE",
"525 397 OFFCURVE",
"509 309 CURVE",
"345 309 LINE",
"418 395 OFFCURVE",
"486 471 OFFCURVE",
"559 548 CURVE"
);
},
{
closed = 1;
nodes = (
"865 821 OFFCURVE",
"839 875 OFFCURVE",
"818 870 CURVE SMOOTH",
"789 862 OFFCURVE",
"752 807 OFFCURVE",
"751 784 CURVE SMOOTH",
"750 766 OFFCURVE",
"777 760 OFFCURVE",
"791 774 CURVE SMOOTH",
"802 785 OFFCURVE",
"822 810 OFFCURVE",
"846 816 CURVE SMOOTH"
);
},
{
closed = 1;
nodes = (
"678 821 OFFCURVE",
"652 875 OFFCURVE",
"631 870 CURVE SMOOTH",
"602 862 OFFCURVE",
"565 807 OFFCURVE",
"564 784 CURVE SMOOTH",
"563 766 OFFCURVE",
"590 760 OFFCURVE",
"604 774 CURVE SMOOTH",
"615 785 OFFCURVE",
"635 810 OFFCURVE",
"659 816 CURVE SMOOTH"
);
}
);
width = 647;
}
);
note = Adieresis;
unicode = 00C4;
},
{
color = 0;
glyphname = Aring;
lastChange = "2021-04-19 01:11:12 +0000";
layers = (
{
hints = (
{
horizontal = 1;
place = "{-9, 45}";
type = Stem;
},
{
horizontal = 1;
place = "{269, 39}";
type = Stem;
},
{
horizontal = 1;
place = "{698, -20}";
target = down;
type = TopGhost;
},
{
horizontal = 1;
place = "{875, -20}";
target = down;
type = TopGhost;
},
{
place = "{152, 31}";
type = Stem;
},
{
place = "{489, 112}";
type = Stem;
},
{
place = "{602, 53}";
type = Stem;
},
{
place = "{775, 31}";
type = Stem;
},
{
horizontal = 1;
place = "{691, 184}";
type = Stem;
},
{
horizontal = 1;
place = "{0, 21}";
target = up;
type = BottomGhost;
}
);
layerId = "FDC6D5C2-1E82-4E29-8E0D-3EE46E074C54";
paths = (
{
closed = 1;
nodes = (
"816 826 OFFCURVE",
"798 874 OFFCURVE",
"734 875 CURVE SMOOTH",
"666 876 OFFCURVE",
"620 832 OFFCURVE",
"606 786 CURVE SMOOTH",
"594 747 OFFCURVE",
"606 707 OFFCURVE",
"646 695 CURVE",
"595 684 OFFCURVE",
"563 639 OFFCURVE",
"533 601 CURVE SMOOTH",
"391 420 OFFCURVE",
"95 94 OFFCURVE",
"3 0 CURVE",
"103 0 LINE",
"166 87 OFFCURVE",
"232 169 OFFCURVE",
"307 259 CURVE",
"502 259 LINE",
"491 204 OFFCURVE",
"480 50 OFFCURVE",
"483 0 CURVE",
"603 0 LINE",
"565 95 OFFCURVE",
"646 637 OFFCURVE",
"713 697 CURVE",
"758 710 OFFCURVE",
"789 745 OFFCURVE",
"801 781 CURVE SMOOTH"
);
},
{
closed = 1;
nodes = (
"548 506 OFFCURVE",
"525 397 OFFCURVE",
"509 309 CURVE",
"345 309 LINE",
"418 395 OFFCURVE",
"486 471 OFFCURVE",
"559 548 CURVE"
);
},
{
closed = 1;
nodes = (
"811 841 OFFCURVE",
"758 709 OFFCURVE",
"684 721 CURVE SMOOTH",
"621 731 OFFCURVE",
"671 863 OFFCURVE",
"745 851 CURVE SMOOTH"
);
}
);
width = 647;
}
);
note = Aring;
unicode = 00C5;
},
{
color = 0;
glyphname = AE;
lastChange = "2021-04-19 01:10:54 +0000";
layers = (
{
background = {
paths = (
{
closed = 1;
nodes = (
"720 698 OFFCURVE",
"679 677 OFFCURVE",
"659 658 OFFCURVE",
"639 634 QCURVE SMOOTH",
"559 536 OFFCURVE",
"304 282 QCURVE SMOOTH",
"106 86 OFFCURVE",
"12 0 QCURVE",
"112 0 LINE",
"197 101 OFFCURVE",
"346 259 QCURVE",
"578 259 LINE",
"522 115 OFFCURVE",
"522 48 QCURVE SMOOTH",
"522 0 OFFCURVE",
"553 0 QCURVE SMOOTH",
"855 0 LINE SMOOTH",
"895 0 OFFCURVE",
"946 7 OFFCURVE",
"975 19 QCURVE SMOOTH",
"1030 42 OFFCURVE",
"1058 129 QCURVE",
"1060 139 OFFCURVE",
"1060 151 OFFCURVE",
"1048 151 OFFCURVE",
"1047 148 QCURVE SMOOTH",
"993 34 OFFCURVE",
"701 34 QCURVE SMOOTH",
"663 34 OFFCURVE",
"631 59 OFFCURVE",
"631 112 OFFCURVE",
"683 276 OFFCURVE",
"710 342 QCURVE",
"957 342 LINE SMOOTH",
"966 342 OFFCURVE",
"994 383 OFFCURVE",
"994 390 QCURVE",
"993 391 LINE",
"732 391 LINE",
"792 530 OFFCURVE",
"865 639 QCURVE SMOOTH",
"875 655 OFFCURVE",
"909 665 OFFCURVE",
"979 665 OFFCURVE",
"1029 629 OFFCURVE",
"1029 598 QCURVE",
"1021 538 LINE",
"1021 530 OFFCURVE",
"1042 530 OFFCURVE",
"1091 637 OFFCURVE",
"1091 672 QCURVE SMOOTH",
"1091 678 OFFCURVE",
"1084 703 OFFCURVE",
"1053 703 QCURVE SMOOTH",
"944 698 LINE",
"743 698 LINE SMOOTH"
);
},
{
closed = 1;
nodes = (
"765 661 OFFCURVE",
"765 660 QCURVE",
"723 610 OFFCURVE",
"632 391 QCURVE SMOOTH",
"597 309 LINE",
"390 309 LINE",
"446 372 OFFCURVE",
"569 498 QCURVE SMOOTH",
"610 540 OFFCURVE",
"727 645 OFFCURVE",
"764 668 QCURVE",
"764 666 OFFCURVE"
);
},
{
closed = 1;
nodes = (
"225 568 QCURVE SMOOTH",
"225 531 OFFCURVE",
"256 499 QCURVE",
"256 602 OFFCURVE",
"363 627 QCURVE SMOOTH",
"387 632 OFFCURVE",
"543 647 OFFCURVE",
"667 673 OFFCURVE",
"692 698 QCURVE",
"468 698 LINE SMOOTH",
"225 698 OFFCURVE"
);
}
);
};
hints = (
{
horizontal = 1;
place = "{0, 36}";
type = Stem;
},
{
horizontal = 1;
place = "{304, 40}";
type = Stem;
},
{
horizontal = 1;
place = "{669, 29}";
type = Stem;
},
{
place = "{562, 113}";
type = Stem;
}
);
layerId = "FDC6D5C2-1E82-4E29-8E0D-3EE46E074C54";
paths = (
{
closed = 1;
nodes = (
"1059 715 OFFCURVE",
"1007 698 OFFCURVE",
"923 698 CURVE SMOOTH",
"743 698 LINE SMOOTH",
"678 698 OFFCURVE",
"652 645 OFFCURVE",
"612 601 CURVE SMOOTH",
"449 420 OFFCURVE",
"115 94 OFFCURVE",
"12 0 CURVE",
"112 0 LINE",
"195 98 OFFCURVE",
"289 203 OFFCURVE",
"386 304 CURVE",
"581 304 LINE",
"579 289 LINE SMOOTH",
"571 232 OFFCURVE",
"535 38 OFFCURVE",
"597 5 CURVE SMOOTH",
"609 -1 OFFCURVE",
"637 0 OFFCURVE",
"665 0 CURVE SMOOTH",
"793 0 LINE SMOOTH",
"859 0 OFFCURVE",
"949 -7 OFFCURVE",
"995 49 CURVE SMOOTH",
"1011 68 OFFCURVE",
"1026 94 OFFCURVE",
"1037 129 CURVE SMOOTH",
"1044 153 OFFCURVE",
"1029 155 OFFCURVE",
"1026 148 CURVE SMOOTH",
"1004 104 OFFCURVE",
"954 75 OFFCURVE",
"894 58 CURVE SMOOTH",
"851 46 OFFCURVE",
"807 39 OFFCURVE",
"762 36 CURVE SMOOTH",
"724 34 OFFCURVE",
"700 28 OFFCURVE",
"684 72 CURVE SMOOTH",
"678 89 OFFCURVE",
"676 108 OFFCURVE",
"675 125 CURVE SMOOTH",
"672 178 OFFCURVE",
"678 241 OFFCURVE",
"689 304 CURVE",
"937 304 LINE SMOOTH",
"954 304 OFFCURVE",
"970 344 OFFCURVE",
"963 344 CURVE SMOOTH",
"696 344 LINE",
"706 392 OFFCURVE",
"717 440 OFFCURVE",
"728 482 CURVE SMOOTH",
"742 538 OFFCURVE",
"766 618 OFFCURVE",
"792 666 CURVE",
"817 668 OFFCURVE",
"840 669 OFFCURVE",
"858 669 CURVE SMOOTH",
"935 668 OFFCURVE",
"1005 656 OFFCURVE",
"1008 600 CURVE SMOOTH",
"1009 578 OFFCURVE",
"995 536 OFFCURVE",
"1002 532 CURVE SMOOTH",
"1007 529 OFFCURVE",
"1021 528 OFFCURVE",
"1025 539 CURVE SMOOTH",
"1038 572 OFFCURVE",
"1080 650 OFFCURVE",
"1068 688 CURVE SMOOTH"
);
},
{
closed = 1;
nodes = (
"625 499 OFFCURVE",
"605 421 OFFCURVE",
"589 344 CURVE",
"424 344 LINE",
"496 418 OFFCURVE",
"569 490 OFFCURVE",
"640 557 CURVE"
);
}
);
width = 1074;
}
);
note = AE;
unicode = 00C6;
},
{
color = 0;
glyphname = Ccedilla;
lastChange = "2021-04-19 01:11:12 +0000";
layers = (
{
hints = (
{
horizontal = 1;
place = "{-285, 32}";
type = Stem;
},
{
horizontal = 1;
place = "{-99, 25}";
type = Stem;
},
{
horizontal = 1;
place = "{25, 54}";
type = Stem;
},
{
horizontal = 1;
place = "{513, 61}";
type = Stem;
},
{
horizontal = 1;
place = "{725, 37}";
type = Stem;
},
{
place = "{-11, 131}";
type = Stem;
},
{
place = "{45, 212}";
type = Stem;
},
{
place = "{452, 11}";
type = Stem;
},
{
place = "{594, 65}";
type = Stem;
},
{
place = "{628, 18}";
type = Stem;
}
);
layerId = "FDC6D5C2-1E82-4E29-8E0D-3EE46E074C54";
paths = (
{
closed = 1;
nodes = (
"683 621 OFFCURVE",
"694 675 OFFCURVE",
"687 677 CURVE SMOOTH",
"642 694 OFFCURVE",
"589 700 OFFCURVE",
"536 700 CURVE SMOOTH",
"430 700 OFFCURVE",
"314 667 OFFCURVE",
"229 603 CURVE SMOOTH",
"10 437 OFFCURVE",
"-100 31 OFFCURVE",
"242 -14 CURVE",
"226 -51 LINE",
"222 -51 LINE SMOOTH",
"161 -50 OFFCURVE",
"122 -78 OFFCURVE",
"95 -126 CURVE SMOOTH",
"62 -187 OFFCURVE",
"60 -277 OFFCURVE",
"148 -277 CURVE SMOOTH",
"189 -277 OFFCURVE",
"218 -261 OFFCURVE",
"241 -239 CURVE SMOOTH",
"246 -234 OFFCURVE",
"250 -204 OFFCURVE",
"239 -215 CURVE SMOOTH",
"218 -237 OFFCURVE",
"193 -253 OFFCURVE",
"166 -253 CURVE SMOOTH",
"118 -253 OFFCURVE",
"117 -195 OFFCURVE",
"142 -141 CURVE SMOOTH",
"159 -103 OFFCURVE",
"191 -77 OFFCURVE",
"220 -69 CURVE",
"228 -68 OFFCURVE",
"238 -70 OFFCURVE",
"241 -71 CURVE SMOOTH",
"245 -72 OFFCURVE",
"248 -70 OFFCURVE",
"249 -67 CURVE SMOOTH",
"264 -17 LINE",
"278 -18 OFFCURVE",
"293 -19 OFFCURVE",
"309 -19 CURVE SMOOTH",
"412 -19 OFFCURVE",
"517 9 OFFCURVE",
"573 52 CURVE SMOOTH",
"577 55 OFFCURVE",
"600 107 OFFCURVE",
"605 120 CURVE SMOOTH",
"609 131 OFFCURVE",
"608 145 OFFCURVE",
"597 133 CURVE SMOOTH",
"543 73 OFFCURVE",
"433 31 OFFCURVE",
"334 31 CURVE SMOOTH",
"22 31 OFFCURVE",
"141 406 OFFCURVE",
"279 544 CURVE SMOOTH",
"346 612 OFFCURVE",
"437 650 OFFCURVE",
"535 652 CURVE SMOOTH",
"581 653 OFFCURVE",
"627 644 OFFCURVE",
"669 627 CURVE SMOOTH"
);
}
);
width = 613;
}
);
note = Ccedilla;
unicode = 00C7;
},
{
color = 0;
glyphname = Egrave;
lastChange = "2021-04-19 01:11:12 +0000";
layers = (
{
hints = (
{
horizontal = 1;
place = "{-1, 35}";
type = Stem;
},
{
horizontal = 1;
place = "{352, 38}";
type = Stem;
},
{
horizontal = 1;
place = "{669, 24}";
type = Stem;
},
{
place = "{-11, 119}";
type = Stem;
},
{
horizontal = 1;
place = "{669, 29}";
type = Stem;
},
{
horizontal = 1;
place = "{755, 138}";
type = Stem;
},
{
place = "{281, 240}";
type = Stem;
}
);
layerId = "FDC6D5C2-1E82-4E29-8E0D-3EE46E074C54";
paths = (
{
closed = 1;
nodes = (
"578 714 OFFCURVE",
"530 699 OFFCURVE",
"451 698 CURVE SMOOTH",
"262 698 LINE SMOOTH",
"235 698 OFFCURVE",
"234 665 OFFCURVE",
"220 636 CURVE SMOOTH",
"178 547 OFFCURVE",
"149 486 OFFCURVE",
"121 419 CURVE SMOOTH",
"106 385 OFFCURVE",
"91 350 OFFCURVE",
"77 315 CURVE SMOOTH",
"32 205 OFFCURVE",
"-44 0 OFFCURVE",
"30 0 CURVE SMOOTH",
"256 0 LINE SMOOTH",
"321 0 OFFCURVE",
"411 -7 OFFCURVE",
"458 49 CURVE SMOOTH",
"473 68 OFFCURVE",
"489 94 OFFCURVE",
"500 129 CURVE SMOOTH",
"507 153 OFFCURVE",
"492 155 OFFCURVE",
"489 148 CURVE SMOOTH",
"467 104 OFFCURVE",
"417 75 OFFCURVE",
"357 58 CURVE SMOOTH",
"288 38 OFFCURVE",
"215 34 OFFCURVE",
"184 34 CURVE SMOOTH",
"114 34 OFFCURVE",
"105 65 OFFCURVE",
"120 128 CURVE SMOOTH",
"133 183 OFFCURVE",
"168 285 OFFCURVE",
"191 342 CURVE",
"434 342 LINE SMOOTH",
"448 342 OFFCURVE",
"476 391 OFFCURVE",
"470 391 CURVE SMOOTH",
"213 391 LINE",
"250 477 OFFCURVE",
"283 560 OFFCURVE",
"336 639 CURVE SMOOTH",
"351 662 OFFCURVE",
"380 665 OFFCURVE",
"417 665 CURVE SMOOTH",
"448 665 LINE",
"493 661 OFFCURVE",
"525 638 OFFCURVE",
"527 600 CURVE SMOOTH",
"528 578 OFFCURVE",
"514 536 OFFCURVE",
"521 532 CURVE SMOOTH",
"526 529 OFFCURVE",
"539 528 OFFCURVE",
"544 539 CURVE SMOOTH",
"556 572 OFFCURVE",
"599 650 OFFCURVE",
"587 688 CURVE SMOOTH"
);
},
{
closed = 1;
nodes = (
"383 815 OFFCURVE",
"468 772 OFFCURVE",
"484 761 CURVE SMOOTH",
"488 759 OFFCURVE",
"509 770 OFFCURVE",
"508 773 CURVE",
"493 780 OFFCURVE",
"417 839 OFFCURVE",
"368 874 CURVE SMOOTH",
"354 884 OFFCURVE",
"296 851 OFFCURVE",
"311 845 CURVE SMOOTH"
);
}
);
width = 524;
}
);
note = Egrave;
unicode = 00C8;
},
